<?xml version="1.0" encoding="utf-8" standalone="no"?>
<!DOCTYPE svg PUBLIC "-//W3C//DTD SVG 1.1//EN"
  "http://www.w3.org/Graphics/SVG/1.1/DTD/svg11.dtd">
<!-- Created with matplotlib (https://matplotlib.org/) -->
<svg height="720pt" version="1.1" viewBox="0 0 1440 720" width="1440pt" xmlns="http://www.w3.org/2000/svg" xmlns:xlink="http://www.w3.org/1999/xlink">
 <defs>
  <style type="text/css">
*{stroke-linecap:butt;stroke-linejoin:round;}
  </style>
 </defs>
 <g id="figure_1">
  <g id="patch_1">
   <path d="M 0 720 
L 1440 720 
L 1440 0 
L 0 0 
z
" style="fill:#ffffff;"/>
  </g>
  <g id="axes_1">
   <g id="patch_2">
    <path d="M 180 640.8 
L 687.272727 640.8 
L 687.272727 86.4 
L 180 86.4 
z
" style="fill:#ffffff;"/>
   </g>
   <g id="matplotlib.axis_1">
    <g id="xtick_1">
     <g id="line2d_1">
      <defs>
       <path d="M 0 0 
L 0 3.5 
" id="m97bebab469" style="stroke:#000000;stroke-width:0.8;"/>
      </defs>
      <g>
       <use style="stroke:#000000;stroke-width:0.8;" x="203.057851" xlink:href="#m97bebab469" y="640.8"/>
      </g>
     </g>
     <g id="text_1">
      <!-- 0.0 -->
      <defs>
       <path d="M 31.78125 66.40625 
Q 24.171875 66.40625 20.328125 58.90625 
Q 16.5 51.421875 16.5 36.375 
Q 16.5 21.390625 20.328125 13.890625 
Q 24.171875 6.390625 31.78125 6.390625 
Q 39.453125 6.390625 43.28125 13.890625 
Q 47.125 21.390625 47.125 36.375 
Q 47.125 51.421875 43.28125 58.90625 
Q 39.453125 66.40625 31.78125 66.40625 
z
M 31.78125 74.21875 
Q 44.046875 74.21875 50.515625 64.515625 
Q 56.984375 54.828125 56.984375 36.375 
Q 56.984375 17.96875 50.515625 8.265625 
Q 44.046875 -1.421875 31.78125 -1.421875 
Q 19.53125 -1.421875 13.0625 8.265625 
Q 6.59375 17.96875 6.59375 36.375 
Q 6.59375 54.828125 13.0625 64.515625 
Q 19.53125 74.21875 31.78125 74.21875 
z
" id="DejaVuSans-48"/>
       <path d="M 10.6875 12.40625 
L 21 12.40625 
L 21 0 
L 10.6875 0 
z
" id="DejaVuSans-46"/>
      </defs>
      <g transform="translate(195.106289 655.398438)scale(0.1 -0.1)">
       <use xlink:href="#DejaVuSans-48"/>
       <use x="63.623047" xlink:href="#DejaVuSans-46"/>
       <use x="95.410156" xlink:href="#DejaVuSans-48"/>
      </g>
     </g>
    </g>
    <g id="xtick_2">
     <g id="line2d_2">
      <g>
       <use style="stroke:#000000;stroke-width:0.8;" x="263.736407" xlink:href="#m97bebab469" y="640.8"/>
      </g>
     </g>
     <g id="text_2">
      <!-- 2.5 -->
      <defs>
       <path d="M 19.1875 8.296875 
L 53.609375 8.296875 
L 53.609375 0 
L 7.328125 0 
L 7.328125 8.296875 
Q 12.9375 14.109375 22.625 23.890625 
Q 32.328125 33.6875 34.8125 36.53125 
Q 39.546875 41.84375 41.421875 45.53125 
Q 43.3125 49.21875 43.3125 52.78125 
Q 43.3125 58.59375 39.234375 62.25 
Q 35.15625 65.921875 28.609375 65.921875 
Q 23.96875 65.921875 18.8125 64.3125 
Q 13.671875 62.703125 7.8125 59.421875 
L 7.8125 69.390625 
Q 13.765625 71.78125 18.9375 73 
Q 24.125 74.21875 28.421875 74.21875 
Q 39.75 74.21875 46.484375 68.546875 
Q 53.21875 62.890625 53.21875 53.421875 
Q 53.21875 48.921875 51.53125 44.890625 
Q 49.859375 40.875 45.40625 35.40625 
Q 44.1875 33.984375 37.640625 27.21875 
Q 31.109375 20.453125 19.1875 8.296875 
z
" id="DejaVuSans-50"/>
       <path d="M 10.796875 72.90625 
L 49.515625 72.90625 
L 49.515625 64.59375 
L 19.828125 64.59375 
L 19.828125 46.734375 
Q 21.96875 47.46875 24.109375 47.828125 
Q 26.265625 48.1875 28.421875 48.1875 
Q 40.625 48.1875 47.75 41.5 
Q 54.890625 34.8125 54.890625 23.390625 
Q 54.890625 11.625 47.5625 5.09375 
Q 40.234375 -1.421875 26.90625 -1.421875 
Q 22.3125 -1.421875 17.546875 -0.640625 
Q 12.796875 0.140625 7.71875 1.703125 
L 7.71875 11.625 
Q 12.109375 9.234375 16.796875 8.0625 
Q 21.484375 6.890625 26.703125 6.890625 
Q 35.15625 6.890625 40.078125 11.328125 
Q 45.015625 15.765625 45.015625 23.390625 
Q 45.015625 31 40.078125 35.4375 
Q 35.15625 39.890625 26.703125 39.890625 
Q 22.75 39.890625 18.8125 39.015625 
Q 14.890625 38.140625 10.796875 36.28125 
z
" id="DejaVuSans-53"/>
      </defs>
      <g transform="translate(255.784845 655.398438)scale(0.1 -0.1)">
       <use xlink:href="#DejaVuSans-50"/>
       <use x="63.623047" xlink:href="#DejaVuSans-46"/>
       <use x="95.410156" xlink:href="#DejaVuSans-53"/>
      </g>
     </g>
    </g>
    <g id="xtick_3">
     <g id="line2d_3">
      <g>
       <use style="stroke:#000000;stroke-width:0.8;" x="324.414963" xlink:href="#m97bebab469" y="640.8"/>
      </g>
     </g>
     <g id="text_3">
      <!-- 5.0 -->
      <g transform="translate(316.463401 655.398438)scale(0.1 -0.1)">
       <use xlink:href="#DejaVuSans-53"/>
       <use x="63.623047" xlink:href="#DejaVuSans-46"/>
       <use x="95.410156" xlink:href="#DejaVuSans-48"/>
      </g>
     </g>
    </g>
    <g id="xtick_4">
     <g id="line2d_4">
      <g>
       <use style="stroke:#000000;stroke-width:0.8;" x="385.093519" xlink:href="#m97bebab469" y="640.8"/>
      </g>
     </g>
     <g id="text_4">
      <!-- 7.5 -->
      <defs>
       <path d="M 8.203125 72.90625 
L 55.078125 72.90625 
L 55.078125 68.703125 
L 28.609375 0 
L 18.3125 0 
L 43.21875 64.59375 
L 8.203125 64.59375 
z
" id="DejaVuSans-55"/>
      </defs>
      <g transform="translate(377.141956 655.398438)scale(0.1 -0.1)">
       <use xlink:href="#DejaVuSans-55"/>
       <use x="63.623047" xlink:href="#DejaVuSans-46"/>
       <use x="95.410156" xlink:href="#DejaVuSans-53"/>
      </g>
     </g>
    </g>
    <g id="xtick_5">
     <g id="line2d_5">
      <g>
       <use style="stroke:#000000;stroke-width:0.8;" x="445.772075" xlink:href="#m97bebab469" y="640.8"/>
      </g>
     </g>
     <g id="text_5">
      <!-- 10.0 -->
      <defs>
       <path d="M 12.40625 8.296875 
L 28.515625 8.296875 
L 28.515625 63.921875 
L 10.984375 60.40625 
L 10.984375 69.390625 
L 28.421875 72.90625 
L 38.28125 72.90625 
L 38.28125 8.296875 
L 54.390625 8.296875 
L 54.390625 0 
L 12.40625 0 
z
" id="DejaVuSans-49"/>
      </defs>
      <g transform="translate(434.639262 655.398438)scale(0.1 -0.1)">
       <use xlink:href="#DejaVuSans-49"/>
       <use x="63.623047" xlink:href="#DejaVuSans-48"/>
       <use x="127.246094" xlink:href="#DejaVuSans-46"/>
       <use x="159.033203" xlink:href="#DejaVuSans-48"/>
      </g>
     </g>
    </g>
    <g id="xtick_6">
     <g id="line2d_6">
      <g>
       <use style="stroke:#000000;stroke-width:0.8;" x="506.450631" xlink:href="#m97bebab469" y="640.8"/>
      </g>
     </g>
     <g id="text_6">
      <!-- 12.5 -->
      <g transform="translate(495.317818 655.398438)scale(0.1 -0.1)">
       <use xlink:href="#DejaVuSans-49"/>
       <use x="63.623047" xlink:href="#DejaVuSans-50"/>
       <use x="127.246094" xlink:href="#DejaVuSans-46"/>
       <use x="159.033203" xlink:href="#DejaVuSans-53"/>
      </g>
     </g>
    </g>
    <g id="xtick_7">
     <g id="line2d_7">
      <g>
       <use style="stroke:#000000;stroke-width:0.8;" x="567.129187" xlink:href="#m97bebab469" y="640.8"/>
      </g>
     </g>
     <g id="text_7">
      <!-- 15.0 -->
      <g transform="translate(555.996374 655.398438)scale(0.1 -0.1)">
       <use xlink:href="#DejaVuSans-49"/>
       <use x="63.623047" xlink:href="#DejaVuSans-53"/>
       <use x="127.246094" xlink:href="#DejaVuSans-46"/>
       <use x="159.033203" xlink:href="#DejaVuSans-48"/>
      </g>
     </g>
    </g>
    <g id="xtick_8">
     <g id="line2d_8">
      <g>
       <use style="stroke:#000000;stroke-width:0.8;" x="627.807742" xlink:href="#m97bebab469" y="640.8"/>
      </g>
     </g>
     <g id="text_8">
      <!-- 17.5 -->
      <g transform="translate(616.67493 655.398438)scale(0.1 -0.1)">
       <use xlink:href="#DejaVuSans-49"/>
       <use x="63.623047" xlink:href="#DejaVuSans-55"/>
       <use x="127.246094" xlink:href="#DejaVuSans-46"/>
       <use x="159.033203" xlink:href="#DejaVuSans-53"/>
      </g>
     </g>
    </g>
   </g>
   <g id="matplotlib.axis_2">
    <g id="ytick_1">
     <g id="line2d_9">
      <defs>
       <path d="M 0 0 
L -3.5 0 
" id="m371a542f66" style="stroke:#000000;stroke-width:0.8;"/>
      </defs>
      <g>
       <use style="stroke:#000000;stroke-width:0.8;" x="180" xlink:href="#m371a542f66" y="607.305708"/>
      </g>
     </g>
     <g id="text_9">
      <!-- $\mathdefault{10^{-3}}$ -->
      <defs>
       <path d="M 10.59375 35.5 
L 73.1875 35.5 
L 73.1875 27.203125 
L 10.59375 27.203125 
z
" id="DejaVuSans-8722"/>
       <path d="M 40.578125 39.3125 
Q 47.65625 37.796875 51.625 33 
Q 55.609375 28.21875 55.609375 21.1875 
Q 55.609375 10.40625 48.1875 4.484375 
Q 40.765625 -1.421875 27.09375 -1.421875 
Q 22.515625 -1.421875 17.65625 -0.515625 
Q 12.796875 0.390625 7.625 2.203125 
L 7.625 11.71875 
Q 11.71875 9.328125 16.59375 8.109375 
Q 21.484375 6.890625 26.8125 6.890625 
Q 36.078125 6.890625 40.9375 10.546875 
Q 45.796875 14.203125 45.796875 21.1875 
Q 45.796875 27.640625 41.28125 31.265625 
Q 36.765625 34.90625 28.71875 34.90625 
L 20.21875 34.90625 
L 20.21875 43.015625 
L 29.109375 43.015625 
Q 36.375 43.015625 40.234375 45.921875 
Q 44.09375 48.828125 44.09375 54.296875 
Q 44.09375 59.90625 40.109375 62.90625 
Q 36.140625 65.921875 28.71875 65.921875 
Q 24.65625 65.921875 20.015625 65.03125 
Q 15.375 64.15625 9.8125 62.3125 
L 9.8125 71.09375 
Q 15.4375 72.65625 20.34375 73.4375 
Q 25.25 74.21875 29.59375 74.21875 
Q 40.828125 74.21875 47.359375 69.109375 
Q 53.90625 64.015625 53.90625 55.328125 
Q 53.90625 49.265625 50.4375 45.09375 
Q 46.96875 40.921875 40.578125 39.3125 
z
" id="DejaVuSans-51"/>
      </defs>
      <g transform="translate(149.5 611.104927)scale(0.1 -0.1)">
       <use transform="translate(0 0.765625)" xlink:href="#DejaVuSans-49"/>
       <use transform="translate(63.623047 0.765625)" xlink:href="#DejaVuSans-48"/>
       <use transform="translate(128.203125 39.046875)scale(0.7)" xlink:href="#DejaVuSans-8722"/>
       <use transform="translate(186.855469 39.046875)scale(0.7)" xlink:href="#DejaVuSans-51"/>
      </g>
     </g>
    </g>
    <g id="ytick_2">
     <g id="line2d_10">
      <g>
       <use style="stroke:#000000;stroke-width:0.8;" x="180" xlink:href="#m371a542f66" y="537.222417"/>
      </g>
     </g>
     <g id="text_10">
      <!-- $\mathdefault{10^{-2}}$ -->
      <g transform="translate(149.5 541.021636)scale(0.1 -0.1)">
       <use transform="translate(0 0.765625)" xlink:href="#DejaVuSans-49"/>
       <use transform="translate(63.623047 0.765625)" xlink:href="#DejaVuSans-48"/>
       <use transform="translate(128.203125 39.046875)scale(0.7)" xlink:href="#DejaVuSans-8722"/>
       <use transform="translate(186.855469 39.046875)scale(0.7)" xlink:href="#DejaVuSans-50"/>
      </g>
     </g>
    </g>
    <g id="ytick_3">
     <g id="line2d_11">
      <g>
       <use style="stroke:#000000;stroke-width:0.8;" x="180" xlink:href="#m371a542f66" y="467.139126"/>
      </g>
     </g>
     <g id="text_11">
      <!-- $\mathdefault{10^{-1}}$ -->
      <g transform="translate(149.5 470.938344)scale(0.1 -0.1)">
       <use transform="translate(0 0.684375)" xlink:href="#DejaVuSans-49"/>
       <use transform="translate(63.623047 0.684375)" xlink:href="#DejaVuSans-48"/>
       <use transform="translate(128.203125 38.965625)scale(0.7)" xlink:href="#DejaVuSans-8722"/>
       <use transform="translate(186.855469 38.965625)scale(0.7)" xlink:href="#DejaVuSans-49"/>
      </g>
     </g>
    </g>
    <g id="ytick_4">
     <g id="line2d_12">
      <g>
       <use style="stroke:#000000;stroke-width:0.8;" x="180" xlink:href="#m371a542f66" y="397.055834"/>
      </g>
     </g>
     <g id="text_12">
      <!-- $\mathdefault{10^{0}}$ -->
      <g transform="translate(155.4 400.855053)scale(0.1 -0.1)">
       <use transform="translate(0 0.765625)" xlink:href="#DejaVuSans-49"/>
       <use transform="translate(63.623047 0.765625)" xlink:href="#DejaVuSans-48"/>
       <use transform="translate(128.203125 39.046875)scale(0.7)" xlink:href="#DejaVuSans-48"/>
      </g>
     </g>
    </g>
    <g id="ytick_5">
     <g id="line2d_13">
      <g>
       <use style="stroke:#000000;stroke-width:0.8;" x="180" xlink:href="#m371a542f66" y="326.972543"/>
      </g>
     </g>
     <g id="text_13">
      <!-- $\mathdefault{10^{1}}$ -->
      <g transform="translate(155.4 330.771762)scale(0.1 -0.1)">
       <use transform="translate(0 0.684375)" xlink:href="#DejaVuSans-49"/>
       <use transform="translate(63.623047 0.684375)" xlink:href="#DejaVuSans-48"/>
       <use transform="translate(128.203125 38.965625)scale(0.7)" xlink:href="#DejaVuSans-49"/>
      </g>
     </g>
    </g>
    <g id="ytick_6">
     <g id="line2d_14">
      <g>
       <use style="stroke:#000000;stroke-width:0.8;" x="180" xlink:href="#m371a542f66" y="256.889252"/>
      </g>
     </g>
     <g id="text_14">
      <!-- $\mathdefault{10^{2}}$ -->
      <g transform="translate(155.4 260.68847)scale(0.1 -0.1)">
       <use transform="translate(0 0.765625)" xlink:href="#DejaVuSans-49"/>
       <use transform="translate(63.623047 0.765625)" xlink:href="#DejaVuSans-48"/>
       <use transform="translate(128.203125 39.046875)scale(0.7)" xlink:href="#DejaVuSans-50"/>
      </g>
     </g>
    </g>
    <g id="ytick_7">
     <g id="line2d_15">
      <g>
       <use style="stroke:#000000;stroke-width:0.8;" x="180" xlink:href="#m371a542f66" y="186.80596"/>
      </g>
     </g>
     <g id="text_15">
      <!-- $\mathdefault{10^{3}}$ -->
      <g transform="translate(155.4 190.605179)scale(0.1 -0.1)">
       <use transform="translate(0 0.765625)" xlink:href="#DejaVuSans-49"/>
       <use transform="translate(63.623047 0.765625)" xlink:href="#DejaVuSans-48"/>
       <use transform="translate(128.203125 39.046875)scale(0.7)" xlink:href="#DejaVuSans-51"/>
      </g>
     </g>
    </g>
    <g id="ytick_8">
     <g id="line2d_16">
      <g>
       <use style="stroke:#000000;stroke-width:0.8;" x="180" xlink:href="#m371a542f66" y="116.722669"/>
      </g>
     </g>
     <g id="text_16">
      <!-- $\mathdefault{10^{4}}$ -->
      <defs>
       <path d="M 37.796875 64.3125 
L 12.890625 25.390625 
L 37.796875 25.390625 
z
M 35.203125 72.90625 
L 47.609375 72.90625 
L 47.609375 25.390625 
L 58.015625 25.390625 
L 58.015625 17.1875 
L 47.609375 17.1875 
L 47.609375 0 
L 37.796875 0 
L 37.796875 17.1875 
L 4.890625 17.1875 
L 4.890625 26.703125 
z
" id="DejaVuSans-52"/>
      </defs>
      <g transform="translate(155.4 120.521888)scale(0.1 -0.1)">
       <use transform="translate(0 0.684375)" xlink:href="#DejaVuSans-49"/>
       <use transform="translate(63.623047 0.684375)" xlink:href="#DejaVuSans-48"/>
       <use transform="translate(128.203125 38.965625)scale(0.7)" xlink:href="#DejaVuSans-52"/>
      </g>
     </g>
    </g>
    <g id="ytick_9">
     <g id="line2d_17">
      <defs>
       <path d="M 0 0 
L -2 0 
" id="m3bafdb9d0b" style="stroke:#000000;stroke-width:0.6;"/>
      </defs>
      <g>
       <use style="stroke:#000000;stroke-width:0.6;" x="180" xlink:href="#m3bafdb9d0b" y="635.194654"/>
      </g>
     </g>
    </g>
    <g id="ytick_10">
     <g id="line2d_18">
      <g>
       <use style="stroke:#000000;stroke-width:0.6;" x="180" xlink:href="#m3bafdb9d0b" y="628.402881"/>
      </g>
     </g>
    </g>
    <g id="ytick_11">
     <g id="line2d_19">
      <g>
       <use style="stroke:#000000;stroke-width:0.6;" x="180" xlink:href="#m3bafdb9d0b" y="622.853599"/>
      </g>
     </g>
    </g>
    <g id="ytick_12">
     <g id="line2d_20">
      <g>
       <use style="stroke:#000000;stroke-width:0.6;" x="180" xlink:href="#m3bafdb9d0b" y="618.161747"/>
      </g>
     </g>
    </g>
    <g id="ytick_13">
     <g id="line2d_21">
      <g>
       <use style="stroke:#000000;stroke-width:0.6;" x="180" xlink:href="#m3bafdb9d0b" y="614.097481"/>
      </g>
     </g>
    </g>
    <g id="ytick_14">
     <g id="line2d_22">
      <g>
       <use style="stroke:#000000;stroke-width:0.6;" x="180" xlink:href="#m3bafdb9d0b" y="610.512544"/>
      </g>
     </g>
    </g>
    <g id="ytick_15">
     <g id="line2d_23">
      <g>
       <use style="stroke:#000000;stroke-width:0.6;" x="180" xlink:href="#m3bafdb9d0b" y="586.208535"/>
      </g>
     </g>
    </g>
    <g id="ytick_16">
     <g id="line2d_24">
      <g>
       <use style="stroke:#000000;stroke-width:0.6;" x="180" xlink:href="#m3bafdb9d0b" y="573.86748"/>
      </g>
     </g>
    </g>
    <g id="ytick_17">
     <g id="line2d_25">
      <g>
       <use style="stroke:#000000;stroke-width:0.6;" x="180" xlink:href="#m3bafdb9d0b" y="565.111362"/>
      </g>
     </g>
    </g>
    <g id="ytick_18">
     <g id="line2d_26">
      <g>
       <use style="stroke:#000000;stroke-width:0.6;" x="180" xlink:href="#m3bafdb9d0b" y="558.31959"/>
      </g>
     </g>
    </g>
    <g id="ytick_19">
     <g id="line2d_27">
      <g>
       <use style="stroke:#000000;stroke-width:0.6;" x="180" xlink:href="#m3bafdb9d0b" y="552.770307"/>
      </g>
     </g>
    </g>
    <g id="ytick_20">
     <g id="line2d_28">
      <g>
       <use style="stroke:#000000;stroke-width:0.6;" x="180" xlink:href="#m3bafdb9d0b" y="548.078456"/>
      </g>
     </g>
    </g>
    <g id="ytick_21">
     <g id="line2d_29">
      <g>
       <use style="stroke:#000000;stroke-width:0.6;" x="180" xlink:href="#m3bafdb9d0b" y="544.01419"/>
      </g>
     </g>
    </g>
    <g id="ytick_22">
     <g id="line2d_30">
      <g>
       <use style="stroke:#000000;stroke-width:0.6;" x="180" xlink:href="#m3bafdb9d0b" y="540.429252"/>
      </g>
     </g>
    </g>
    <g id="ytick_23">
     <g id="line2d_31">
      <g>
       <use style="stroke:#000000;stroke-width:0.6;" x="180" xlink:href="#m3bafdb9d0b" y="516.125244"/>
      </g>
     </g>
    </g>
    <g id="ytick_24">
     <g id="line2d_32">
      <g>
       <use style="stroke:#000000;stroke-width:0.6;" x="180" xlink:href="#m3bafdb9d0b" y="503.784189"/>
      </g>
     </g>
    </g>
    <g id="ytick_25">
     <g id="line2d_33">
      <g>
       <use style="stroke:#000000;stroke-width:0.6;" x="180" xlink:href="#m3bafdb9d0b" y="495.028071"/>
      </g>
     </g>
    </g>
    <g id="ytick_26">
     <g id="line2d_34">
      <g>
       <use style="stroke:#000000;stroke-width:0.6;" x="180" xlink:href="#m3bafdb9d0b" y="488.236298"/>
      </g>
     </g>
    </g>
    <g id="ytick_27">
     <g id="line2d_35">
      <g>
       <use style="stroke:#000000;stroke-width:0.6;" x="180" xlink:href="#m3bafdb9d0b" y="482.687016"/>
      </g>
     </g>
    </g>
    <g id="ytick_28">
     <g id="line2d_36">
      <g>
       <use style="stroke:#000000;stroke-width:0.6;" x="180" xlink:href="#m3bafdb9d0b" y="477.995165"/>
      </g>
     </g>
    </g>
    <g id="ytick_29">
     <g id="line2d_37">
      <g>
       <use style="stroke:#000000;stroke-width:0.6;" x="180" xlink:href="#m3bafdb9d0b" y="473.930898"/>
      </g>
     </g>
    </g>
    <g id="ytick_30">
     <g id="line2d_38">
      <g>
       <use style="stroke:#000000;stroke-width:0.6;" x="180" xlink:href="#m3bafdb9d0b" y="470.345961"/>
      </g>
     </g>
    </g>
    <g id="ytick_31">
     <g id="line2d_39">
      <g>
       <use style="stroke:#000000;stroke-width:0.6;" x="180" xlink:href="#m3bafdb9d0b" y="446.041953"/>
      </g>
     </g>
    </g>
    <g id="ytick_32">
     <g id="line2d_40">
      <g>
       <use style="stroke:#000000;stroke-width:0.6;" x="180" xlink:href="#m3bafdb9d0b" y="433.700898"/>
      </g>
     </g>
    </g>
    <g id="ytick_33">
     <g id="line2d_41">
      <g>
       <use style="stroke:#000000;stroke-width:0.6;" x="180" xlink:href="#m3bafdb9d0b" y="424.94478"/>
      </g>
     </g>
    </g>
    <g id="ytick_34">
     <g id="line2d_42">
      <g>
       <use style="stroke:#000000;stroke-width:0.6;" x="180" xlink:href="#m3bafdb9d0b" y="418.153007"/>
      </g>
     </g>
    </g>
    <g id="ytick_35">
     <g id="line2d_43">
      <g>
       <use style="stroke:#000000;stroke-width:0.6;" x="180" xlink:href="#m3bafdb9d0b" y="412.603725"/>
      </g>
     </g>
    </g>
    <g id="ytick_36">
     <g id="line2d_44">
      <g>
       <use style="stroke:#000000;stroke-width:0.6;" x="180" xlink:href="#m3bafdb9d0b" y="407.911873"/>
      </g>
     </g>
    </g>
    <g id="ytick_37">
     <g id="line2d_45">
      <g>
       <use style="stroke:#000000;stroke-width:0.6;" x="180" xlink:href="#m3bafdb9d0b" y="403.847607"/>
      </g>
     </g>
    </g>
    <g id="ytick_38">
     <g id="line2d_46">
      <g>
       <use style="stroke:#000000;stroke-width:0.6;" x="180" xlink:href="#m3bafdb9d0b" y="400.26267"/>
      </g>
     </g>
    </g>
    <g id="ytick_39">
     <g id="line2d_47">
      <g>
       <use style="stroke:#000000;stroke-width:0.6;" x="180" xlink:href="#m3bafdb9d0b" y="375.958661"/>
      </g>
     </g>
    </g>
    <g id="ytick_40">
     <g id="line2d_48">
      <g>
       <use style="stroke:#000000;stroke-width:0.6;" x="180" xlink:href="#m3bafdb9d0b" y="363.617606"/>
      </g>
     </g>
    </g>
    <g id="ytick_41">
     <g id="line2d_49">
      <g>
       <use style="stroke:#000000;stroke-width:0.6;" x="180" xlink:href="#m3bafdb9d0b" y="354.861488"/>
      </g>
     </g>
    </g>
    <g id="ytick_42">
     <g id="line2d_50">
      <g>
       <use style="stroke:#000000;stroke-width:0.6;" x="180" xlink:href="#m3bafdb9d0b" y="348.069716"/>
      </g>
     </g>
    </g>
    <g id="ytick_43">
     <g id="line2d_51">
      <g>
       <use style="stroke:#000000;stroke-width:0.6;" x="180" xlink:href="#m3bafdb9d0b" y="342.520433"/>
      </g>
     </g>
    </g>
    <g id="ytick_44">
     <g id="line2d_52">
      <g>
       <use style="stroke:#000000;stroke-width:0.6;" x="180" xlink:href="#m3bafdb9d0b" y="337.828582"/>
      </g>
     </g>
    </g>
    <g id="ytick_45">
     <g id="line2d_53">
      <g>
       <use style="stroke:#000000;stroke-width:0.6;" x="180" xlink:href="#m3bafdb9d0b" y="333.764316"/>
      </g>
     </g>
    </g>
    <g id="ytick_46">
     <g id="line2d_54">
      <g>
       <use style="stroke:#000000;stroke-width:0.6;" x="180" xlink:href="#m3bafdb9d0b" y="330.179378"/>
      </g>
     </g>
    </g>
    <g id="ytick_47">
     <g id="line2d_55">
      <g>
       <use style="stroke:#000000;stroke-width:0.6;" x="180" xlink:href="#m3bafdb9d0b" y="305.87537"/>
      </g>
     </g>
    </g>
    <g id="ytick_48">
     <g id="line2d_56">
      <g>
       <use style="stroke:#000000;stroke-width:0.6;" x="180" xlink:href="#m3bafdb9d0b" y="293.534315"/>
      </g>
     </g>
    </g>
    <g id="ytick_49">
     <g id="line2d_57">
      <g>
       <use style="stroke:#000000;stroke-width:0.6;" x="180" xlink:href="#m3bafdb9d0b" y="284.778197"/>
      </g>
     </g>
    </g>
    <g id="ytick_50">
     <g id="line2d_58">
      <g>
       <use style="stroke:#000000;stroke-width:0.6;" x="180" xlink:href="#m3bafdb9d0b" y="277.986424"/>
      </g>
     </g>
    </g>
    <g id="ytick_51">
     <g id="line2d_59">
      <g>
       <use style="stroke:#000000;stroke-width:0.6;" x="180" xlink:href="#m3bafdb9d0b" y="272.437142"/>
      </g>
     </g>
    </g>
    <g id="ytick_52">
     <g id="line2d_60">
      <g>
       <use style="stroke:#000000;stroke-width:0.6;" x="180" xlink:href="#m3bafdb9d0b" y="267.745291"/>
      </g>
     </g>
    </g>
    <g id="ytick_53">
     <g id="line2d_61">
      <g>
       <use style="stroke:#000000;stroke-width:0.6;" x="180" xlink:href="#m3bafdb9d0b" y="263.681024"/>
      </g>
     </g>
    </g>
    <g id="ytick_54">
     <g id="line2d_62">
      <g>
       <use style="stroke:#000000;stroke-width:0.6;" x="180" xlink:href="#m3bafdb9d0b" y="260.096087"/>
      </g>
     </g>
    </g>
    <g id="ytick_55">
     <g id="line2d_63">
      <g>
       <use style="stroke:#000000;stroke-width:0.6;" x="180" xlink:href="#m3bafdb9d0b" y="235.792079"/>
      </g>
     </g>
    </g>
    <g id="ytick_56">
     <g id="line2d_64">
      <g>
       <use style="stroke:#000000;stroke-width:0.6;" x="180" xlink:href="#m3bafdb9d0b" y="223.451024"/>
      </g>
     </g>
    </g>
    <g id="ytick_57">
     <g id="line2d_65">
      <g>
       <use style="stroke:#000000;stroke-width:0.6;" x="180" xlink:href="#m3bafdb9d0b" y="214.694906"/>
      </g>
     </g>
    </g>
    <g id="ytick_58">
     <g id="line2d_66">
      <g>
       <use style="stroke:#000000;stroke-width:0.6;" x="180" xlink:href="#m3bafdb9d0b" y="207.903133"/>
      </g>
     </g>
    </g>
    <g id="ytick_59">
     <g id="line2d_67">
      <g>
       <use style="stroke:#000000;stroke-width:0.6;" x="180" xlink:href="#m3bafdb9d0b" y="202.353851"/>
      </g>
     </g>
    </g>
    <g id="ytick_60">
     <g id="line2d_68">
      <g>
       <use style="stroke:#000000;stroke-width:0.6;" x="180" xlink:href="#m3bafdb9d0b" y="197.661999"/>
      </g>
     </g>
    </g>
    <g id="ytick_61">
     <g id="line2d_69">
      <g>
       <use style="stroke:#000000;stroke-width:0.6;" x="180" xlink:href="#m3bafdb9d0b" y="193.597733"/>
      </g>
     </g>
    </g>
    <g id="ytick_62">
     <g id="line2d_70">
      <g>
       <use style="stroke:#000000;stroke-width:0.6;" x="180" xlink:href="#m3bafdb9d0b" y="190.012796"/>
      </g>
     </g>
    </g>
    <g id="ytick_63">
     <g id="line2d_71">
      <g>
       <use style="stroke:#000000;stroke-width:0.6;" x="180" xlink:href="#m3bafdb9d0b" y="165.708787"/>
      </g>
     </g>
    </g>
    <g id="ytick_64">
     <g id="line2d_72">
      <g>
       <use style="stroke:#000000;stroke-width:0.6;" x="180" xlink:href="#m3bafdb9d0b" y="153.367732"/>
      </g>
     </g>
    </g>
    <g id="ytick_65">
     <g id="line2d_73">
      <g>
       <use style="stroke:#000000;stroke-width:0.6;" x="180" xlink:href="#m3bafdb9d0b" y="144.611614"/>
      </g>
     </g>
    </g>
    <g id="ytick_66">
     <g id="line2d_74">
      <g>
       <use style="stroke:#000000;stroke-width:0.6;" x="180" xlink:href="#m3bafdb9d0b" y="137.819842"/>
      </g>
     </g>
    </g>
    <g id="ytick_67">
     <g id="line2d_75">
      <g>
       <use style="stroke:#000000;stroke-width:0.6;" x="180" xlink:href="#m3bafdb9d0b" y="132.270559"/>
      </g>
     </g>
    </g>
    <g id="ytick_68">
     <g id="line2d_76">
      <g>
       <use style="stroke:#000000;stroke-width:0.6;" x="180" xlink:href="#m3bafdb9d0b" y="127.578708"/>
      </g>
     </g>
    </g>
    <g id="ytick_69">
     <g id="line2d_77">
      <g>
       <use style="stroke:#000000;stroke-width:0.6;" x="180" xlink:href="#m3bafdb9d0b" y="123.514442"/>
      </g>
     </g>
    </g>
    <g id="ytick_70">
     <g id="line2d_78">
      <g>
       <use style="stroke:#000000;stroke-width:0.6;" x="180" xlink:href="#m3bafdb9d0b" y="119.929504"/>
      </g>
     </g>
    </g>
    <g id="ytick_71">
     <g id="line2d_79">
      <g>
       <use style="stroke:#000000;stroke-width:0.6;" x="180" xlink:href="#m3bafdb9d0b" y="95.625496"/>
      </g>
     </g>
    </g>
   </g>
   <g id="line2d_80">
    <path clip-path="url(#p575b2bd1dd)" d="M 203.057851 271.20567 
L 227.329274 368.093621 
L 251.600696 388.839746 
L 275.872118 402.834409 
L 300.143541 421.257942 
L 324.414963 441.522163 
L 348.686385 436.199018 
L 372.957808 251.670797 
L 397.22923 321.179004 
L 421.500652 409.29774 
L 445.772075 437.047755 
L 470.043497 421.041967 
L 494.31492 386.635396 
L 518.586342 365.867251 
L 542.857764 388.261145 
L 567.129187 391.959585 
L 591.400609 388.292523 
L 615.672031 396.671981 
L 639.943454 438.68954 
L 664.214876 410.849666 
" style="fill:none;stroke:#1f77b4;stroke-linecap:square;stroke-opacity:0.2;stroke-width:1.5;"/>
   </g>
   <g id="line2d_81">
    <path clip-path="url(#p575b2bd1dd)" d="M 203.057851 257.870635 
L 227.329274 281.782641 
L 251.600696 301.740726 
L 275.872118 163.769723 
L 300.143541 120.156523 
L 324.414963 111.6 
L 348.686385 132.307154 
L 372.957808 174.199248 
L 397.22923 191.635591 
L 421.500652 199.737562 
L 445.772075 219.930541 
L 470.043497 240.479822 
L 494.31492 265.928844 
L 518.586342 263.174038 
L 542.857764 264.146763 
L 567.129187 259.406038 
L 591.400609 265.015161 
L 615.672031 297.305762 
L 639.943454 291.443966 
L 664.214876 261.461724 
" style="fill:none;stroke:#1f77b4;stroke-linecap:square;stroke-opacity:0.2;stroke-width:1.5;"/>
   </g>
   <g id="line2d_82">
    <path clip-path="url(#p575b2bd1dd)" d="M 203.057851 331.159848 
L 227.329274 304.452832 
L 251.600696 406.866734 
L 275.872118 446.986109 
L 300.143541 431.641619 
L 324.414963 412.406127 
L 348.686385 372.030277 
L 372.957808 357.936644 
L 397.22923 437.451044 
L 421.500652 401.970985 
L 445.772075 381.824312 
L 470.043497 383.169706 
L 494.31492 409.441296 
L 518.586342 365.591483 
L 542.857764 426.575606 
L 567.129187 442.437119 
L 591.400609 442.730128 
L 615.672031 430.269887 
L 639.943454 346.32704 
L 664.214876 424.422396 
" style="fill:none;stroke:#1f77b4;stroke-linecap:square;stroke-opacity:0.2;stroke-width:1.5;"/>
   </g>
   <g id="line2d_83">
    <path clip-path="url(#p575b2bd1dd)" d="M 203.057851 386.642364 
L 227.329274 242.05731 
L 251.600696 299.807958 
L 275.872118 326.387237 
L 300.143541 361.109708 
L 324.414963 395.974205 
L 348.686385 427.694122 
L 372.957808 452.523928 
L 397.22923 457.516095 
L 421.500652 450.251395 
L 445.772075 443.144226 
L 470.043497 420.583088 
L 494.31492 423.920464 
L 518.586342 435.169314 
L 542.857764 450.48471 
L 567.129187 456.761946 
L 591.400609 461.830201 
L 615.672031 474.765975 
L 639.943454 481.0172 
L 664.214876 479.245364 
" style="fill:none;stroke:#1f77b4;stroke-linecap:square;stroke-opacity:0.2;stroke-width:1.5;"/>
   </g>
   <g id="line2d_84">
    <path clip-path="url(#p575b2bd1dd)" d="M 203.057851 283.03572 
L 227.329274 273.669638 
L 251.600696 320.575067 
L 275.872118 205.804346 
L 300.143541 162.33714 
L 324.414963 153.789531 
L 348.686385 174.486686 
L 372.957808 214.024562 
L 397.22923 233.387319 
L 421.500652 241.85316 
L 445.772075 261.932262 
L 470.043497 282.234531 
L 494.31492 307.120879 
L 518.586342 303.24281 
L 542.857764 305.620707 
L 567.129187 301.092847 
L 591.400609 306.55059 
L 615.672031 337.904679 
L 639.943454 328.738348 
L 664.214876 303.266072 
" style="fill:none;stroke:#1f77b4;stroke-linecap:square;stroke-width:1.5;"/>
   </g>
   <g id="line2d_85">
    <path clip-path="url(#p575b2bd1dd)" d="M 203.057851 459.307258 
L 227.329274 447.279622 
L 251.600696 461.132942 
L 275.872118 474.165181 
L 300.143541 464.359664 
L 324.414963 452.640764 
L 348.686385 446.306681 
L 372.957808 434.530948 
L 397.22923 457.336831 
L 421.500652 454.637967 
L 445.772075 455.993037 
L 470.043497 455.729064 
L 494.31492 454.58263 
L 518.586342 455.072799 
L 542.857764 457.304148 
L 567.129187 452.307358 
L 591.400609 456.389273 
L 615.672031 451.284017 
L 639.943454 460.782794 
L 664.214876 448.505621 
" style="fill:none;stroke:#ff7f0e;stroke-linecap:square;stroke-opacity:0.2;stroke-width:1.5;"/>
   </g>
   <g id="line2d_86">
    <path clip-path="url(#p575b2bd1dd)" d="M 203.057851 455.371492 
L 227.329274 447.360735 
L 251.600696 422.335402 
L 275.872118 460.592982 
L 300.143541 461.637144 
L 324.414963 466.381498 
L 348.686385 474.848075 
L 372.957808 451.080519 
L 397.22923 442.345634 
L 421.500652 449.569647 
L 445.772075 449.393159 
L 470.043497 454.819605 
L 494.31492 463.283734 
L 518.586342 456.528585 
L 542.857764 449.724109 
L 567.129187 444.471662 
L 591.400609 450.554875 
L 615.672031 445.98356 
L 639.943454 450.455942 
L 664.214876 444.196022 
" style="fill:none;stroke:#ff7f0e;stroke-linecap:square;stroke-opacity:0.2;stroke-width:1.5;"/>
   </g>
   <g id="line2d_87">
    <path clip-path="url(#p575b2bd1dd)" d="M 203.057851 438.191714 
L 227.329274 453.471298 
L 251.600696 467.147159 
L 275.872118 463.727519 
L 300.143541 456.801981 
L 324.414963 452.719804 
L 348.686385 455.040751 
L 372.957808 459.483497 
L 397.22923 454.625826 
L 421.500652 458.874912 
L 445.772075 453.152767 
L 470.043497 461.517316 
L 494.31492 462.06744 
L 518.586342 466.421471 
L 542.857764 460.984415 
L 567.129187 461.128569 
L 591.400609 461.489825 
L 615.672031 459.695294 
L 639.943454 461.808685 
L 664.214876 460.847237 
" style="fill:none;stroke:#ff7f0e;stroke-linecap:square;stroke-opacity:0.2;stroke-width:1.5;"/>
   </g>
   <g id="line2d_88">
    <path clip-path="url(#p575b2bd1dd)" d="M 203.057851 466.175454 
L 227.329274 460.620514 
L 251.600696 444.102081 
L 275.872118 452.713008 
L 300.143541 452.177237 
L 324.414963 448.394715 
L 348.686385 443.4003 
L 372.957808 454.264879 
L 397.22923 461.709961 
L 421.500652 454.191988 
L 445.772075 463.14077 
L 470.043497 457.267133 
L 494.31492 460.12834 
L 518.586342 466.626767 
L 542.857764 465.231199 
L 567.129187 462.301938 
L 591.400609 462.822681 
L 615.672031 461.479699 
L 639.943454 462.644255 
L 664.214876 462.614745 
" style="fill:none;stroke:#ff7f0e;stroke-linecap:square;stroke-opacity:0.2;stroke-width:1.5;"/>
   </g>
   <g id="line2d_89">
    <path clip-path="url(#p575b2bd1dd)" d="M 203.057851 452.899923 
L 227.329274 451.7079 
L 251.600696 443.462441 
L 275.872118 461.852292 
L 300.143541 458.384548 
L 324.414963 454.331897 
L 348.686385 452.699156 
L 372.957808 448.305417 
L 397.22923 453.110842 
L 421.500652 454.139881 
L 445.772075 455.014771 
L 470.043497 457.227299 
L 494.31492 459.82805 
L 518.586342 460.687389 
L 542.857764 457.767132 
L 567.129187 454.173577 
L 591.400609 457.422605 
L 615.672031 453.95344 
L 639.943454 458.500443 
L 664.214876 453.027214 
" style="fill:none;stroke:#ff7f0e;stroke-linecap:square;stroke-width:1.5;"/>
   </g>
   <g id="line2d_90">
    <path clip-path="url(#p575b2bd1dd)" d="M 203.057851 481.013362 
L 227.329274 508.043414 
L 251.600696 536.578576 
L 275.872118 553.220149 
L 300.143541 556.624483 
L 324.414963 558.753437 
L 348.686385 560.434578 
L 372.957808 562.719725 
L 397.22923 565.635758 
L 421.500652 569.2458 
L 445.772075 572.260254 
L 470.043497 575.4158 
L 494.31492 577.154677 
L 518.586342 579.020348 
L 542.857764 579.932115 
L 567.129187 581.967656 
L 591.400609 583.17272 
L 615.672031 585.950543 
L 639.943454 585.064893 
L 664.214876 562.112492 
" style="fill:none;stroke:#2ca02c;stroke-linecap:square;stroke-opacity:0.2;stroke-width:1.5;"/>
   </g>
   <g id="line2d_91">
    <path clip-path="url(#p575b2bd1dd)" d="M 203.057851 481.591396 
L 227.329274 530.450618 
L 251.600696 543.21777 
L 275.872118 546.016655 
L 300.143541 548.338911 
L 324.414963 549.243162 
L 348.686385 548.979585 
L 372.957808 548.678573 
L 397.22923 553.173397 
L 421.500652 562.4547 
L 445.772075 561.442531 
L 470.043497 563.681575 
L 494.31492 555.211772 
L 518.586342 549.093735 
L 542.857764 554.437014 
L 567.129187 553.356902 
L 591.400609 543.482631 
L 615.672031 548.825572 
L 639.943454 552.646636 
L 664.214876 548.082485 
" style="fill:none;stroke:#2ca02c;stroke-linecap:square;stroke-opacity:0.2;stroke-width:1.5;"/>
   </g>
   <g id="line2d_92">
    <path clip-path="url(#p575b2bd1dd)" d="M 203.057851 477.295682 
L 227.329274 513.113733 
L 251.600696 528.350216 
L 275.872118 542.92693 
L 300.143541 548.186392 
L 324.414963 552.892559 
L 348.686385 556.150719 
L 372.957808 558.701366 
L 397.22923 558.764876 
L 421.500652 562.408539 
L 445.772075 567.091571 
L 470.043497 573.219211 
L 494.31492 575.234756 
L 518.586342 551.358036 
L 542.857764 550.366748 
L 567.129187 548.962351 
L 591.400609 553.667236 
L 615.672031 547.949877 
L 639.943454 557.825821 
L 664.214876 565.025947 
" style="fill:none;stroke:#2ca02c;stroke-linecap:square;stroke-opacity:0.2;stroke-width:1.5;"/>
   </g>
   <g id="line2d_93">
    <path clip-path="url(#p575b2bd1dd)" d="M 203.057851 479.634391 
L 227.329274 516.857856 
L 251.600696 520.98512 
L 275.872118 522.226803 
L 300.143541 534.633957 
L 324.414963 546.960908 
L 348.686385 549.79745 
L 372.957808 554.806631 
L 397.22923 558.069993 
L 421.500652 561.85819 
L 445.772075 559.702098 
L 470.043497 560.645773 
L 494.31492 557.74831 
L 518.586342 556.564803 
L 542.857764 562.604446 
L 567.129187 562.997606 
L 591.400609 551.194552 
L 615.672031 553.027064 
L 639.943454 560.247469 
L 664.214876 562.405455 
" style="fill:none;stroke:#2ca02c;stroke-linecap:square;stroke-opacity:0.2;stroke-width:1.5;"/>
   </g>
   <g id="line2d_94">
    <path clip-path="url(#p575b2bd1dd)" d="M 203.057851 479.83825 
L 227.329274 516.057364 
L 251.600696 531.133481 
L 275.872118 538.735196 
L 300.143541 545.887779 
L 324.414963 551.644704 
L 348.686385 553.482352 
L 372.957808 555.780909 
L 397.22923 558.592778 
L 421.500652 563.845557 
L 445.772075 564.731176 
L 470.043497 567.607329 
L 494.31492 564.745772 
L 518.586342 557.001963 
L 542.857764 559.921295 
L 567.129187 559.448485 
L 591.400609 554.741023 
L 615.672031 555.659609 
L 639.943454 561.736993 
L 664.214876 558.631038 
" style="fill:none;stroke:#2ca02c;stroke-linecap:square;stroke-width:1.5;"/>
   </g>
   <g id="line2d_95">
    <path clip-path="url(#p575b2bd1dd)" d="M 203.057851 463.333928 
L 227.329274 508.450718 
L 251.600696 522.607553 
L 275.872118 531.618248 
L 300.143541 541.463165 
L 324.414963 549.656464 
L 348.686385 556.372958 
L 372.957808 562.22834 
L 397.22923 569.556842 
L 421.500652 574.428873 
L 445.772075 579.661822 
L 470.043497 582.958565 
L 494.31492 585.596045 
L 518.586342 587.252562 
L 542.857764 588.913907 
L 567.129187 592.16714 
L 591.400609 599.107088 
L 615.672031 603.297324 
L 639.943454 604.508004 
L 664.214876 598.920497 
" style="fill:none;stroke:#d62728;stroke-linecap:square;stroke-opacity:0.2;stroke-width:1.5;"/>
   </g>
   <g id="line2d_96">
    <path clip-path="url(#p575b2bd1dd)" d="M 203.057851 470.628586 
L 227.329274 503.542425 
L 251.600696 520.744777 
L 275.872118 533.087522 
L 300.143541 545.271348 
L 324.414963 554.273293 
L 348.686385 562.177848 
L 372.957808 567.561847 
L 397.22923 574.39406 
L 421.500652 580.143026 
L 445.772075 583.036962 
L 470.043497 582.40519 
L 494.31492 587.18488 
L 518.586342 590.32377 
L 542.857764 582.909324 
L 567.129187 580.687705 
L 591.400609 586.353672 
L 615.672031 593.551984 
L 639.943454 606.358609 
L 664.214876 613.420376 
" style="fill:none;stroke:#d62728;stroke-linecap:square;stroke-opacity:0.2;stroke-width:1.5;"/>
   </g>
   <g id="line2d_97">
    <path clip-path="url(#p575b2bd1dd)" d="M 203.057851 445.625818 
L 227.329274 499.502208 
L 251.600696 504.193058 
L 275.872118 518.491867 
L 300.143541 532.786738 
L 324.414963 543.49993 
L 348.686385 550.166353 
L 372.957808 549.740028 
L 397.22923 558.61781 
L 421.500652 559.90332 
L 445.772075 557.53577 
L 470.043497 564.142569 
L 494.31492 568.277718 
L 518.586342 572.131574 
L 542.857764 571.83534 
L 567.129187 574.301438 
L 591.400609 580.609986 
L 615.672031 585.179188 
L 639.943454 588.103603 
L 664.214876 586.447243 
" style="fill:none;stroke:#d62728;stroke-linecap:square;stroke-opacity:0.2;stroke-width:1.5;"/>
   </g>
   <g id="line2d_98">
    <path clip-path="url(#p575b2bd1dd)" d="M 203.057851 470.475082 
L 227.329274 514.256877 
L 251.600696 522.753 
L 275.872118 538.287988 
L 300.143541 548.277795 
L 324.414963 555.859781 
L 348.686385 565.456582 
L 372.957808 572.534244 
L 397.22923 582.184399 
L 421.500652 587.087388 
L 445.772075 591.743467 
L 470.043497 595.588645 
L 494.31492 600.059331 
L 518.586342 597.123753 
L 542.857764 597.802432 
L 567.129187 603.577382 
L 591.400609 608.019174 
L 615.672031 610.508756 
L 639.943454 612.616023 
L 664.214876 615.6 
" style="fill:none;stroke:#d62728;stroke-linecap:square;stroke-opacity:0.2;stroke-width:1.5;"/>
   </g>
   <g id="line2d_99">
    <path clip-path="url(#p575b2bd1dd)" d="M 203.057851 460.66202 
L 227.329274 505.945878 
L 251.600696 516.495278 
L 275.872118 529.450368 
L 300.143541 541.374728 
L 324.414963 550.434413 
L 348.686385 557.977967 
L 372.957808 561.780395 
L 397.22923 569.97091 
L 421.500652 573.675856 
L 445.772075 575.169507 
L 470.043497 579.142532 
L 494.31492 583.131308 
L 518.586342 585.260932 
L 542.857764 583.89258 
L 567.129187 585.717901 
L 591.400609 591.69546 
L 615.672031 596.627864 
L 639.943454 601.459497 
L 664.214876 601.246948 
" style="fill:none;stroke:#d62728;stroke-linecap:square;stroke-width:1.5;"/>
   </g>
   <g id="patch_3">
    <path d="M 180 640.8 
L 180 86.4 
" style="fill:none;stroke:#000000;stroke-linecap:square;stroke-linejoin:miter;stroke-width:0.8;"/>
   </g>
   <g id="patch_4">
    <path d="M 687.272727 640.8 
L 687.272727 86.4 
" style="fill:none;stroke:#000000;stroke-linecap:square;stroke-linejoin:miter;stroke-width:0.8;"/>
   </g>
   <g id="patch_5">
    <path d="M 180 640.8 
L 687.272727 640.8 
" style="fill:none;stroke:#000000;stroke-linecap:square;stroke-linejoin:miter;stroke-width:0.8;"/>
   </g>
   <g id="patch_6">
    <path d="M 180 86.4 
L 687.272727 86.4 
" style="fill:none;stroke:#000000;stroke-linecap:square;stroke-linejoin:miter;stroke-width:0.8;"/>
   </g>
   <g id="text_17">
    <!-- Loss -->
    <defs>
     <path d="M 9.8125 72.90625 
L 19.671875 72.90625 
L 19.671875 8.296875 
L 55.171875 8.296875 
L 55.171875 0 
L 9.8125 0 
z
" id="DejaVuSans-76"/>
     <path d="M 30.609375 48.390625 
Q 23.390625 48.390625 19.1875 42.75 
Q 14.984375 37.109375 14.984375 27.296875 
Q 14.984375 17.484375 19.15625 11.84375 
Q 23.34375 6.203125 30.609375 6.203125 
Q 37.796875 6.203125 41.984375 11.859375 
Q 46.1875 17.53125 46.1875 27.296875 
Q 46.1875 37.015625 41.984375 42.703125 
Q 37.796875 48.390625 30.609375 48.390625 
z
M 30.609375 56 
Q 42.328125 56 49.015625 48.375 
Q 55.71875 40.765625 55.71875 27.296875 
Q 55.71875 13.875 49.015625 6.21875 
Q 42.328125 -1.421875 30.609375 -1.421875 
Q 18.84375 -1.421875 12.171875 6.21875 
Q 5.515625 13.875 5.515625 27.296875 
Q 5.515625 40.765625 12.171875 48.375 
Q 18.84375 56 30.609375 56 
z
" id="DejaVuSans-111"/>
     <path d="M 44.28125 53.078125 
L 44.28125 44.578125 
Q 40.484375 46.53125 36.375 47.5 
Q 32.28125 48.484375 27.875 48.484375 
Q 21.1875 48.484375 17.84375 46.4375 
Q 14.5 44.390625 14.5 40.28125 
Q 14.5 37.15625 16.890625 35.375 
Q 19.28125 33.59375 26.515625 31.984375 
L 29.59375 31.296875 
Q 39.15625 29.25 43.1875 25.515625 
Q 47.21875 21.78125 47.21875 15.09375 
Q 47.21875 7.46875 41.1875 3.015625 
Q 35.15625 -1.421875 24.609375 -1.421875 
Q 20.21875 -1.421875 15.453125 -0.5625 
Q 10.6875 0.296875 5.421875 2 
L 5.421875 11.28125 
Q 10.40625 8.6875 15.234375 7.390625 
Q 20.0625 6.109375 24.8125 6.109375 
Q 31.15625 6.109375 34.5625 8.28125 
Q 37.984375 10.453125 37.984375 14.40625 
Q 37.984375 18.0625 35.515625 20.015625 
Q 33.0625 21.96875 24.703125 23.78125 
L 21.578125 24.515625 
Q 13.234375 26.265625 9.515625 29.90625 
Q 5.8125 33.546875 5.8125 39.890625 
Q 5.8125 47.609375 11.28125 51.796875 
Q 16.75 56 26.8125 56 
Q 31.78125 56 36.171875 55.265625 
Q 40.578125 54.546875 44.28125 53.078125 
z
" id="DejaVuSans-115"/>
    </defs>
    <g transform="translate(420.371676 80.4)scale(0.12 -0.12)">
     <use xlink:href="#DejaVuSans-76"/>
     <use x="55.697266" xlink:href="#DejaVuSans-111"/>
     <use x="116.878906" xlink:href="#DejaVuSans-115"/>
     <use x="168.978516" xlink:href="#DejaVuSans-115"/>
    </g>
   </g>
   <g id="legend_1">
    <g id="patch_7">
     <path d="M 187 153.1125 
L 416.504688 153.1125 
Q 418.504688 153.1125 418.504688 151.1125 
L 418.504688 93.4 
Q 418.504688 91.4 416.504688 91.4 
L 187 91.4 
Q 185 91.4 185 93.4 
L 185 151.1125 
Q 185 153.1125 187 153.1125 
z
" style="fill:#ffffff;opacity:0.8;stroke:#cccccc;stroke-linejoin:miter;"/>
    </g>
    <g id="line2d_100">
     <path d="M 189 99.498437 
L 209 99.498437 
" style="fill:none;stroke:#1f77b4;stroke-linecap:square;stroke-width:1.5;"/>
    </g>
    <g id="line2d_101"/>
    <g id="text_18">
     <!-- TRandom(eps=0.2),LR=0.001,FD=0.99 -->
     <defs>
      <path d="M -0.296875 72.90625 
L 61.375 72.90625 
L 61.375 64.59375 
L 35.5 64.59375 
L 35.5 0 
L 25.59375 0 
L 25.59375 64.59375 
L -0.296875 64.59375 
z
" id="DejaVuSans-84"/>
      <path d="M 44.390625 34.1875 
Q 47.5625 33.109375 50.5625 29.59375 
Q 53.5625 26.078125 56.59375 19.921875 
L 66.609375 0 
L 56 0 
L 46.6875 18.703125 
Q 43.0625 26.03125 39.671875 28.421875 
Q 36.28125 30.8125 30.421875 30.8125 
L 19.671875 30.8125 
L 19.671875 0 
L 9.8125 0 
L 9.8125 72.90625 
L 32.078125 72.90625 
Q 44.578125 72.90625 50.734375 67.671875 
Q 56.890625 62.453125 56.890625 51.90625 
Q 56.890625 45.015625 53.6875 40.46875 
Q 50.484375 35.9375 44.390625 34.1875 
z
M 19.671875 64.796875 
L 19.671875 38.921875 
L 32.078125 38.921875 
Q 39.203125 38.921875 42.84375 42.21875 
Q 46.484375 45.515625 46.484375 51.90625 
Q 46.484375 58.296875 42.84375 61.546875 
Q 39.203125 64.796875 32.078125 64.796875 
z
" id="DejaVuSans-82"/>
      <path d="M 34.28125 27.484375 
Q 23.390625 27.484375 19.1875 25 
Q 14.984375 22.515625 14.984375 16.5 
Q 14.984375 11.71875 18.140625 8.90625 
Q 21.296875 6.109375 26.703125 6.109375 
Q 34.1875 6.109375 38.703125 11.40625 
Q 43.21875 16.703125 43.21875 25.484375 
L 43.21875 27.484375 
z
M 52.203125 31.203125 
L 52.203125 0 
L 43.21875 0 
L 43.21875 8.296875 
Q 40.140625 3.328125 35.546875 0.953125 
Q 30.953125 -1.421875 24.3125 -1.421875 
Q 15.921875 -1.421875 10.953125 3.296875 
Q 6 8.015625 6 15.921875 
Q 6 25.140625 12.171875 29.828125 
Q 18.359375 34.515625 30.609375 34.515625 
L 43.21875 34.515625 
L 43.21875 35.40625 
Q 43.21875 41.609375 39.140625 45 
Q 35.0625 48.390625 27.6875 48.390625 
Q 23 48.390625 18.546875 47.265625 
Q 14.109375 46.140625 10.015625 43.890625 
L 10.015625 52.203125 
Q 14.9375 54.109375 19.578125 55.046875 
Q 24.21875 56 28.609375 56 
Q 40.484375 56 46.34375 49.84375 
Q 52.203125 43.703125 52.203125 31.203125 
z
" id="DejaVuSans-97"/>
      <path d="M 54.890625 33.015625 
L 54.890625 0 
L 45.90625 0 
L 45.90625 32.71875 
Q 45.90625 40.484375 42.875 44.328125 
Q 39.84375 48.1875 33.796875 48.1875 
Q 26.515625 48.1875 22.3125 43.546875 
Q 18.109375 38.921875 18.109375 30.90625 
L 18.109375 0 
L 9.078125 0 
L 9.078125 54.6875 
L 18.109375 54.6875 
L 18.109375 46.1875 
Q 21.34375 51.125 25.703125 53.5625 
Q 30.078125 56 35.796875 56 
Q 45.21875 56 50.046875 50.171875 
Q 54.890625 44.34375 54.890625 33.015625 
z
" id="DejaVuSans-110"/>
      <path d="M 45.40625 46.390625 
L 45.40625 75.984375 
L 54.390625 75.984375 
L 54.390625 0 
L 45.40625 0 
L 45.40625 8.203125 
Q 42.578125 3.328125 38.25 0.953125 
Q 33.9375 -1.421875 27.875 -1.421875 
Q 17.96875 -1.421875 11.734375 6.484375 
Q 5.515625 14.40625 5.515625 27.296875 
Q 5.515625 40.1875 11.734375 48.09375 
Q 17.96875 56 27.875 56 
Q 33.9375 56 38.25 53.625 
Q 42.578125 51.265625 45.40625 46.390625 
z
M 14.796875 27.296875 
Q 14.796875 17.390625 18.875 11.75 
Q 22.953125 6.109375 30.078125 6.109375 
Q 37.203125 6.109375 41.296875 11.75 
Q 45.40625 17.390625 45.40625 27.296875 
Q 45.40625 37.203125 41.296875 42.84375 
Q 37.203125 48.484375 30.078125 48.484375 
Q 22.953125 48.484375 18.875 42.84375 
Q 14.796875 37.203125 14.796875 27.296875 
z
" id="DejaVuSans-100"/>
      <path d="M 52 44.1875 
Q 55.375 50.25 60.0625 53.125 
Q 64.75 56 71.09375 56 
Q 79.640625 56 84.28125 50.015625 
Q 88.921875 44.046875 88.921875 33.015625 
L 88.921875 0 
L 79.890625 0 
L 79.890625 32.71875 
Q 79.890625 40.578125 77.09375 44.375 
Q 74.3125 48.1875 68.609375 48.1875 
Q 61.625 48.1875 57.5625 43.546875 
Q 53.515625 38.921875 53.515625 30.90625 
L 53.515625 0 
L 44.484375 0 
L 44.484375 32.71875 
Q 44.484375 40.625 41.703125 44.40625 
Q 38.921875 48.1875 33.109375 48.1875 
Q 26.21875 48.1875 22.15625 43.53125 
Q 18.109375 38.875 18.109375 30.90625 
L 18.109375 0 
L 9.078125 0 
L 9.078125 54.6875 
L 18.109375 54.6875 
L 18.109375 46.1875 
Q 21.1875 51.21875 25.484375 53.609375 
Q 29.78125 56 35.6875 56 
Q 41.65625 56 45.828125 52.96875 
Q 50 49.953125 52 44.1875 
z
" id="DejaVuSans-109"/>
      <path d="M 31 75.875 
Q 24.46875 64.65625 21.28125 53.65625 
Q 18.109375 42.671875 18.109375 31.390625 
Q 18.109375 20.125 21.3125 9.0625 
Q 24.515625 -2 31 -13.1875 
L 23.1875 -13.1875 
Q 15.875 -1.703125 12.234375 9.375 
Q 8.59375 20.453125 8.59375 31.390625 
Q 8.59375 42.28125 12.203125 53.3125 
Q 15.828125 64.359375 23.1875 75.875 
z
" id="DejaVuSans-40"/>
      <path d="M 56.203125 29.59375 
L 56.203125 25.203125 
L 14.890625 25.203125 
Q 15.484375 15.921875 20.484375 11.0625 
Q 25.484375 6.203125 34.421875 6.203125 
Q 39.59375 6.203125 44.453125 7.46875 
Q 49.3125 8.734375 54.109375 11.28125 
L 54.109375 2.78125 
Q 49.265625 0.734375 44.1875 -0.34375 
Q 39.109375 -1.421875 33.890625 -1.421875 
Q 20.796875 -1.421875 13.15625 6.1875 
Q 5.515625 13.8125 5.515625 26.8125 
Q 5.515625 40.234375 12.765625 48.109375 
Q 20.015625 56 32.328125 56 
Q 43.359375 56 49.78125 48.890625 
Q 56.203125 41.796875 56.203125 29.59375 
z
M 47.21875 32.234375 
Q 47.125 39.59375 43.09375 43.984375 
Q 39.0625 48.390625 32.421875 48.390625 
Q 24.90625 48.390625 20.390625 44.140625 
Q 15.875 39.890625 15.1875 32.171875 
z
" id="DejaVuSans-101"/>
      <path d="M 18.109375 8.203125 
L 18.109375 -20.796875 
L 9.078125 -20.796875 
L 9.078125 54.6875 
L 18.109375 54.6875 
L 18.109375 46.390625 
Q 20.953125 51.265625 25.265625 53.625 
Q 29.59375 56 35.59375 56 
Q 45.5625 56 51.78125 48.09375 
Q 58.015625 40.1875 58.015625 27.296875 
Q 58.015625 14.40625 51.78125 6.484375 
Q 45.5625 -1.421875 35.59375 -1.421875 
Q 29.59375 -1.421875 25.265625 0.953125 
Q 20.953125 3.328125 18.109375 8.203125 
z
M 48.6875 27.296875 
Q 48.6875 37.203125 44.609375 42.84375 
Q 40.53125 48.484375 33.40625 48.484375 
Q 26.265625 48.484375 22.1875 42.84375 
Q 18.109375 37.203125 18.109375 27.296875 
Q 18.109375 17.390625 22.1875 11.75 
Q 26.265625 6.109375 33.40625 6.109375 
Q 40.53125 6.109375 44.609375 11.75 
Q 48.6875 17.390625 48.6875 27.296875 
z
" id="DejaVuSans-112"/>
      <path d="M 10.59375 45.40625 
L 73.1875 45.40625 
L 73.1875 37.203125 
L 10.59375 37.203125 
z
M 10.59375 25.484375 
L 73.1875 25.484375 
L 73.1875 17.1875 
L 10.59375 17.1875 
z
" id="DejaVuSans-61"/>
      <path d="M 8.015625 75.875 
L 15.828125 75.875 
Q 23.140625 64.359375 26.78125 53.3125 
Q 30.421875 42.28125 30.421875 31.390625 
Q 30.421875 20.453125 26.78125 9.375 
Q 23.140625 -1.703125 15.828125 -13.1875 
L 8.015625 -13.1875 
Q 14.5 -2 17.703125 9.0625 
Q 20.90625 20.125 20.90625 31.390625 
Q 20.90625 42.671875 17.703125 53.65625 
Q 14.5 64.65625 8.015625 75.875 
z
" id="DejaVuSans-41"/>
      <path d="M 11.71875 12.40625 
L 22.015625 12.40625 
L 22.015625 4 
L 14.015625 -11.625 
L 7.71875 -11.625 
L 11.71875 4 
z
" id="DejaVuSans-44"/>
      <path d="M 9.8125 72.90625 
L 51.703125 72.90625 
L 51.703125 64.59375 
L 19.671875 64.59375 
L 19.671875 43.109375 
L 48.578125 43.109375 
L 48.578125 34.8125 
L 19.671875 34.8125 
L 19.671875 0 
L 9.8125 0 
z
" id="DejaVuSans-70"/>
      <path d="M 19.671875 64.796875 
L 19.671875 8.109375 
L 31.59375 8.109375 
Q 46.6875 8.109375 53.6875 14.9375 
Q 60.6875 21.78125 60.6875 36.53125 
Q 60.6875 51.171875 53.6875 57.984375 
Q 46.6875 64.796875 31.59375 64.796875 
z
M 9.8125 72.90625 
L 30.078125 72.90625 
Q 51.265625 72.90625 61.171875 64.09375 
Q 71.09375 55.28125 71.09375 36.53125 
Q 71.09375 17.671875 61.125 8.828125 
Q 51.171875 0 30.078125 0 
L 9.8125 0 
z
" id="DejaVuSans-68"/>
      <path d="M 10.984375 1.515625 
L 10.984375 10.5 
Q 14.703125 8.734375 18.5 7.8125 
Q 22.3125 6.890625 25.984375 6.890625 
Q 35.75 6.890625 40.890625 13.453125 
Q 46.046875 20.015625 46.78125 33.40625 
Q 43.953125 29.203125 39.59375 26.953125 
Q 35.25 24.703125 29.984375 24.703125 
Q 19.046875 24.703125 12.671875 31.3125 
Q 6.296875 37.9375 6.296875 49.421875 
Q 6.296875 60.640625 12.9375 67.421875 
Q 19.578125 74.21875 30.609375 74.21875 
Q 43.265625 74.21875 49.921875 64.515625 
Q 56.59375 54.828125 56.59375 36.375 
Q 56.59375 19.140625 48.40625 8.859375 
Q 40.234375 -1.421875 26.421875 -1.421875 
Q 22.703125 -1.421875 18.890625 -0.6875 
Q 15.09375 0.046875 10.984375 1.515625 
z
M 30.609375 32.421875 
Q 37.25 32.421875 41.125 36.953125 
Q 45.015625 41.5 45.015625 49.421875 
Q 45.015625 57.28125 41.125 61.84375 
Q 37.25 66.40625 30.609375 66.40625 
Q 23.96875 66.40625 20.09375 61.84375 
Q 16.21875 57.28125 16.21875 49.421875 
Q 16.21875 41.5 20.09375 36.953125 
Q 23.96875 32.421875 30.609375 32.421875 
z
" id="DejaVuSans-57"/>
     </defs>
     <g transform="translate(217 102.998437)scale(0.1 -0.1)">
      <use xlink:href="#DejaVuSans-84"/>
      <use x="61.083984" xlink:href="#DejaVuSans-82"/>
      <use x="130.535156" xlink:href="#DejaVuSans-97"/>
      <use x="191.814453" xlink:href="#DejaVuSans-110"/>
      <use x="255.193359" xlink:href="#DejaVuSans-100"/>
      <use x="318.669922" xlink:href="#DejaVuSans-111"/>
      <use x="379.851562" xlink:href="#DejaVuSans-109"/>
      <use x="477.263672" xlink:href="#DejaVuSans-40"/>
      <use x="516.277344" xlink:href="#DejaVuSans-101"/>
      <use x="577.800781" xlink:href="#DejaVuSans-112"/>
      <use x="641.277344" xlink:href="#DejaVuSans-115"/>
      <use x="693.376953" xlink:href="#DejaVuSans-61"/>
      <use x="777.166016" xlink:href="#DejaVuSans-48"/>
      <use x="840.789062" xlink:href="#DejaVuSans-46"/>
      <use x="872.576172" xlink:href="#DejaVuSans-50"/>
      <use x="936.199219" xlink:href="#DejaVuSans-41"/>
      <use x="975.212891" xlink:href="#DejaVuSans-44"/>
      <use x="1007" xlink:href="#DejaVuSans-76"/>
      <use x="1062.712891" xlink:href="#DejaVuSans-82"/>
      <use x="1132.195312" xlink:href="#DejaVuSans-61"/>
      <use x="1215.984375" xlink:href="#DejaVuSans-48"/>
      <use x="1279.607422" xlink:href="#DejaVuSans-46"/>
      <use x="1311.394531" xlink:href="#DejaVuSans-48"/>
      <use x="1375.017578" xlink:href="#DejaVuSans-48"/>
      <use x="1438.640625" xlink:href="#DejaVuSans-49"/>
      <use x="1502.263672" xlink:href="#DejaVuSans-44"/>
      <use x="1534.050781" xlink:href="#DejaVuSans-70"/>
      <use x="1591.570312" xlink:href="#DejaVuSans-68"/>
      <use x="1668.572266" xlink:href="#DejaVuSans-61"/>
      <use x="1752.361328" xlink:href="#DejaVuSans-48"/>
      <use x="1815.984375" xlink:href="#DejaVuSans-46"/>
      <use x="1847.771484" xlink:href="#DejaVuSans-57"/>
      <use x="1911.394531" xlink:href="#DejaVuSans-57"/>
     </g>
    </g>
    <g id="line2d_102">
     <path d="M 189 114.176562 
L 209 114.176562 
" style="fill:none;stroke:#ff7f0e;stroke-linecap:square;stroke-width:1.5;"/>
    </g>
    <g id="line2d_103"/>
    <g id="text_19">
     <!-- TRandom(eps=0.2),LR=0.001,FD=0.95 -->
     <g transform="translate(217 117.676562)scale(0.1 -0.1)">
      <use xlink:href="#DejaVuSans-84"/>
      <use x="61.083984" xlink:href="#DejaVuSans-82"/>
      <use x="130.535156" xlink:href="#DejaVuSans-97"/>
      <use x="191.814453" xlink:href="#DejaVuSans-110"/>
      <use x="255.193359" xlink:href="#DejaVuSans-100"/>
      <use x="318.669922" xlink:href="#DejaVuSans-111"/>
      <use x="379.851562" xlink:href="#DejaVuSans-109"/>
      <use x="477.263672" xlink:href="#DejaVuSans-40"/>
      <use x="516.277344" xlink:href="#DejaVuSans-101"/>
      <use x="577.800781" xlink:href="#DejaVuSans-112"/>
      <use x="641.277344" xlink:href="#DejaVuSans-115"/>
      <use x="693.376953" xlink:href="#DejaVuSans-61"/>
      <use x="777.166016" xlink:href="#DejaVuSans-48"/>
      <use x="840.789062" xlink:href="#DejaVuSans-46"/>
      <use x="872.576172" xlink:href="#DejaVuSans-50"/>
      <use x="936.199219" xlink:href="#DejaVuSans-41"/>
      <use x="975.212891" xlink:href="#DejaVuSans-44"/>
      <use x="1007" xlink:href="#DejaVuSans-76"/>
      <use x="1062.712891" xlink:href="#DejaVuSans-82"/>
      <use x="1132.195312" xlink:href="#DejaVuSans-61"/>
      <use x="1215.984375" xlink:href="#DejaVuSans-48"/>
      <use x="1279.607422" xlink:href="#DejaVuSans-46"/>
      <use x="1311.394531" xlink:href="#DejaVuSans-48"/>
      <use x="1375.017578" xlink:href="#DejaVuSans-48"/>
      <use x="1438.640625" xlink:href="#DejaVuSans-49"/>
      <use x="1502.263672" xlink:href="#DejaVuSans-44"/>
      <use x="1534.050781" xlink:href="#DejaVuSans-70"/>
      <use x="1591.570312" xlink:href="#DejaVuSans-68"/>
      <use x="1668.572266" xlink:href="#DejaVuSans-61"/>
      <use x="1752.361328" xlink:href="#DejaVuSans-48"/>
      <use x="1815.984375" xlink:href="#DejaVuSans-46"/>
      <use x="1847.771484" xlink:href="#DejaVuSans-57"/>
      <use x="1911.394531" xlink:href="#DejaVuSans-53"/>
     </g>
    </g>
    <g id="line2d_104">
     <path d="M 189 128.854687 
L 209 128.854687 
" style="fill:none;stroke:#2ca02c;stroke-linecap:square;stroke-width:1.5;"/>
    </g>
    <g id="line2d_105"/>
    <g id="text_20">
     <!-- TRandom(eps=0.2),LR=0.001,FD=0.8 -->
     <defs>
      <path d="M 31.78125 34.625 
Q 24.75 34.625 20.71875 30.859375 
Q 16.703125 27.09375 16.703125 20.515625 
Q 16.703125 13.921875 20.71875 10.15625 
Q 24.75 6.390625 31.78125 6.390625 
Q 38.8125 6.390625 42.859375 10.171875 
Q 46.921875 13.96875 46.921875 20.515625 
Q 46.921875 27.09375 42.890625 30.859375 
Q 38.875 34.625 31.78125 34.625 
z
M 21.921875 38.8125 
Q 15.578125 40.375 12.03125 44.71875 
Q 8.5 49.078125 8.5 55.328125 
Q 8.5 64.0625 14.71875 69.140625 
Q 20.953125 74.21875 31.78125 74.21875 
Q 42.671875 74.21875 48.875 69.140625 
Q 55.078125 64.0625 55.078125 55.328125 
Q 55.078125 49.078125 51.53125 44.71875 
Q 48 40.375 41.703125 38.8125 
Q 48.828125 37.15625 52.796875 32.3125 
Q 56.78125 27.484375 56.78125 20.515625 
Q 56.78125 9.90625 50.3125 4.234375 
Q 43.84375 -1.421875 31.78125 -1.421875 
Q 19.734375 -1.421875 13.25 4.234375 
Q 6.78125 9.90625 6.78125 20.515625 
Q 6.78125 27.484375 10.78125 32.3125 
Q 14.796875 37.15625 21.921875 38.8125 
z
M 18.3125 54.390625 
Q 18.3125 48.734375 21.84375 45.5625 
Q 25.390625 42.390625 31.78125 42.390625 
Q 38.140625 42.390625 41.71875 45.5625 
Q 45.3125 48.734375 45.3125 54.390625 
Q 45.3125 60.0625 41.71875 63.234375 
Q 38.140625 66.40625 31.78125 66.40625 
Q 25.390625 66.40625 21.84375 63.234375 
Q 18.3125 60.0625 18.3125 54.390625 
z
" id="DejaVuSans-56"/>
     </defs>
     <g transform="translate(217 132.354687)scale(0.1 -0.1)">
      <use xlink:href="#DejaVuSans-84"/>
      <use x="61.083984" xlink:href="#DejaVuSans-82"/>
      <use x="130.535156" xlink:href="#DejaVuSans-97"/>
      <use x="191.814453" xlink:href="#DejaVuSans-110"/>
      <use x="255.193359" xlink:href="#DejaVuSans-100"/>
      <use x="318.669922" xlink:href="#DejaVuSans-111"/>
      <use x="379.851562" xlink:href="#DejaVuSans-109"/>
      <use x="477.263672" xlink:href="#DejaVuSans-40"/>
      <use x="516.277344" xlink:href="#DejaVuSans-101"/>
      <use x="577.800781" xlink:href="#DejaVuSans-112"/>
      <use x="641.277344" xlink:href="#DejaVuSans-115"/>
      <use x="693.376953" xlink:href="#DejaVuSans-61"/>
      <use x="777.166016" xlink:href="#DejaVuSans-48"/>
      <use x="840.789062" xlink:href="#DejaVuSans-46"/>
      <use x="872.576172" xlink:href="#DejaVuSans-50"/>
      <use x="936.199219" xlink:href="#DejaVuSans-41"/>
      <use x="975.212891" xlink:href="#DejaVuSans-44"/>
      <use x="1007" xlink:href="#DejaVuSans-76"/>
      <use x="1062.712891" xlink:href="#DejaVuSans-82"/>
      <use x="1132.195312" xlink:href="#DejaVuSans-61"/>
      <use x="1215.984375" xlink:href="#DejaVuSans-48"/>
      <use x="1279.607422" xlink:href="#DejaVuSans-46"/>
      <use x="1311.394531" xlink:href="#DejaVuSans-48"/>
      <use x="1375.017578" xlink:href="#DejaVuSans-48"/>
      <use x="1438.640625" xlink:href="#DejaVuSans-49"/>
      <use x="1502.263672" xlink:href="#DejaVuSans-44"/>
      <use x="1534.050781" xlink:href="#DejaVuSans-70"/>
      <use x="1591.570312" xlink:href="#DejaVuSans-68"/>
      <use x="1668.572266" xlink:href="#DejaVuSans-61"/>
      <use x="1752.361328" xlink:href="#DejaVuSans-48"/>
      <use x="1815.984375" xlink:href="#DejaVuSans-46"/>
      <use x="1847.771484" xlink:href="#DejaVuSans-56"/>
     </g>
    </g>
    <g id="line2d_106">
     <path d="M 189 143.532812 
L 209 143.532812 
" style="fill:none;stroke:#d62728;stroke-linecap:square;stroke-width:1.5;"/>
    </g>
    <g id="line2d_107"/>
    <g id="text_21">
     <!-- TRandom(eps=0.2),LR=0.001,FD=0.5 -->
     <g transform="translate(217 147.032812)scale(0.1 -0.1)">
      <use xlink:href="#DejaVuSans-84"/>
      <use x="61.083984" xlink:href="#DejaVuSans-82"/>
      <use x="130.535156" xlink:href="#DejaVuSans-97"/>
      <use x="191.814453" xlink:href="#DejaVuSans-110"/>
      <use x="255.193359" xlink:href="#DejaVuSans-100"/>
      <use x="318.669922" xlink:href="#DejaVuSans-111"/>
      <use x="379.851562" xlink:href="#DejaVuSans-109"/>
      <use x="477.263672" xlink:href="#DejaVuSans-40"/>
      <use x="516.277344" xlink:href="#DejaVuSans-101"/>
      <use x="577.800781" xlink:href="#DejaVuSans-112"/>
      <use x="641.277344" xlink:href="#DejaVuSans-115"/>
      <use x="693.376953" xlink:href="#DejaVuSans-61"/>
      <use x="777.166016" xlink:href="#DejaVuSans-48"/>
      <use x="840.789062" xlink:href="#DejaVuSans-46"/>
      <use x="872.576172" xlink:href="#DejaVuSans-50"/>
      <use x="936.199219" xlink:href="#DejaVuSans-41"/>
      <use x="975.212891" xlink:href="#DejaVuSans-44"/>
      <use x="1007" xlink:href="#DejaVuSans-76"/>
      <use x="1062.712891" xlink:href="#DejaVuSans-82"/>
      <use x="1132.195312" xlink:href="#DejaVuSans-61"/>
      <use x="1215.984375" xlink:href="#DejaVuSans-48"/>
      <use x="1279.607422" xlink:href="#DejaVuSans-46"/>
      <use x="1311.394531" xlink:href="#DejaVuSans-48"/>
      <use x="1375.017578" xlink:href="#DejaVuSans-48"/>
      <use x="1438.640625" xlink:href="#DejaVuSans-49"/>
      <use x="1502.263672" xlink:href="#DejaVuSans-44"/>
      <use x="1534.050781" xlink:href="#DejaVuSans-70"/>
      <use x="1591.570312" xlink:href="#DejaVuSans-68"/>
      <use x="1668.572266" xlink:href="#DejaVuSans-61"/>
      <use x="1752.361328" xlink:href="#DejaVuSans-48"/>
      <use x="1815.984375" xlink:href="#DejaVuSans-46"/>
      <use x="1847.771484" xlink:href="#DejaVuSans-53"/>
     </g>
    </g>
   </g>
  </g>
  <g id="axes_2">
   <g id="patch_8">
    <path d="M 788.727273 640.8 
L 1296 640.8 
L 1296 86.4 
L 788.727273 86.4 
z
" style="fill:#ffffff;"/>
   </g>
   <g id="matplotlib.axis_3">
    <g id="xtick_9">
     <g id="line2d_108">
      <g>
       <use style="stroke:#000000;stroke-width:0.8;" x="811.785124" xlink:href="#m97bebab469" y="640.8"/>
      </g>
     </g>
     <g id="text_22">
      <!-- 0.0 -->
      <g transform="translate(803.833561 655.398438)scale(0.1 -0.1)">
       <use xlink:href="#DejaVuSans-48"/>
       <use x="63.623047" xlink:href="#DejaVuSans-46"/>
       <use x="95.410156" xlink:href="#DejaVuSans-48"/>
      </g>
     </g>
    </g>
    <g id="xtick_10">
     <g id="line2d_109">
      <g>
       <use style="stroke:#000000;stroke-width:0.8;" x="872.46368" xlink:href="#m97bebab469" y="640.8"/>
      </g>
     </g>
     <g id="text_23">
      <!-- 2.5 -->
      <g transform="translate(864.512117 655.398438)scale(0.1 -0.1)">
       <use xlink:href="#DejaVuSans-50"/>
       <use x="63.623047" xlink:href="#DejaVuSans-46"/>
       <use x="95.410156" xlink:href="#DejaVuSans-53"/>
      </g>
     </g>
    </g>
    <g id="xtick_11">
     <g id="line2d_110">
      <g>
       <use style="stroke:#000000;stroke-width:0.8;" x="933.142236" xlink:href="#m97bebab469" y="640.8"/>
      </g>
     </g>
     <g id="text_24">
      <!-- 5.0 -->
      <g transform="translate(925.190673 655.398438)scale(0.1 -0.1)">
       <use xlink:href="#DejaVuSans-53"/>
       <use x="63.623047" xlink:href="#DejaVuSans-46"/>
       <use x="95.410156" xlink:href="#DejaVuSans-48"/>
      </g>
     </g>
    </g>
    <g id="xtick_12">
     <g id="line2d_111">
      <g>
       <use style="stroke:#000000;stroke-width:0.8;" x="993.820792" xlink:href="#m97bebab469" y="640.8"/>
      </g>
     </g>
     <g id="text_25">
      <!-- 7.5 -->
      <g transform="translate(985.869229 655.398438)scale(0.1 -0.1)">
       <use xlink:href="#DejaVuSans-55"/>
       <use x="63.623047" xlink:href="#DejaVuSans-46"/>
       <use x="95.410156" xlink:href="#DejaVuSans-53"/>
      </g>
     </g>
    </g>
    <g id="xtick_13">
     <g id="line2d_112">
      <g>
       <use style="stroke:#000000;stroke-width:0.8;" x="1054.499348" xlink:href="#m97bebab469" y="640.8"/>
      </g>
     </g>
     <g id="text_26">
      <!-- 10.0 -->
      <g transform="translate(1043.366535 655.398438)scale(0.1 -0.1)">
       <use xlink:href="#DejaVuSans-49"/>
       <use x="63.623047" xlink:href="#DejaVuSans-48"/>
       <use x="127.246094" xlink:href="#DejaVuSans-46"/>
       <use x="159.033203" xlink:href="#DejaVuSans-48"/>
      </g>
     </g>
    </g>
    <g id="xtick_14">
     <g id="line2d_113">
      <g>
       <use style="stroke:#000000;stroke-width:0.8;" x="1115.177903" xlink:href="#m97bebab469" y="640.8"/>
      </g>
     </g>
     <g id="text_27">
      <!-- 12.5 -->
      <g transform="translate(1104.045091 655.398438)scale(0.1 -0.1)">
       <use xlink:href="#DejaVuSans-49"/>
       <use x="63.623047" xlink:href="#DejaVuSans-50"/>
       <use x="127.246094" xlink:href="#DejaVuSans-46"/>
       <use x="159.033203" xlink:href="#DejaVuSans-53"/>
      </g>
     </g>
    </g>
    <g id="xtick_15">
     <g id="line2d_114">
      <g>
       <use style="stroke:#000000;stroke-width:0.8;" x="1175.856459" xlink:href="#m97bebab469" y="640.8"/>
      </g>
     </g>
     <g id="text_28">
      <!-- 15.0 -->
      <g transform="translate(1164.723647 655.398438)scale(0.1 -0.1)">
       <use xlink:href="#DejaVuSans-49"/>
       <use x="63.623047" xlink:href="#DejaVuSans-53"/>
       <use x="127.246094" xlink:href="#DejaVuSans-46"/>
       <use x="159.033203" xlink:href="#DejaVuSans-48"/>
      </g>
     </g>
    </g>
    <g id="xtick_16">
     <g id="line2d_115">
      <g>
       <use style="stroke:#000000;stroke-width:0.8;" x="1236.535015" xlink:href="#m97bebab469" y="640.8"/>
      </g>
     </g>
     <g id="text_29">
      <!-- 17.5 -->
      <g transform="translate(1225.402203 655.398438)scale(0.1 -0.1)">
       <use xlink:href="#DejaVuSans-49"/>
       <use x="63.623047" xlink:href="#DejaVuSans-55"/>
       <use x="127.246094" xlink:href="#DejaVuSans-46"/>
       <use x="159.033203" xlink:href="#DejaVuSans-53"/>
      </g>
     </g>
    </g>
   </g>
   <g id="matplotlib.axis_4">
    <g id="ytick_72">
     <g id="line2d_116">
      <g>
       <use style="stroke:#000000;stroke-width:0.8;" x="788.727273" xlink:href="#m371a542f66" y="572.416499"/>
      </g>
     </g>
     <g id="text_30">
      <!-- 0 -->
      <g transform="translate(775.364773 576.215718)scale(0.1 -0.1)">
       <use xlink:href="#DejaVuSans-48"/>
      </g>
     </g>
    </g>
    <g id="ytick_73">
     <g id="line2d_117">
      <g>
       <use style="stroke:#000000;stroke-width:0.8;" x="788.727273" xlink:href="#m371a542f66" y="476.192203"/>
      </g>
     </g>
     <g id="text_31">
      <!-- 100 -->
      <g transform="translate(762.639773 479.991422)scale(0.1 -0.1)">
       <use xlink:href="#DejaVuSans-49"/>
       <use x="63.623047" xlink:href="#DejaVuSans-48"/>
       <use x="127.246094" xlink:href="#DejaVuSans-48"/>
      </g>
     </g>
    </g>
    <g id="ytick_74">
     <g id="line2d_118">
      <g>
       <use style="stroke:#000000;stroke-width:0.8;" x="788.727273" xlink:href="#m371a542f66" y="379.967907"/>
      </g>
     </g>
     <g id="text_32">
      <!-- 200 -->
      <g transform="translate(762.639773 383.767125)scale(0.1 -0.1)">
       <use xlink:href="#DejaVuSans-50"/>
       <use x="63.623047" xlink:href="#DejaVuSans-48"/>
       <use x="127.246094" xlink:href="#DejaVuSans-48"/>
      </g>
     </g>
    </g>
    <g id="ytick_75">
     <g id="line2d_119">
      <g>
       <use style="stroke:#000000;stroke-width:0.8;" x="788.727273" xlink:href="#m371a542f66" y="283.743611"/>
      </g>
     </g>
     <g id="text_33">
      <!-- 300 -->
      <g transform="translate(762.639773 287.542829)scale(0.1 -0.1)">
       <use xlink:href="#DejaVuSans-51"/>
       <use x="63.623047" xlink:href="#DejaVuSans-48"/>
       <use x="127.246094" xlink:href="#DejaVuSans-48"/>
      </g>
     </g>
    </g>
    <g id="ytick_76">
     <g id="line2d_120">
      <g>
       <use style="stroke:#000000;stroke-width:0.8;" x="788.727273" xlink:href="#m371a542f66" y="187.519315"/>
      </g>
     </g>
     <g id="text_34">
      <!-- 400 -->
      <g transform="translate(762.639773 191.318533)scale(0.1 -0.1)">
       <use xlink:href="#DejaVuSans-52"/>
       <use x="63.623047" xlink:href="#DejaVuSans-48"/>
       <use x="127.246094" xlink:href="#DejaVuSans-48"/>
      </g>
     </g>
    </g>
    <g id="ytick_77">
     <g id="line2d_121">
      <g>
       <use style="stroke:#000000;stroke-width:0.8;" x="788.727273" xlink:href="#m371a542f66" y="91.295018"/>
      </g>
     </g>
     <g id="text_35">
      <!-- 500 -->
      <g transform="translate(762.639773 95.094237)scale(0.1 -0.1)">
       <use xlink:href="#DejaVuSans-53"/>
       <use x="63.623047" xlink:href="#DejaVuSans-48"/>
       <use x="127.246094" xlink:href="#DejaVuSans-48"/>
      </g>
     </g>
    </g>
   </g>
   <g id="line2d_122">
    <path clip-path="url(#p6254f69a5c)" d="M 811.785124 587.806478 
L 836.056546 415.298004 
L 860.327969 315.919379 
L 884.599391 387.058868 
L 908.870813 504.536339 
L 933.142236 517.168434 
L 957.413658 489.010549 
L 981.68508 503.593553 
L 1005.956503 537.113748 
L 1030.227925 521.779637 
L 1054.499348 539.451306 
L 1078.77077 500.33765 
L 1103.042192 306.617069 
L 1127.313615 259.72312 
L 1151.585037 304.747912 
L 1175.856459 283.870511 
L 1200.127882 269.065999 
L 1224.399304 473.565068 
L 1248.670726 543.461973 
L 1272.942149 434.958745 
" style="fill:none;stroke:#1f77b4;stroke-linecap:square;stroke-opacity:0.2;stroke-width:1.5;"/>
   </g>
   <g id="line2d_123">
    <path clip-path="url(#p6254f69a5c)" d="M 811.785124 615.6 
L 836.056546 579.144444 
L 860.327969 560.07835 
L 884.599391 587.009106 
L 908.870813 606.07951 
L 933.142236 582.77591 
L 957.413658 555.621472 
L 981.68508 562.922221 
L 1005.956503 567.161613 
L 1030.227925 565.883581 
L 1054.499348 576.248805 
L 1078.77077 569.899368 
L 1103.042192 568.333952 
L 1127.313615 571.155191 
L 1151.585037 565.286452 
L 1175.856459 579.350807 
L 1200.127882 577.102603 
L 1224.399304 582.156303 
L 1248.670726 574.967116 
L 1272.942149 579.743421 
" style="fill:none;stroke:#1f77b4;stroke-linecap:square;stroke-opacity:0.2;stroke-width:1.5;"/>
   </g>
   <g id="line2d_124">
    <path clip-path="url(#p6254f69a5c)" d="M 811.785124 535.588266 
L 836.056546 495.415335 
L 860.327969 483.147006 
L 884.599391 537.952112 
L 908.870813 495.701987 
L 933.142236 448.501314 
L 957.413658 469.020875 
L 981.68508 455.853504 
L 1005.956503 447.522944 
L 1030.227925 484.891052 
L 1054.499348 476.926375 
L 1078.77077 469.067679 
L 1103.042192 461.188141 
L 1127.313615 495.455633 
L 1151.585037 511.406485 
L 1175.856459 518.897296 
L 1200.127882 513.383855 
L 1224.399304 511.259512 
L 1248.670726 515.408318 
L 1272.942149 515.066145 
" style="fill:none;stroke:#1f77b4;stroke-linecap:square;stroke-opacity:0.2;stroke-width:1.5;"/>
   </g>
   <g id="line2d_125">
    <path clip-path="url(#p6254f69a5c)" d="M 811.785124 555.394151 
L 836.056546 580.164864 
L 860.327969 562.51092 
L 884.599391 565.31834 
L 908.870813 548.313006 
L 933.142236 536.675408 
L 957.413658 544.954701 
L 981.68508 530.521634 
L 1005.956503 518.693608 
L 1030.227925 520.628179 
L 1054.499348 514.864805 
L 1078.77077 429.835898 
L 1103.042192 499.528673 
L 1127.313615 512.614715 
L 1151.585037 523.122543 
L 1175.856459 522.312643 
L 1200.127882 520.630161 
L 1224.399304 520.815758 
L 1248.670726 520.645903 
L 1272.942149 521.360369 
" style="fill:none;stroke:#1f77b4;stroke-linecap:square;stroke-opacity:0.2;stroke-width:1.5;"/>
   </g>
   <g id="line2d_126">
    <path clip-path="url(#p6254f69a5c)" d="M 811.785124 573.597224 
L 836.056546 517.505662 
L 860.327969 480.413914 
L 884.599391 519.334607 
L 908.870813 538.657711 
L 933.142236 521.280267 
L 957.413658 514.651899 
L 981.68508 513.222728 
L 1005.956503 517.622978 
L 1030.227925 523.295612 
L 1054.499348 526.872823 
L 1078.77077 492.285149 
L 1103.042192 458.916959 
L 1127.313615 459.737165 
L 1151.585037 476.140848 
L 1175.856459 476.107814 
L 1200.127882 470.045655 
L 1224.399304 521.94916 
L 1248.670726 538.620828 
L 1272.942149 512.78217 
" style="fill:none;stroke:#1f77b4;stroke-linecap:square;stroke-width:1.5;"/>
   </g>
   <g id="line2d_127">
    <path clip-path="url(#p6254f69a5c)" d="M 811.785124 513.860782 
L 836.056546 379.680331 
L 860.327969 430.732574 
L 884.599391 508.66134 
L 908.870813 469.58194 
L 933.142236 437.291799 
L 957.413658 421.616496 
L 981.68508 285.060209 
L 1005.956503 230.363914 
L 1030.227925 222.401757 
L 1054.499348 205.225836 
L 1078.77077 200.369858 
L 1103.042192 191.629805 
L 1127.313615 195.56076 
L 1151.585037 211.186258 
L 1175.856459 233.066354 
L 1200.127882 217.679396 
L 1224.399304 237.430318 
L 1248.670726 185.590499 
L 1272.942149 252.204192 
" style="fill:none;stroke:#ff7f0e;stroke-linecap:square;stroke-opacity:0.2;stroke-width:1.5;"/>
   </g>
   <g id="line2d_128">
    <path clip-path="url(#p6254f69a5c)" d="M 811.785124 506.098445 
L 836.056546 510.85433 
L 860.327969 475.308998 
L 884.599391 415.677359 
L 908.870813 453.504207 
L 933.142236 467.785991 
L 957.413658 492.629718 
L 981.68508 283.061438 
L 1005.956503 332.633828 
L 1030.227925 261.67734 
L 1054.499348 176.422633 
L 1078.77077 158.646637 
L 1103.042192 113.173267 
L 1127.313615 160.135862 
L 1151.585037 255.158105 
L 1175.856459 267.718859 
L 1200.127882 193.839346 
L 1224.399304 221.707287 
L 1248.670726 183.804171 
L 1272.942149 256.227234 
" style="fill:none;stroke:#ff7f0e;stroke-linecap:square;stroke-opacity:0.2;stroke-width:1.5;"/>
   </g>
   <g id="line2d_129">
    <path clip-path="url(#p6254f69a5c)" d="M 811.785124 532.470041 
L 836.056546 459.773316 
L 860.327969 432.580369 
L 884.599391 468.228006 
L 908.870813 455.081401 
L 933.142236 440.523434 
L 957.413658 384.477786 
L 981.68508 307.622459 
L 1005.956503 312.625814 
L 1030.227925 270.277809 
L 1054.499348 206.520611 
L 1078.77077 136.131826 
L 1103.042192 140.160949 
L 1127.313615 121.522149 
L 1151.585037 132.147217 
L 1175.856459 132.062982 
L 1200.127882 130.504726 
L 1224.399304 133.493183 
L 1248.670726 132.17874 
L 1272.942149 134.649375 
" style="fill:none;stroke:#ff7f0e;stroke-linecap:square;stroke-opacity:0.2;stroke-width:1.5;"/>
   </g>
   <g id="line2d_130">
    <path clip-path="url(#p6254f69a5c)" d="M 811.785124 552.479075 
L 836.056546 377.989208 
L 860.327969 312.784238 
L 884.599391 403.386033 
L 908.870813 364.858845 
L 933.142236 298.450359 
L 957.413658 189.830603 
L 981.68508 162.068142 
L 1005.956503 127.63474 
L 1030.227925 132.849269 
L 1054.499348 124.691027 
L 1078.77077 131.083688 
L 1103.042192 124.780573 
L 1127.313615 111.6 
L 1151.585037 131.585748 
L 1175.856459 147.191289 
L 1200.127882 147.398652 
L 1224.399304 158.431807 
L 1248.670726 141.037649 
L 1272.942149 154.376222 
" style="fill:none;stroke:#ff7f0e;stroke-linecap:square;stroke-opacity:0.2;stroke-width:1.5;"/>
   </g>
   <g id="line2d_131">
    <path clip-path="url(#p6254f69a5c)" d="M 811.785124 526.227085 
L 836.056546 432.074296 
L 860.327969 412.851545 
L 884.599391 448.988185 
L 908.870813 435.756598 
L 933.142236 411.012896 
L 957.413658 372.138651 
L 981.68508 259.453062 
L 1005.956503 250.814574 
L 1030.227925 221.801544 
L 1054.499348 178.215027 
L 1078.77077 156.558002 
L 1103.042192 142.436149 
L 1127.313615 147.204693 
L 1151.585037 182.519332 
L 1175.856459 195.009871 
L 1200.127882 172.35553 
L 1224.399304 187.765649 
L 1248.670726 160.652765 
L 1272.942149 199.364256 
" style="fill:none;stroke:#ff7f0e;stroke-linecap:square;stroke-width:1.5;"/>
   </g>
   <g id="line2d_132">
    <path clip-path="url(#p6254f69a5c)" d="M 811.785124 569.618874 
L 836.056546 531.084834 
L 860.327969 522.231179 
L 884.599391 519.932881 
L 908.870813 520.455379 
L 933.142236 520.34857 
L 957.413658 520.97499 
L 981.68508 520.730773 
L 1005.956503 520.819107 
L 1030.227925 520.819107 
L 1054.499348 520.455379 
L 1078.77077 520.455379 
L 1103.042192 520.455379 
L 1127.313615 520.455379 
L 1151.585037 520.455379 
L 1175.856459 520.455379 
L 1200.127882 520.455379 
L 1224.399304 520.455379 
L 1248.670726 520.455379 
L 1272.942149 353.140477 
" style="fill:none;stroke:#2ca02c;stroke-linecap:square;stroke-opacity:0.2;stroke-width:1.5;"/>
   </g>
   <g id="line2d_133">
    <path clip-path="url(#p6254f69a5c)" d="M 811.785124 556.784747 
L 836.056546 526.509023 
L 860.327969 520.981341 
L 884.599391 520.634356 
L 908.870813 520.65745 
L 933.142236 522.948762 
L 957.413658 520.455379 
L 981.68508 520.48136 
L 1005.956503 522.222057 
L 1030.227925 520.543905 
L 1054.499348 520.572773 
L 1078.77077 520.23772 
L 1103.042192 480.231102 
L 1127.313615 361.372369 
L 1151.585037 169.310541 
L 1175.856459 160.05615 
L 1200.127882 151.543514 
L 1224.399304 155.755424 
L 1248.670726 182.271126 
L 1272.942149 206.434144 
" style="fill:none;stroke:#2ca02c;stroke-linecap:square;stroke-opacity:0.2;stroke-width:1.5;"/>
   </g>
   <g id="line2d_134">
    <path clip-path="url(#p6254f69a5c)" d="M 811.785124 355.490178 
L 836.056546 518.712314 
L 860.327969 460.676401 
L 884.599391 519.753346 
L 908.870813 520.455379 
L 933.142236 520.455379 
L 957.413658 521.001933 
L 981.68508 520.455379 
L 1005.956503 520.455379 
L 1030.227925 520.455379 
L 1054.499348 520.455379 
L 1078.77077 520.455379 
L 1103.042192 514.745429 
L 1127.313615 227.313719 
L 1151.585037 175.413663 
L 1175.856459 154.005085 
L 1200.127882 150.778684 
L 1224.399304 153.23837 
L 1248.670726 137.146146 
L 1272.942149 113.804364 
" style="fill:none;stroke:#2ca02c;stroke-linecap:square;stroke-opacity:0.2;stroke-width:1.5;"/>
   </g>
   <g id="line2d_135">
    <path clip-path="url(#p6254f69a5c)" d="M 811.785124 513.671027 
L 836.056546 539.303775 
L 860.327969 394.172884 
L 884.599391 309.67881 
L 908.870813 197.929282 
L 933.142236 118.711861 
L 957.413658 121.856201 
L 981.68508 121.057212 
L 1005.956503 133.288687 
L 1030.227925 138.175168 
L 1054.499348 132.118927 
L 1078.77077 134.766942 
L 1103.042192 148.072857 
L 1127.313615 138.278263 
L 1151.585037 123.708134 
L 1175.856459 124.453872 
L 1200.127882 164.534352 
L 1224.399304 122.545187 
L 1248.670726 114.107451 
L 1272.942149 112.279247 
" style="fill:none;stroke:#2ca02c;stroke-linecap:square;stroke-opacity:0.2;stroke-width:1.5;"/>
   </g>
   <g id="line2d_136">
    <path clip-path="url(#p6254f69a5c)" d="M 811.785124 498.891206 
L 836.056546 528.902487 
L 860.327969 474.515451 
L 884.599391 467.499848 
L 908.870813 439.874373 
L 933.142236 420.616143 
L 957.413658 421.072126 
L 981.68508 420.681181 
L 1005.956503 424.196307 
L 1030.227925 424.99839 
L 1054.499348 423.400614 
L 1078.77077 423.978855 
L 1103.042192 415.876192 
L 1127.313615 311.854933 
L 1151.585037 247.221929 
L 1175.856459 239.742622 
L 1200.127882 246.827982 
L 1224.399304 237.99859 
L 1248.670726 238.495025 
L 1272.942149 196.414558 
" style="fill:none;stroke:#2ca02c;stroke-linecap:square;stroke-width:1.5;"/>
   </g>
   <g id="line2d_137">
    <path clip-path="url(#p6254f69a5c)" d="M 811.785124 562.991906 
L 836.056546 529.694759 
L 860.327969 527.403389 
L 884.599391 527.930852 
L 908.870813 522.788376 
L 933.142236 521.393797 
L 957.413658 520.946123 
L 981.68508 520.80756 
L 1005.956503 520.796013 
L 1030.227925 520.694978 
L 1054.499348 520.637243 
L 1078.77077 520.729618 
L 1103.042192 520.671884 
L 1127.313615 520.729618 
L 1151.585037 520.718071 
L 1175.856459 520.694978 
L 1200.127882 520.455379 
L 1224.399304 520.455379 
L 1248.670726 520.455379 
L 1272.942149 520.455379 
" style="fill:none;stroke:#d62728;stroke-linecap:square;stroke-opacity:0.2;stroke-width:1.5;"/>
   </g>
   <g id="line2d_138">
    <path clip-path="url(#p6254f69a5c)" d="M 811.785124 572.005313 
L 836.056546 562.20406 
L 860.327969 564.247864 
L 884.599391 569.225971 
L 908.870813 555.720698 
L 933.142236 544.312461 
L 957.413658 525.792941 
L 981.68508 518.62808 
L 1005.956503 516.845467 
L 1030.227925 515.374736 
L 1054.499348 515.559487 
L 1078.77077 519.128581 
L 1103.042192 520.455379 
L 1127.313615 520.455379 
L 1151.585037 520.455379 
L 1175.856459 519.8636 
L 1200.127882 524.080822 
L 1224.399304 520.758486 
L 1248.670726 520.455379 
L 1272.942149 520.455379 
" style="fill:none;stroke:#d62728;stroke-linecap:square;stroke-opacity:0.2;stroke-width:1.5;"/>
   </g>
   <g id="line2d_139">
    <path clip-path="url(#p6254f69a5c)" d="M 811.785124 572.416499 
L 836.056546 572.38359 
L 860.327969 529.35222 
L 884.599391 530.81735 
L 908.870813 522.521353 
L 933.142236 522.140651 
L 957.413658 478.484112 
L 981.68508 200.18834 
L 1005.956503 211.122345 
L 1030.227925 203.734456 
L 1054.499348 160.739342 
L 1078.77077 145.173754 
L 1103.042192 118.821326 
L 1127.313615 118.796384 
L 1151.585037 164.641873 
L 1175.856459 208.86092 
L 1200.127882 143.372262 
L 1224.399304 134.475306 
L 1248.670726 132.748099 
L 1272.942149 150.491301 
" style="fill:none;stroke:#d62728;stroke-linecap:square;stroke-opacity:0.2;stroke-width:1.5;"/>
   </g>
   <g id="line2d_140">
    <path clip-path="url(#p6254f69a5c)" d="M 811.785124 572.416499 
L 836.056546 572.416499 
L 860.327969 531.175247 
L 884.599391 518.379244 
L 908.870813 519.251555 
L 933.142236 521.447721 
L 957.413658 521.449395 
L 981.68508 521.214704 
L 1005.956503 521.281734 
L 1030.227925 520.98036 
L 1054.499348 520.491752 
L 1078.77077 520.455379 
L 1103.042192 520.455379 
L 1127.313615 520.455379 
L 1151.585037 520.455379 
L 1175.856459 520.455379 
L 1200.127882 520.455379 
L 1224.399304 520.455379 
L 1248.670726 520.455379 
L 1272.942149 520.455379 
" style="fill:none;stroke:#d62728;stroke-linecap:square;stroke-opacity:0.2;stroke-width:1.5;"/>
   </g>
   <g id="line2d_141">
    <path clip-path="url(#p6254f69a5c)" d="M 811.785124 569.957554 
L 836.056546 559.174727 
L 860.327969 538.04468 
L 884.599391 536.588354 
L 908.870813 530.070496 
L 933.142236 527.323658 
L 957.413658 511.668143 
L 981.68508 440.209671 
L 1005.956503 442.51139 
L 1030.227925 440.196132 
L 1054.499348 429.356956 
L 1078.77077 426.371833 
L 1103.042192 420.100992 
L 1127.313615 420.10919 
L 1151.585037 431.567676 
L 1175.856459 442.468719 
L 1200.127882 427.09096 
L 1224.399304 424.036137 
L 1248.670726 423.528559 
L 1272.942149 427.964359 
" style="fill:none;stroke:#d62728;stroke-linecap:square;stroke-width:1.5;"/>
   </g>
   <g id="patch_9">
    <path d="M 788.727273 640.8 
L 788.727273 86.4 
" style="fill:none;stroke:#000000;stroke-linecap:square;stroke-linejoin:miter;stroke-width:0.8;"/>
   </g>
   <g id="patch_10">
    <path d="M 1296 640.8 
L 1296 86.4 
" style="fill:none;stroke:#000000;stroke-linecap:square;stroke-linejoin:miter;stroke-width:0.8;"/>
   </g>
   <g id="patch_11">
    <path d="M 788.727273 640.8 
L 1296 640.8 
" style="fill:none;stroke:#000000;stroke-linecap:square;stroke-linejoin:miter;stroke-width:0.8;"/>
   </g>
   <g id="patch_12">
    <path d="M 788.727273 86.4 
L 1296 86.4 
" style="fill:none;stroke:#000000;stroke-linecap:square;stroke-linejoin:miter;stroke-width:0.8;"/>
   </g>
   <g id="text_36">
    <!-- Reward -->
    <defs>
     <path d="M 4.203125 54.6875 
L 13.1875 54.6875 
L 24.421875 12.015625 
L 35.59375 54.6875 
L 46.1875 54.6875 
L 57.421875 12.015625 
L 68.609375 54.6875 
L 77.59375 54.6875 
L 63.28125 0 
L 52.6875 0 
L 40.921875 44.828125 
L 29.109375 0 
L 18.5 0 
z
" id="DejaVuSans-119"/>
     <path d="M 41.109375 46.296875 
Q 39.59375 47.171875 37.8125 47.578125 
Q 36.03125 48 33.890625 48 
Q 26.265625 48 22.1875 43.046875 
Q 18.109375 38.09375 18.109375 28.8125 
L 18.109375 0 
L 9.078125 0 
L 9.078125 54.6875 
L 18.109375 54.6875 
L 18.109375 46.1875 
Q 20.953125 51.171875 25.484375 53.578125 
Q 30.03125 56 36.53125 56 
Q 37.453125 56 38.578125 55.875 
Q 39.703125 55.765625 41.0625 55.515625 
z
" id="DejaVuSans-114"/>
    </defs>
    <g transform="translate(1019.648011 80.4)scale(0.12 -0.12)">
     <use xlink:href="#DejaVuSans-82"/>
     <use x="69.419922" xlink:href="#DejaVuSans-101"/>
     <use x="130.943359" xlink:href="#DejaVuSans-119"/>
     <use x="212.730469" xlink:href="#DejaVuSans-97"/>
     <use x="274.009766" xlink:href="#DejaVuSans-114"/>
     <use x="315.107422" xlink:href="#DejaVuSans-100"/>
    </g>
   </g>
   <g id="legend_2">
    <g id="patch_13">
     <path d="M 795.727273 153.1125 
L 1025.23196 153.1125 
Q 1027.23196 153.1125 1027.23196 151.1125 
L 1027.23196 93.4 
Q 1027.23196 91.4 1025.23196 91.4 
L 795.727273 91.4 
Q 793.727273 91.4 793.727273 93.4 
L 793.727273 151.1125 
Q 793.727273 153.1125 795.727273 153.1125 
z
" style="fill:#ffffff;opacity:0.8;stroke:#cccccc;stroke-linejoin:miter;"/>
    </g>
    <g id="line2d_142">
     <path d="M 797.727273 99.498437 
L 817.727273 99.498437 
" style="fill:none;stroke:#1f77b4;stroke-linecap:square;stroke-width:1.5;"/>
    </g>
    <g id="line2d_143"/>
    <g id="text_37">
     <!-- TRandom(eps=0.2),LR=0.001,FD=0.99 -->
     <g transform="translate(825.727273 102.998437)scale(0.1 -0.1)">
      <use xlink:href="#DejaVuSans-84"/>
      <use x="61.083984" xlink:href="#DejaVuSans-82"/>
      <use x="130.535156" xlink:href="#DejaVuSans-97"/>
      <use x="191.814453" xlink:href="#DejaVuSans-110"/>
      <use x="255.193359" xlink:href="#DejaVuSans-100"/>
      <use x="318.669922" xlink:href="#DejaVuSans-111"/>
      <use x="379.851562" xlink:href="#DejaVuSans-109"/>
      <use x="477.263672" xlink:href="#DejaVuSans-40"/>
      <use x="516.277344" xlink:href="#DejaVuSans-101"/>
      <use x="577.800781" xlink:href="#DejaVuSans-112"/>
      <use x="641.277344" xlink:href="#DejaVuSans-115"/>
      <use x="693.376953" xlink:href="#DejaVuSans-61"/>
      <use x="777.166016" xlink:href="#DejaVuSans-48"/>
      <use x="840.789062" xlink:href="#DejaVuSans-46"/>
      <use x="872.576172" xlink:href="#DejaVuSans-50"/>
      <use x="936.199219" xlink:href="#DejaVuSans-41"/>
      <use x="975.212891" xlink:href="#DejaVuSans-44"/>
      <use x="1007" xlink:href="#DejaVuSans-76"/>
      <use x="1062.712891" xlink:href="#DejaVuSans-82"/>
      <use x="1132.195312" xlink:href="#DejaVuSans-61"/>
      <use x="1215.984375" xlink:href="#DejaVuSans-48"/>
      <use x="1279.607422" xlink:href="#DejaVuSans-46"/>
      <use x="1311.394531" xlink:href="#DejaVuSans-48"/>
      <use x="1375.017578" xlink:href="#DejaVuSans-48"/>
      <use x="1438.640625" xlink:href="#DejaVuSans-49"/>
      <use x="1502.263672" xlink:href="#DejaVuSans-44"/>
      <use x="1534.050781" xlink:href="#DejaVuSans-70"/>
      <use x="1591.570312" xlink:href="#DejaVuSans-68"/>
      <use x="1668.572266" xlink:href="#DejaVuSans-61"/>
      <use x="1752.361328" xlink:href="#DejaVuSans-48"/>
      <use x="1815.984375" xlink:href="#DejaVuSans-46"/>
      <use x="1847.771484" xlink:href="#DejaVuSans-57"/>
      <use x="1911.394531" xlink:href="#DejaVuSans-57"/>
     </g>
    </g>
    <g id="line2d_144">
     <path d="M 797.727273 114.176562 
L 817.727273 114.176562 
" style="fill:none;stroke:#ff7f0e;stroke-linecap:square;stroke-width:1.5;"/>
    </g>
    <g id="line2d_145"/>
    <g id="text_38">
     <!-- TRandom(eps=0.2),LR=0.001,FD=0.95 -->
     <g transform="translate(825.727273 117.676562)scale(0.1 -0.1)">
      <use xlink:href="#DejaVuSans-84"/>
      <use x="61.083984" xlink:href="#DejaVuSans-82"/>
      <use x="130.535156" xlink:href="#DejaVuSans-97"/>
      <use x="191.814453" xlink:href="#DejaVuSans-110"/>
      <use x="255.193359" xlink:href="#DejaVuSans-100"/>
      <use x="318.669922" xlink:href="#DejaVuSans-111"/>
      <use x="379.851562" xlink:href="#DejaVuSans-109"/>
      <use x="477.263672" xlink:href="#DejaVuSans-40"/>
      <use x="516.277344" xlink:href="#DejaVuSans-101"/>
      <use x="577.800781" xlink:href="#DejaVuSans-112"/>
      <use x="641.277344" xlink:href="#DejaVuSans-115"/>
      <use x="693.376953" xlink:href="#DejaVuSans-61"/>
      <use x="777.166016" xlink:href="#DejaVuSans-48"/>
      <use x="840.789062" xlink:href="#DejaVuSans-46"/>
      <use x="872.576172" xlink:href="#DejaVuSans-50"/>
      <use x="936.199219" xlink:href="#DejaVuSans-41"/>
      <use x="975.212891" xlink:href="#DejaVuSans-44"/>
      <use x="1007" xlink:href="#DejaVuSans-76"/>
      <use x="1062.712891" xlink:href="#DejaVuSans-82"/>
      <use x="1132.195312" xlink:href="#DejaVuSans-61"/>
      <use x="1215.984375" xlink:href="#DejaVuSans-48"/>
      <use x="1279.607422" xlink:href="#DejaVuSans-46"/>
      <use x="1311.394531" xlink:href="#DejaVuSans-48"/>
      <use x="1375.017578" xlink:href="#DejaVuSans-48"/>
      <use x="1438.640625" xlink:href="#DejaVuSans-49"/>
      <use x="1502.263672" xlink:href="#DejaVuSans-44"/>
      <use x="1534.050781" xlink:href="#DejaVuSans-70"/>
      <use x="1591.570312" xlink:href="#DejaVuSans-68"/>
      <use x="1668.572266" xlink:href="#DejaVuSans-61"/>
      <use x="1752.361328" xlink:href="#DejaVuSans-48"/>
      <use x="1815.984375" xlink:href="#DejaVuSans-46"/>
      <use x="1847.771484" xlink:href="#DejaVuSans-57"/>
      <use x="1911.394531" xlink:href="#DejaVuSans-53"/>
     </g>
    </g>
    <g id="line2d_146">
     <path d="M 797.727273 128.854687 
L 817.727273 128.854687 
" style="fill:none;stroke:#2ca02c;stroke-linecap:square;stroke-width:1.5;"/>
    </g>
    <g id="line2d_147"/>
    <g id="text_39">
     <!-- TRandom(eps=0.2),LR=0.001,FD=0.8 -->
     <g transform="translate(825.727273 132.354687)scale(0.1 -0.1)">
      <use xlink:href="#DejaVuSans-84"/>
      <use x="61.083984" xlink:href="#DejaVuSans-82"/>
      <use x="130.535156" xlink:href="#DejaVuSans-97"/>
      <use x="191.814453" xlink:href="#DejaVuSans-110"/>
      <use x="255.193359" xlink:href="#DejaVuSans-100"/>
      <use x="318.669922" xlink:href="#DejaVuSans-111"/>
      <use x="379.851562" xlink:href="#DejaVuSans-109"/>
      <use x="477.263672" xlink:href="#DejaVuSans-40"/>
      <use x="516.277344" xlink:href="#DejaVuSans-101"/>
      <use x="577.800781" xlink:href="#DejaVuSans-112"/>
      <use x="641.277344" xlink:href="#DejaVuSans-115"/>
      <use x="693.376953" xlink:href="#DejaVuSans-61"/>
      <use x="777.166016" xlink:href="#DejaVuSans-48"/>
      <use x="840.789062" xlink:href="#DejaVuSans-46"/>
      <use x="872.576172" xlink:href="#DejaVuSans-50"/>
      <use x="936.199219" xlink:href="#DejaVuSans-41"/>
      <use x="975.212891" xlink:href="#DejaVuSans-44"/>
      <use x="1007" xlink:href="#DejaVuSans-76"/>
      <use x="1062.712891" xlink:href="#DejaVuSans-82"/>
      <use x="1132.195312" xlink:href="#DejaVuSans-61"/>
      <use x="1215.984375" xlink:href="#DejaVuSans-48"/>
      <use x="1279.607422" xlink:href="#DejaVuSans-46"/>
      <use x="1311.394531" xlink:href="#DejaVuSans-48"/>
      <use x="1375.017578" xlink:href="#DejaVuSans-48"/>
      <use x="1438.640625" xlink:href="#DejaVuSans-49"/>
      <use x="1502.263672" xlink:href="#DejaVuSans-44"/>
      <use x="1534.050781" xlink:href="#DejaVuSans-70"/>
      <use x="1591.570312" xlink:href="#DejaVuSans-68"/>
      <use x="1668.572266" xlink:href="#DejaVuSans-61"/>
      <use x="1752.361328" xlink:href="#DejaVuSans-48"/>
      <use x="1815.984375" xlink:href="#DejaVuSans-46"/>
      <use x="1847.771484" xlink:href="#DejaVuSans-56"/>
     </g>
    </g>
    <g id="line2d_148">
     <path d="M 797.727273 143.532812 
L 817.727273 143.532812 
" style="fill:none;stroke:#d62728;stroke-linecap:square;stroke-width:1.5;"/>
    </g>
    <g id="line2d_149"/>
    <g id="text_40">
     <!-- TRandom(eps=0.2),LR=0.001,FD=0.5 -->
     <g transform="translate(825.727273 147.032812)scale(0.1 -0.1)">
      <use xlink:href="#DejaVuSans-84"/>
      <use x="61.083984" xlink:href="#DejaVuSans-82"/>
      <use x="130.535156" xlink:href="#DejaVuSans-97"/>
      <use x="191.814453" xlink:href="#DejaVuSans-110"/>
      <use x="255.193359" xlink:href="#DejaVuSans-100"/>
      <use x="318.669922" xlink:href="#DejaVuSans-111"/>
      <use x="379.851562" xlink:href="#DejaVuSans-109"/>
      <use x="477.263672" xlink:href="#DejaVuSans-40"/>
      <use x="516.277344" xlink:href="#DejaVuSans-101"/>
      <use x="577.800781" xlink:href="#DejaVuSans-112"/>
      <use x="641.277344" xlink:href="#DejaVuSans-115"/>
      <use x="693.376953" xlink:href="#DejaVuSans-61"/>
      <use x="777.166016" xlink:href="#DejaVuSans-48"/>
      <use x="840.789062" xlink:href="#DejaVuSans-46"/>
      <use x="872.576172" xlink:href="#DejaVuSans-50"/>
      <use x="936.199219" xlink:href="#DejaVuSans-41"/>
      <use x="975.212891" xlink:href="#DejaVuSans-44"/>
      <use x="1007" xlink:href="#DejaVuSans-76"/>
      <use x="1062.712891" xlink:href="#DejaVuSans-82"/>
      <use x="1132.195312" xlink:href="#DejaVuSans-61"/>
      <use x="1215.984375" xlink:href="#DejaVuSans-48"/>
      <use x="1279.607422" xlink:href="#DejaVuSans-46"/>
      <use x="1311.394531" xlink:href="#DejaVuSans-48"/>
      <use x="1375.017578" xlink:href="#DejaVuSans-48"/>
      <use x="1438.640625" xlink:href="#DejaVuSans-49"/>
      <use x="1502.263672" xlink:href="#DejaVuSans-44"/>
      <use x="1534.050781" xlink:href="#DejaVuSans-70"/>
      <use x="1591.570312" xlink:href="#DejaVuSans-68"/>
      <use x="1668.572266" xlink:href="#DejaVuSans-61"/>
      <use x="1752.361328" xlink:href="#DejaVuSans-48"/>
      <use x="1815.984375" xlink:href="#DejaVuSans-46"/>
      <use x="1847.771484" xlink:href="#DejaVuSans-53"/>
     </g>
    </g>
   </g>
  </g>
 </g>
 <defs>
  <clipPath id="p575b2bd1dd">
   <rect height="554.4" width="507.272727" x="180" y="86.4"/>
  </clipPath>
  <clipPath id="p6254f69a5c">
   <rect height="554.4" width="507.272727" x="788.727273" y="86.4"/>
  </clipPath>
 </defs>
</svg>
