<?xml version="1.0" encoding="utf-8" standalone="no"?>
<!DOCTYPE svg PUBLIC "-//W3C//DTD SVG 1.1//EN"
  "http://www.w3.org/Graphics/SVG/1.1/DTD/svg11.dtd">
<!-- Created with matplotlib (https://matplotlib.org/) -->
<svg height="720pt" version="1.1" viewBox="0 0 1440 720" width="1440pt" xmlns="http://www.w3.org/2000/svg" xmlns:xlink="http://www.w3.org/1999/xlink">
 <defs>
  <style type="text/css">
*{stroke-linecap:butt;stroke-linejoin:round;}
  </style>
 </defs>
 <g id="figure_1">
  <g id="patch_1">
   <path d="M 0 720 
L 1440 720 
L 1440 0 
L 0 0 
z
" style="fill:#ffffff;"/>
  </g>
  <g id="axes_1">
   <g id="patch_2">
    <path d="M 180 640.8 
L 687.272727 640.8 
L 687.272727 86.4 
L 180 86.4 
z
" style="fill:#ffffff;"/>
   </g>
   <g id="matplotlib.axis_1">
    <g id="xtick_1">
     <g id="line2d_1">
      <defs>
       <path d="M 0 0 
L 0 3.5 
" id="mc6f60e23ac" style="stroke:#000000;stroke-width:0.8;"/>
      </defs>
      <g>
       <use style="stroke:#000000;stroke-width:0.8;" x="203.057851" xlink:href="#mc6f60e23ac" y="640.8"/>
      </g>
     </g>
     <g id="text_1">
      <!-- 0.0 -->
      <defs>
       <path d="M 31.78125 66.40625 
Q 24.171875 66.40625 20.328125 58.90625 
Q 16.5 51.421875 16.5 36.375 
Q 16.5 21.390625 20.328125 13.890625 
Q 24.171875 6.390625 31.78125 6.390625 
Q 39.453125 6.390625 43.28125 13.890625 
Q 47.125 21.390625 47.125 36.375 
Q 47.125 51.421875 43.28125 58.90625 
Q 39.453125 66.40625 31.78125 66.40625 
z
M 31.78125 74.21875 
Q 44.046875 74.21875 50.515625 64.515625 
Q 56.984375 54.828125 56.984375 36.375 
Q 56.984375 17.96875 50.515625 8.265625 
Q 44.046875 -1.421875 31.78125 -1.421875 
Q 19.53125 -1.421875 13.0625 8.265625 
Q 6.59375 17.96875 6.59375 36.375 
Q 6.59375 54.828125 13.0625 64.515625 
Q 19.53125 74.21875 31.78125 74.21875 
z
" id="DejaVuSans-48"/>
       <path d="M 10.6875 12.40625 
L 21 12.40625 
L 21 0 
L 10.6875 0 
z
" id="DejaVuSans-46"/>
      </defs>
      <g transform="translate(195.106289 655.398438)scale(0.1 -0.1)">
       <use xlink:href="#DejaVuSans-48"/>
       <use x="63.623047" xlink:href="#DejaVuSans-46"/>
       <use x="95.410156" xlink:href="#DejaVuSans-48"/>
      </g>
     </g>
    </g>
    <g id="xtick_2">
     <g id="line2d_2">
      <g>
       <use style="stroke:#000000;stroke-width:0.8;" x="263.736407" xlink:href="#mc6f60e23ac" y="640.8"/>
      </g>
     </g>
     <g id="text_2">
      <!-- 2.5 -->
      <defs>
       <path d="M 19.1875 8.296875 
L 53.609375 8.296875 
L 53.609375 0 
L 7.328125 0 
L 7.328125 8.296875 
Q 12.9375 14.109375 22.625 23.890625 
Q 32.328125 33.6875 34.8125 36.53125 
Q 39.546875 41.84375 41.421875 45.53125 
Q 43.3125 49.21875 43.3125 52.78125 
Q 43.3125 58.59375 39.234375 62.25 
Q 35.15625 65.921875 28.609375 65.921875 
Q 23.96875 65.921875 18.8125 64.3125 
Q 13.671875 62.703125 7.8125 59.421875 
L 7.8125 69.390625 
Q 13.765625 71.78125 18.9375 73 
Q 24.125 74.21875 28.421875 74.21875 
Q 39.75 74.21875 46.484375 68.546875 
Q 53.21875 62.890625 53.21875 53.421875 
Q 53.21875 48.921875 51.53125 44.890625 
Q 49.859375 40.875 45.40625 35.40625 
Q 44.1875 33.984375 37.640625 27.21875 
Q 31.109375 20.453125 19.1875 8.296875 
z
" id="DejaVuSans-50"/>
       <path d="M 10.796875 72.90625 
L 49.515625 72.90625 
L 49.515625 64.59375 
L 19.828125 64.59375 
L 19.828125 46.734375 
Q 21.96875 47.46875 24.109375 47.828125 
Q 26.265625 48.1875 28.421875 48.1875 
Q 40.625 48.1875 47.75 41.5 
Q 54.890625 34.8125 54.890625 23.390625 
Q 54.890625 11.625 47.5625 5.09375 
Q 40.234375 -1.421875 26.90625 -1.421875 
Q 22.3125 -1.421875 17.546875 -0.640625 
Q 12.796875 0.140625 7.71875 1.703125 
L 7.71875 11.625 
Q 12.109375 9.234375 16.796875 8.0625 
Q 21.484375 6.890625 26.703125 6.890625 
Q 35.15625 6.890625 40.078125 11.328125 
Q 45.015625 15.765625 45.015625 23.390625 
Q 45.015625 31 40.078125 35.4375 
Q 35.15625 39.890625 26.703125 39.890625 
Q 22.75 39.890625 18.8125 39.015625 
Q 14.890625 38.140625 10.796875 36.28125 
z
" id="DejaVuSans-53"/>
      </defs>
      <g transform="translate(255.784845 655.398438)scale(0.1 -0.1)">
       <use xlink:href="#DejaVuSans-50"/>
       <use x="63.623047" xlink:href="#DejaVuSans-46"/>
       <use x="95.410156" xlink:href="#DejaVuSans-53"/>
      </g>
     </g>
    </g>
    <g id="xtick_3">
     <g id="line2d_3">
      <g>
       <use style="stroke:#000000;stroke-width:0.8;" x="324.414963" xlink:href="#mc6f60e23ac" y="640.8"/>
      </g>
     </g>
     <g id="text_3">
      <!-- 5.0 -->
      <g transform="translate(316.463401 655.398438)scale(0.1 -0.1)">
       <use xlink:href="#DejaVuSans-53"/>
       <use x="63.623047" xlink:href="#DejaVuSans-46"/>
       <use x="95.410156" xlink:href="#DejaVuSans-48"/>
      </g>
     </g>
    </g>
    <g id="xtick_4">
     <g id="line2d_4">
      <g>
       <use style="stroke:#000000;stroke-width:0.8;" x="385.093519" xlink:href="#mc6f60e23ac" y="640.8"/>
      </g>
     </g>
     <g id="text_4">
      <!-- 7.5 -->
      <defs>
       <path d="M 8.203125 72.90625 
L 55.078125 72.90625 
L 55.078125 68.703125 
L 28.609375 0 
L 18.3125 0 
L 43.21875 64.59375 
L 8.203125 64.59375 
z
" id="DejaVuSans-55"/>
      </defs>
      <g transform="translate(377.141956 655.398438)scale(0.1 -0.1)">
       <use xlink:href="#DejaVuSans-55"/>
       <use x="63.623047" xlink:href="#DejaVuSans-46"/>
       <use x="95.410156" xlink:href="#DejaVuSans-53"/>
      </g>
     </g>
    </g>
    <g id="xtick_5">
     <g id="line2d_5">
      <g>
       <use style="stroke:#000000;stroke-width:0.8;" x="445.772075" xlink:href="#mc6f60e23ac" y="640.8"/>
      </g>
     </g>
     <g id="text_5">
      <!-- 10.0 -->
      <defs>
       <path d="M 12.40625 8.296875 
L 28.515625 8.296875 
L 28.515625 63.921875 
L 10.984375 60.40625 
L 10.984375 69.390625 
L 28.421875 72.90625 
L 38.28125 72.90625 
L 38.28125 8.296875 
L 54.390625 8.296875 
L 54.390625 0 
L 12.40625 0 
z
" id="DejaVuSans-49"/>
      </defs>
      <g transform="translate(434.639262 655.398438)scale(0.1 -0.1)">
       <use xlink:href="#DejaVuSans-49"/>
       <use x="63.623047" xlink:href="#DejaVuSans-48"/>
       <use x="127.246094" xlink:href="#DejaVuSans-46"/>
       <use x="159.033203" xlink:href="#DejaVuSans-48"/>
      </g>
     </g>
    </g>
    <g id="xtick_6">
     <g id="line2d_6">
      <g>
       <use style="stroke:#000000;stroke-width:0.8;" x="506.450631" xlink:href="#mc6f60e23ac" y="640.8"/>
      </g>
     </g>
     <g id="text_6">
      <!-- 12.5 -->
      <g transform="translate(495.317818 655.398438)scale(0.1 -0.1)">
       <use xlink:href="#DejaVuSans-49"/>
       <use x="63.623047" xlink:href="#DejaVuSans-50"/>
       <use x="127.246094" xlink:href="#DejaVuSans-46"/>
       <use x="159.033203" xlink:href="#DejaVuSans-53"/>
      </g>
     </g>
    </g>
    <g id="xtick_7">
     <g id="line2d_7">
      <g>
       <use style="stroke:#000000;stroke-width:0.8;" x="567.129187" xlink:href="#mc6f60e23ac" y="640.8"/>
      </g>
     </g>
     <g id="text_7">
      <!-- 15.0 -->
      <g transform="translate(555.996374 655.398438)scale(0.1 -0.1)">
       <use xlink:href="#DejaVuSans-49"/>
       <use x="63.623047" xlink:href="#DejaVuSans-53"/>
       <use x="127.246094" xlink:href="#DejaVuSans-46"/>
       <use x="159.033203" xlink:href="#DejaVuSans-48"/>
      </g>
     </g>
    </g>
    <g id="xtick_8">
     <g id="line2d_8">
      <g>
       <use style="stroke:#000000;stroke-width:0.8;" x="627.807742" xlink:href="#mc6f60e23ac" y="640.8"/>
      </g>
     </g>
     <g id="text_8">
      <!-- 17.5 -->
      <g transform="translate(616.67493 655.398438)scale(0.1 -0.1)">
       <use xlink:href="#DejaVuSans-49"/>
       <use x="63.623047" xlink:href="#DejaVuSans-55"/>
       <use x="127.246094" xlink:href="#DejaVuSans-46"/>
       <use x="159.033203" xlink:href="#DejaVuSans-53"/>
      </g>
     </g>
    </g>
   </g>
   <g id="matplotlib.axis_2">
    <g id="ytick_1">
     <g id="line2d_9">
      <defs>
       <path d="M 0 0 
L -3.5 0 
" id="m8a7b723d91" style="stroke:#000000;stroke-width:0.8;"/>
      </defs>
      <g>
       <use style="stroke:#000000;stroke-width:0.8;" x="180" xlink:href="#m8a7b723d91" y="502.701113"/>
      </g>
     </g>
     <g id="text_9">
      <!-- $\mathdefault{10^{-2}}$ -->
      <defs>
       <path d="M 10.59375 35.5 
L 73.1875 35.5 
L 73.1875 27.203125 
L 10.59375 27.203125 
z
" id="DejaVuSans-8722"/>
      </defs>
      <g transform="translate(149.5 506.500332)scale(0.1 -0.1)">
       <use transform="translate(0 0.765625)" xlink:href="#DejaVuSans-49"/>
       <use transform="translate(63.623047 0.765625)" xlink:href="#DejaVuSans-48"/>
       <use transform="translate(128.203125 39.046875)scale(0.7)" xlink:href="#DejaVuSans-8722"/>
       <use transform="translate(186.855469 39.046875)scale(0.7)" xlink:href="#DejaVuSans-50"/>
      </g>
     </g>
    </g>
    <g id="ytick_2">
     <g id="line2d_10">
      <g>
       <use style="stroke:#000000;stroke-width:0.8;" x="180" xlink:href="#m8a7b723d91" y="301.216147"/>
      </g>
     </g>
     <g id="text_10">
      <!-- $\mathdefault{10^{-1}}$ -->
      <g transform="translate(149.5 305.015365)scale(0.1 -0.1)">
       <use transform="translate(0 0.684375)" xlink:href="#DejaVuSans-49"/>
       <use transform="translate(63.623047 0.684375)" xlink:href="#DejaVuSans-48"/>
       <use transform="translate(128.203125 38.965625)scale(0.7)" xlink:href="#DejaVuSans-8722"/>
       <use transform="translate(186.855469 38.965625)scale(0.7)" xlink:href="#DejaVuSans-49"/>
      </g>
     </g>
    </g>
    <g id="ytick_3">
     <g id="line2d_11">
      <g>
       <use style="stroke:#000000;stroke-width:0.8;" x="180" xlink:href="#m8a7b723d91" y="99.73118"/>
      </g>
     </g>
     <g id="text_11">
      <!-- $\mathdefault{10^{0}}$ -->
      <g transform="translate(155.4 103.530399)scale(0.1 -0.1)">
       <use transform="translate(0 0.765625)" xlink:href="#DejaVuSans-49"/>
       <use transform="translate(63.623047 0.765625)" xlink:href="#DejaVuSans-48"/>
       <use transform="translate(128.203125 39.046875)scale(0.7)" xlink:href="#DejaVuSans-48"/>
      </g>
     </g>
    </g>
    <g id="ytick_4">
     <g id="line2d_12">
      <defs>
       <path d="M 0 0 
L -2 0 
" id="m8dcd2420c2" style="stroke:#000000;stroke-width:0.6;"/>
      </defs>
      <g>
       <use style="stroke:#000000;stroke-width:0.6;" x="180" xlink:href="#m8dcd2420c2" y="608.053319"/>
      </g>
     </g>
    </g>
    <g id="ytick_5">
     <g id="line2d_13">
      <g>
       <use style="stroke:#000000;stroke-width:0.6;" x="180" xlink:href="#m8dcd2420c2" y="582.880042"/>
      </g>
     </g>
    </g>
    <g id="ytick_6">
     <g id="line2d_14">
      <g>
       <use style="stroke:#000000;stroke-width:0.6;" x="180" xlink:href="#m8dcd2420c2" y="563.354132"/>
      </g>
     </g>
    </g>
    <g id="ytick_7">
     <g id="line2d_15">
      <g>
       <use style="stroke:#000000;stroke-width:0.6;" x="180" xlink:href="#m8dcd2420c2" y="547.400301"/>
      </g>
     </g>
    </g>
    <g id="ytick_8">
     <g id="line2d_16">
      <g>
       <use style="stroke:#000000;stroke-width:0.6;" x="180" xlink:href="#m8dcd2420c2" y="533.911529"/>
      </g>
     </g>
    </g>
    <g id="ytick_9">
     <g id="line2d_17">
      <g>
       <use style="stroke:#000000;stroke-width:0.6;" x="180" xlink:href="#m8dcd2420c2" y="522.227024"/>
      </g>
     </g>
    </g>
    <g id="ytick_10">
     <g id="line2d_18">
      <g>
       <use style="stroke:#000000;stroke-width:0.6;" x="180" xlink:href="#m8dcd2420c2" y="511.920559"/>
      </g>
     </g>
    </g>
    <g id="ytick_11">
     <g id="line2d_19">
      <g>
       <use style="stroke:#000000;stroke-width:0.6;" x="180" xlink:href="#m8dcd2420c2" y="442.048094"/>
      </g>
     </g>
    </g>
    <g id="ytick_12">
     <g id="line2d_20">
      <g>
       <use style="stroke:#000000;stroke-width:0.6;" x="180" xlink:href="#m8dcd2420c2" y="406.568353"/>
      </g>
     </g>
    </g>
    <g id="ytick_13">
     <g id="line2d_21">
      <g>
       <use style="stroke:#000000;stroke-width:0.6;" x="180" xlink:href="#m8dcd2420c2" y="381.395076"/>
      </g>
     </g>
    </g>
    <g id="ytick_14">
     <g id="line2d_22">
      <g>
       <use style="stroke:#000000;stroke-width:0.6;" x="180" xlink:href="#m8dcd2420c2" y="361.869165"/>
      </g>
     </g>
    </g>
    <g id="ytick_15">
     <g id="line2d_23">
      <g>
       <use style="stroke:#000000;stroke-width:0.6;" x="180" xlink:href="#m8dcd2420c2" y="345.915334"/>
      </g>
     </g>
    </g>
    <g id="ytick_16">
     <g id="line2d_24">
      <g>
       <use style="stroke:#000000;stroke-width:0.6;" x="180" xlink:href="#m8dcd2420c2" y="332.426563"/>
      </g>
     </g>
    </g>
    <g id="ytick_17">
     <g id="line2d_25">
      <g>
       <use style="stroke:#000000;stroke-width:0.6;" x="180" xlink:href="#m8dcd2420c2" y="320.742057"/>
      </g>
     </g>
    </g>
    <g id="ytick_18">
     <g id="line2d_26">
      <g>
       <use style="stroke:#000000;stroke-width:0.6;" x="180" xlink:href="#m8dcd2420c2" y="310.435593"/>
      </g>
     </g>
    </g>
    <g id="ytick_19">
     <g id="line2d_27">
      <g>
       <use style="stroke:#000000;stroke-width:0.6;" x="180" xlink:href="#m8dcd2420c2" y="240.563128"/>
      </g>
     </g>
    </g>
    <g id="ytick_20">
     <g id="line2d_28">
      <g>
       <use style="stroke:#000000;stroke-width:0.6;" x="180" xlink:href="#m8dcd2420c2" y="205.083387"/>
      </g>
     </g>
    </g>
    <g id="ytick_21">
     <g id="line2d_29">
      <g>
       <use style="stroke:#000000;stroke-width:0.6;" x="180" xlink:href="#m8dcd2420c2" y="179.910109"/>
      </g>
     </g>
    </g>
    <g id="ytick_22">
     <g id="line2d_30">
      <g>
       <use style="stroke:#000000;stroke-width:0.6;" x="180" xlink:href="#m8dcd2420c2" y="160.384199"/>
      </g>
     </g>
    </g>
    <g id="ytick_23">
     <g id="line2d_31">
      <g>
       <use style="stroke:#000000;stroke-width:0.6;" x="180" xlink:href="#m8dcd2420c2" y="144.430368"/>
      </g>
     </g>
    </g>
    <g id="ytick_24">
     <g id="line2d_32">
      <g>
       <use style="stroke:#000000;stroke-width:0.6;" x="180" xlink:href="#m8dcd2420c2" y="130.941596"/>
      </g>
     </g>
    </g>
    <g id="ytick_25">
     <g id="line2d_33">
      <g>
       <use style="stroke:#000000;stroke-width:0.6;" x="180" xlink:href="#m8dcd2420c2" y="119.257091"/>
      </g>
     </g>
    </g>
    <g id="ytick_26">
     <g id="line2d_34">
      <g>
       <use style="stroke:#000000;stroke-width:0.6;" x="180" xlink:href="#m8dcd2420c2" y="108.950627"/>
      </g>
     </g>
    </g>
   </g>
   <g id="line2d_35">
    <path clip-path="url(#p3ebe65e5e7)" d="M 203.057851 167.243192 
L 227.329274 365.552554 
L 251.600696 384.909631 
L 275.872118 412.189764 
L 300.143541 436.738268 
L 324.414963 464.350703 
L 348.686385 479.5329 
L 372.957808 499.912961 
L 397.22923 505.662494 
L 421.500652 526.026642 
L 445.772075 532.37599 
L 470.043497 520.957106 
L 494.31492 530.579531 
L 518.586342 502.925778 
L 542.857764 495.612068 
L 567.129187 492.159169 
L 591.400609 487.054274 
L 615.672031 491.606934 
L 639.943454 493.546326 
L 664.214876 497.344021 
" style="fill:none;stroke:#1f77b4;stroke-linecap:square;stroke-opacity:0.2;stroke-width:1.5;"/>
   </g>
   <g id="line2d_36">
    <path clip-path="url(#p3ebe65e5e7)" d="M 203.057851 111.6 
L 227.329274 344.287649 
L 251.600696 370.68702 
L 275.872118 385.443225 
L 300.143541 412.277334 
L 324.414963 446.168237 
L 348.686385 475.376925 
L 372.957808 487.431598 
L 397.22923 497.569193 
L 421.500652 496.513774 
L 445.772075 459.636422 
L 470.043497 468.367127 
L 494.31492 471.387359 
L 518.586342 471.820112 
L 542.857764 475.298009 
L 567.129187 476.245175 
L 591.400609 478.606638 
L 615.672031 479.641891 
L 639.943454 483.254731 
L 664.214876 482.834356 
" style="fill:none;stroke:#1f77b4;stroke-linecap:square;stroke-opacity:0.2;stroke-width:1.5;"/>
   </g>
   <g id="line2d_37">
    <path clip-path="url(#p3ebe65e5e7)" d="M 203.057851 315.78146 
L 227.329274 405.067608 
L 251.600696 426.257858 
L 275.872118 469.966519 
L 300.143541 505.999676 
L 324.414963 527.322948 
L 348.686385 521.774595 
L 372.957808 533.807529 
L 397.22923 539.43278 
L 421.500652 539.885875 
L 445.772075 537.295302 
L 470.043497 539.805678 
L 494.31492 541.257686 
L 518.586342 535.683173 
L 542.857764 535.771746 
L 567.129187 539.212326 
L 591.400609 539.935753 
L 615.672031 545.287151 
L 639.943454 546.650257 
L 664.214876 548.310121 
" style="fill:none;stroke:#1f77b4;stroke-linecap:square;stroke-opacity:0.2;stroke-width:1.5;"/>
   </g>
   <g id="line2d_38">
    <path clip-path="url(#p3ebe65e5e7)" d="M 203.057851 262.954616 
L 227.329274 367.762756 
L 251.600696 426.990013 
L 275.872118 471.329547 
L 300.143541 496.616836 
L 324.414963 446.776564 
L 348.686385 453.468514 
L 372.957808 461.468668 
L 397.22923 484.398987 
L 421.500652 487.382588 
L 445.772075 472.165254 
L 470.043497 478.409283 
L 494.31492 484.892098 
L 518.586342 495.045351 
L 542.857764 505.193104 
L 567.129187 510.237284 
L 591.400609 518.607533 
L 615.672031 527.756214 
L 639.943454 516.436229 
L 664.214876 511.12449 
" style="fill:none;stroke:#1f77b4;stroke-linecap:square;stroke-opacity:0.2;stroke-width:1.5;"/>
   </g>
   <g id="line2d_39">
    <path clip-path="url(#p3ebe65e5e7)" d="M 203.057851 181.289571 
L 227.329274 368.065325 
L 251.600696 398.66497 
L 275.872118 426.850631 
L 300.143541 454.100242 
L 324.414963 465.666437 
L 348.686385 479.255272 
L 372.957808 491.894623 
L 397.22923 504.536778 
L 421.500652 509.892848 
L 445.772075 493.583707 
L 470.043497 497.056062 
L 494.31492 502.117361 
L 518.586342 498.472604 
L 542.857764 500.341474 
L 567.129187 501.454614 
L 591.400609 502.700934 
L 615.672031 507.135165 
L 639.943454 506.751828 
L 664.214876 506.72941 
" style="fill:none;stroke:#1f77b4;stroke-linecap:square;stroke-width:1.5;"/>
   </g>
   <g id="line2d_40">
    <path clip-path="url(#p3ebe65e5e7)" d="M 203.057851 211.794368 
L 227.329274 352.411749 
L 251.600696 391.406864 
L 275.872118 432.115148 
L 300.143541 465.042509 
L 324.414963 478.774667 
L 348.686385 497.958115 
L 372.957808 518.222571 
L 397.22923 533.678485 
L 421.500652 547.37617 
L 445.772075 560.843872 
L 470.043497 567.700891 
L 494.31492 579.566176 
L 518.586342 589.433562 
L 542.857764 591.772321 
L 567.129187 595.663795 
L 591.400609 600.177341 
L 615.672031 607.21436 
L 639.943454 601.806617 
L 664.214876 608.711377 
" style="fill:none;stroke:#ff7f0e;stroke-linecap:square;stroke-opacity:0.2;stroke-width:1.5;"/>
   </g>
   <g id="line2d_41">
    <path clip-path="url(#p3ebe65e5e7)" d="M 203.057851 289.016801 
L 227.329274 423.949733 
L 251.600696 469.162867 
L 275.872118 455.6863 
L 300.143541 480.802603 
L 324.414963 500.611898 
L 348.686385 501.621279 
L 372.957808 498.198404 
L 397.22923 504.185356 
L 421.500652 519.711929 
L 445.772075 544.809687 
L 470.043497 558.477998 
L 494.31492 569.39649 
L 518.586342 577.670668 
L 542.857764 587.463549 
L 567.129187 590.554882 
L 591.400609 591.334442 
L 615.672031 586.693554 
L 639.943454 593.515777 
L 664.214876 600.093577 
" style="fill:none;stroke:#ff7f0e;stroke-linecap:square;stroke-opacity:0.2;stroke-width:1.5;"/>
   </g>
   <g id="line2d_42">
    <path clip-path="url(#p3ebe65e5e7)" d="M 203.057851 254.734012 
L 227.329274 398.107008 
L 251.600696 428.639569 
L 275.872118 477.860199 
L 300.143541 513.98888 
L 324.414963 536.195495 
L 348.686385 549.40991 
L 372.957808 556.771107 
L 397.22923 557.404887 
L 421.500652 566.165697 
L 445.772075 563.294824 
L 470.043497 574.70512 
L 494.31492 574.738222 
L 518.586342 578.736007 
L 542.857764 584.301527 
L 567.129187 583.006313 
L 591.400609 588.003559 
L 615.672031 591.296902 
L 639.943454 589.418326 
L 664.214876 592.319854 
" style="fill:none;stroke:#ff7f0e;stroke-linecap:square;stroke-opacity:0.2;stroke-width:1.5;"/>
   </g>
   <g id="line2d_43">
    <path clip-path="url(#p3ebe65e5e7)" d="M 203.057851 215.721185 
L 227.329274 350.747898 
L 251.600696 419.363596 
L 275.872118 434.640855 
L 300.143541 446.057612 
L 324.414963 456.959181 
L 348.686385 471.088716 
L 372.957808 477.039772 
L 397.22923 484.973243 
L 421.500652 491.321883 
L 445.772075 490.919366 
L 470.043497 484.166692 
L 494.31492 485.556216 
L 518.586342 489.297825 
L 542.857764 503.467179 
L 567.129187 516.426662 
L 591.400609 529.210053 
L 615.672031 549.641959 
L 639.943454 562.773444 
L 664.214876 580.336485 
" style="fill:none;stroke:#ff7f0e;stroke-linecap:square;stroke-opacity:0.2;stroke-width:1.5;"/>
   </g>
   <g id="line2d_44">
    <path clip-path="url(#p3ebe65e5e7)" d="M 203.057851 237.492816 
L 227.329274 376.026223 
L 251.600696 422.892943 
L 275.872118 448.201778 
L 300.143541 473.077789 
L 324.414963 488.454764 
L 348.686385 500.761743 
L 372.957808 507.880175 
L 397.22923 515.776649 
L 421.500652 526.526755 
L 445.772075 534.631788 
L 470.043497 537.760435 
L 494.31492 542.524447 
L 518.586342 548.110512 
L 542.857764 558.017394 
L 567.129187 564.841506 
L 591.400609 572.219102 
L 615.672031 581.041474 
L 639.943454 585.604568 
L 664.214876 594.738869 
" style="fill:none;stroke:#ff7f0e;stroke-linecap:square;stroke-width:1.5;"/>
   </g>
   <g id="line2d_45">
    <path clip-path="url(#p3ebe65e5e7)" d="M 203.057851 154.303844 
L 227.329274 315.000844 
L 251.600696 363.478531 
L 275.872118 402.71504 
L 300.143541 421.627051 
L 324.414963 438.6622 
L 348.686385 456.710976 
L 372.957808 464.604256 
L 397.22923 488.012094 
L 421.500652 490.907275 
L 445.772075 505.487102 
L 470.043497 520.983992 
L 494.31492 489.705746 
L 518.586342 481.579834 
L 542.857764 523.399763 
L 567.129187 550.680164 
L 591.400609 565.247359 
L 615.672031 574.419619 
L 639.943454 587.02575 
L 664.214876 601.96026 
" style="fill:none;stroke:#2ca02c;stroke-linecap:square;stroke-opacity:0.2;stroke-width:1.5;"/>
   </g>
   <g id="line2d_46">
    <path clip-path="url(#p3ebe65e5e7)" d="M 203.057851 298.191676 
L 227.329274 427.336404 
L 251.600696 462.829062 
L 275.872118 496.807676 
L 300.143541 513.4809 
L 324.414963 536.488589 
L 348.686385 518.499231 
L 372.957808 462.429257 
L 397.22923 490.599576 
L 421.500652 454.734894 
L 445.772075 458.538152 
L 470.043497 480.709643 
L 494.31492 471.761094 
L 518.586342 484.46044 
L 542.857764 484.334976 
L 567.129187 486.684776 
L 591.400609 492.401868 
L 615.672031 490.022357 
L 639.943454 492.55051 
L 664.214876 489.036067 
" style="fill:none;stroke:#2ca02c;stroke-linecap:square;stroke-opacity:0.2;stroke-width:1.5;"/>
   </g>
   <g id="line2d_47">
    <path clip-path="url(#p3ebe65e5e7)" d="M 203.057851 238.940188 
L 227.329274 425.100032 
L 251.600696 463.278296 
L 275.872118 499.270074 
L 300.143541 513.239925 
L 324.414963 497.435253 
L 348.686385 537.350624 
L 372.957808 560.796629 
L 397.22923 582.609217 
L 421.500652 597.826398 
L 445.772075 609.589827 
L 470.043497 610.669547 
L 494.31492 507.491179 
L 518.586342 566.191806 
L 542.857764 535.47653 
L 567.129187 500.755358 
L 591.400609 510.696664 
L 615.672031 514.622712 
L 639.943454 506.147678 
L 664.214876 542.166043 
" style="fill:none;stroke:#2ca02c;stroke-linecap:square;stroke-opacity:0.2;stroke-width:1.5;"/>
   </g>
   <g id="line2d_48">
    <path clip-path="url(#p3ebe65e5e7)" d="M 203.057851 222.652692 
L 227.329274 437.92321 
L 251.600696 459.276532 
L 275.872118 482.774284 
L 300.143541 520.536555 
L 324.414963 507.561052 
L 348.686385 524.270779 
L 372.957808 542.578446 
L 397.22923 560.822897 
L 421.500652 569.900355 
L 445.772075 546.434558 
L 470.043497 529.159968 
L 494.31492 545.99774 
L 518.586342 540.673055 
L 542.857764 552.221193 
L 567.129187 548.931319 
L 591.400609 573.142767 
L 615.672031 589.329357 
L 639.943454 605.831651 
L 664.214876 615.6 
" style="fill:none;stroke:#2ca02c;stroke-linecap:square;stroke-opacity:0.2;stroke-width:1.5;"/>
   </g>
   <g id="line2d_49">
    <path clip-path="url(#p3ebe65e5e7)" d="M 203.057851 213.603444 
L 227.329274 384.554406 
L 251.600696 425.207328 
L 275.872118 460.211144 
L 300.143541 481.237841 
L 324.414963 487.358457 
L 348.686385 503.121954 
L 372.957808 496.805293 
L 397.22923 520.950859 
L 421.500652 510.104193 
L 445.772075 513.723493 
L 470.043497 524.235353 
L 494.31492 499.676163 
L 518.586342 511.031433 
L 542.857764 520.111118 
L 567.129187 517.157611 
L 591.400609 528.637112 
L 615.672031 532.647707 
L 639.943454 534.741072 
L 664.214876 547.296449 
" style="fill:none;stroke:#2ca02c;stroke-linecap:square;stroke-width:1.5;"/>
   </g>
   <g id="line2d_50">
    <path clip-path="url(#p3ebe65e5e7)" d="M 203.057851 295.641816 
L 227.329274 514.317043 
L 251.600696 512.800273 
L 275.872118 467.652373 
L 300.143541 494.064336 
L 324.414963 499.958474 
L 348.686385 525.804033 
L 372.957808 518.934974 
L 397.22923 520.50058 
L 421.500652 503.335693 
L 445.772075 503.802303 
L 470.043497 509.59167 
L 494.31492 509.024171 
L 518.586342 507.810016 
L 542.857764 501.160589 
L 567.129187 509.570398 
L 591.400609 507.567429 
L 615.672031 538.619302 
L 639.943454 568.133074 
L 664.214876 558.26806 
" style="fill:none;stroke:#d62728;stroke-linecap:square;stroke-opacity:0.2;stroke-width:1.5;"/>
   </g>
   <g id="line2d_51">
    <path clip-path="url(#p3ebe65e5e7)" d="M 203.057851 219.165877 
L 227.329274 313.993837 
L 251.600696 434.584555 
L 275.872118 452.066013 
L 300.143541 441.348737 
L 324.414963 438.624899 
L 348.686385 458.667782 
L 372.957808 463.843411 
L 397.22923 468.062058 
L 421.500652 475.923852 
L 445.772075 488.274931 
L 470.043497 488.962598 
L 494.31492 502.042551 
L 518.586342 504.466415 
L 542.857764 511.549674 
L 567.129187 515.701993 
L 591.400609 522.167843 
L 615.672031 521.146076 
L 639.943454 508.409679 
L 664.214876 518.391416 
" style="fill:none;stroke:#d62728;stroke-linecap:square;stroke-opacity:0.2;stroke-width:1.5;"/>
   </g>
   <g id="line2d_52">
    <path clip-path="url(#p3ebe65e5e7)" d="M 203.057851 285.719565 
L 227.329274 362.904288 
L 251.600696 397.398848 
L 275.872118 431.370061 
L 300.143541 504.244593 
L 324.414963 526.107776 
L 348.686385 516.342479 
L 372.957808 493.658592 
L 397.22923 501.481166 
L 421.500652 503.645307 
L 445.772075 505.013769 
L 470.043497 518.281506 
L 494.31492 520.987583 
L 518.586342 528.090726 
L 542.857764 542.126683 
L 567.129187 544.057597 
L 591.400609 540.201673 
L 615.672031 536.966738 
L 639.943454 540.428786 
L 664.214876 550.425923 
" style="fill:none;stroke:#d62728;stroke-linecap:square;stroke-opacity:0.2;stroke-width:1.5;"/>
   </g>
   <g id="line2d_53">
    <path clip-path="url(#p3ebe65e5e7)" d="M 203.057851 256.077156 
L 227.329274 388.120145 
L 251.600696 434.652807 
L 275.872118 447.852272 
L 300.143541 457.672369 
L 324.414963 473.25085 
L 348.686385 481.566145 
L 372.957808 489.535302 
L 397.22923 497.517742 
L 421.500652 513.23952 
L 445.772075 532.197725 
L 470.043497 545.066564 
L 494.31492 556.000029 
L 518.586342 560.921351 
L 542.857764 544.253288 
L 567.129187 546.785772 
L 591.400609 558.498094 
L 615.672031 553.562043 
L 639.943454 563.920004 
L 664.214876 568.540847 
" style="fill:none;stroke:#d62728;stroke-linecap:square;stroke-opacity:0.2;stroke-width:1.5;"/>
   </g>
   <g id="line2d_54">
    <path clip-path="url(#p3ebe65e5e7)" d="M 203.057851 258.885596 
L 227.329274 370.302907 
L 251.600696 435.955334 
L 275.872118 448.781419 
L 300.143541 470.561982 
L 324.414963 478.456194 
L 348.686385 491.411657 
L 372.957808 489.319716 
L 397.22923 494.826445 
L 421.500652 497.879819 
L 445.772075 505.943659 
L 470.043497 513.208748 
L 494.31492 519.71772 
L 518.586342 522.622805 
L 542.857764 522.752874 
L 567.129187 527.466197 
L 591.400609 530.047154 
L 615.672031 536.819999 
L 639.943454 541.862204 
L 664.214876 546.797058 
" style="fill:none;stroke:#d62728;stroke-linecap:square;stroke-width:1.5;"/>
   </g>
   <g id="patch_3">
    <path d="M 180 640.8 
L 180 86.4 
" style="fill:none;stroke:#000000;stroke-linecap:square;stroke-linejoin:miter;stroke-width:0.8;"/>
   </g>
   <g id="patch_4">
    <path d="M 687.272727 640.8 
L 687.272727 86.4 
" style="fill:none;stroke:#000000;stroke-linecap:square;stroke-linejoin:miter;stroke-width:0.8;"/>
   </g>
   <g id="patch_5">
    <path d="M 180 640.8 
L 687.272727 640.8 
" style="fill:none;stroke:#000000;stroke-linecap:square;stroke-linejoin:miter;stroke-width:0.8;"/>
   </g>
   <g id="patch_6">
    <path d="M 180 86.4 
L 687.272727 86.4 
" style="fill:none;stroke:#000000;stroke-linecap:square;stroke-linejoin:miter;stroke-width:0.8;"/>
   </g>
   <g id="text_12">
    <!-- Loss -->
    <defs>
     <path d="M 9.8125 72.90625 
L 19.671875 72.90625 
L 19.671875 8.296875 
L 55.171875 8.296875 
L 55.171875 0 
L 9.8125 0 
z
" id="DejaVuSans-76"/>
     <path d="M 30.609375 48.390625 
Q 23.390625 48.390625 19.1875 42.75 
Q 14.984375 37.109375 14.984375 27.296875 
Q 14.984375 17.484375 19.15625 11.84375 
Q 23.34375 6.203125 30.609375 6.203125 
Q 37.796875 6.203125 41.984375 11.859375 
Q 46.1875 17.53125 46.1875 27.296875 
Q 46.1875 37.015625 41.984375 42.703125 
Q 37.796875 48.390625 30.609375 48.390625 
z
M 30.609375 56 
Q 42.328125 56 49.015625 48.375 
Q 55.71875 40.765625 55.71875 27.296875 
Q 55.71875 13.875 49.015625 6.21875 
Q 42.328125 -1.421875 30.609375 -1.421875 
Q 18.84375 -1.421875 12.171875 6.21875 
Q 5.515625 13.875 5.515625 27.296875 
Q 5.515625 40.765625 12.171875 48.375 
Q 18.84375 56 30.609375 56 
z
" id="DejaVuSans-111"/>
     <path d="M 44.28125 53.078125 
L 44.28125 44.578125 
Q 40.484375 46.53125 36.375 47.5 
Q 32.28125 48.484375 27.875 48.484375 
Q 21.1875 48.484375 17.84375 46.4375 
Q 14.5 44.390625 14.5 40.28125 
Q 14.5 37.15625 16.890625 35.375 
Q 19.28125 33.59375 26.515625 31.984375 
L 29.59375 31.296875 
Q 39.15625 29.25 43.1875 25.515625 
Q 47.21875 21.78125 47.21875 15.09375 
Q 47.21875 7.46875 41.1875 3.015625 
Q 35.15625 -1.421875 24.609375 -1.421875 
Q 20.21875 -1.421875 15.453125 -0.5625 
Q 10.6875 0.296875 5.421875 2 
L 5.421875 11.28125 
Q 10.40625 8.6875 15.234375 7.390625 
Q 20.0625 6.109375 24.8125 6.109375 
Q 31.15625 6.109375 34.5625 8.28125 
Q 37.984375 10.453125 37.984375 14.40625 
Q 37.984375 18.0625 35.515625 20.015625 
Q 33.0625 21.96875 24.703125 23.78125 
L 21.578125 24.515625 
Q 13.234375 26.265625 9.515625 29.90625 
Q 5.8125 33.546875 5.8125 39.890625 
Q 5.8125 47.609375 11.28125 51.796875 
Q 16.75 56 26.8125 56 
Q 31.78125 56 36.171875 55.265625 
Q 40.578125 54.546875 44.28125 53.078125 
z
" id="DejaVuSans-115"/>
    </defs>
    <g transform="translate(420.371676 80.4)scale(0.12 -0.12)">
     <use xlink:href="#DejaVuSans-76"/>
     <use x="55.697266" xlink:href="#DejaVuSans-111"/>
     <use x="116.878906" xlink:href="#DejaVuSans-115"/>
     <use x="168.978516" xlink:href="#DejaVuSans-115"/>
    </g>
   </g>
   <g id="legend_1">
    <g id="patch_7">
     <path d="M 187 153.1125 
L 384.851562 153.1125 
Q 386.851562 153.1125 386.851562 151.1125 
L 386.851562 93.4 
Q 386.851562 91.4 384.851562 91.4 
L 187 91.4 
Q 185 91.4 185 93.4 
L 185 151.1125 
Q 185 153.1125 187 153.1125 
z
" style="fill:#ffffff;opacity:0.8;stroke:#cccccc;stroke-linejoin:miter;"/>
    </g>
    <g id="line2d_55">
     <path d="M 189 99.498437 
L 209 99.498437 
" style="fill:none;stroke:#1f77b4;stroke-linecap:square;stroke-width:1.5;"/>
    </g>
    <g id="line2d_56"/>
    <g id="text_13">
     <!-- TRandom(eps=0.2),lr=0.001 -->
     <defs>
      <path d="M -0.296875 72.90625 
L 61.375 72.90625 
L 61.375 64.59375 
L 35.5 64.59375 
L 35.5 0 
L 25.59375 0 
L 25.59375 64.59375 
L -0.296875 64.59375 
z
" id="DejaVuSans-84"/>
      <path d="M 44.390625 34.1875 
Q 47.5625 33.109375 50.5625 29.59375 
Q 53.5625 26.078125 56.59375 19.921875 
L 66.609375 0 
L 56 0 
L 46.6875 18.703125 
Q 43.0625 26.03125 39.671875 28.421875 
Q 36.28125 30.8125 30.421875 30.8125 
L 19.671875 30.8125 
L 19.671875 0 
L 9.8125 0 
L 9.8125 72.90625 
L 32.078125 72.90625 
Q 44.578125 72.90625 50.734375 67.671875 
Q 56.890625 62.453125 56.890625 51.90625 
Q 56.890625 45.015625 53.6875 40.46875 
Q 50.484375 35.9375 44.390625 34.1875 
z
M 19.671875 64.796875 
L 19.671875 38.921875 
L 32.078125 38.921875 
Q 39.203125 38.921875 42.84375 42.21875 
Q 46.484375 45.515625 46.484375 51.90625 
Q 46.484375 58.296875 42.84375 61.546875 
Q 39.203125 64.796875 32.078125 64.796875 
z
" id="DejaVuSans-82"/>
      <path d="M 34.28125 27.484375 
Q 23.390625 27.484375 19.1875 25 
Q 14.984375 22.515625 14.984375 16.5 
Q 14.984375 11.71875 18.140625 8.90625 
Q 21.296875 6.109375 26.703125 6.109375 
Q 34.1875 6.109375 38.703125 11.40625 
Q 43.21875 16.703125 43.21875 25.484375 
L 43.21875 27.484375 
z
M 52.203125 31.203125 
L 52.203125 0 
L 43.21875 0 
L 43.21875 8.296875 
Q 40.140625 3.328125 35.546875 0.953125 
Q 30.953125 -1.421875 24.3125 -1.421875 
Q 15.921875 -1.421875 10.953125 3.296875 
Q 6 8.015625 6 15.921875 
Q 6 25.140625 12.171875 29.828125 
Q 18.359375 34.515625 30.609375 34.515625 
L 43.21875 34.515625 
L 43.21875 35.40625 
Q 43.21875 41.609375 39.140625 45 
Q 35.0625 48.390625 27.6875 48.390625 
Q 23 48.390625 18.546875 47.265625 
Q 14.109375 46.140625 10.015625 43.890625 
L 10.015625 52.203125 
Q 14.9375 54.109375 19.578125 55.046875 
Q 24.21875 56 28.609375 56 
Q 40.484375 56 46.34375 49.84375 
Q 52.203125 43.703125 52.203125 31.203125 
z
" id="DejaVuSans-97"/>
      <path d="M 54.890625 33.015625 
L 54.890625 0 
L 45.90625 0 
L 45.90625 32.71875 
Q 45.90625 40.484375 42.875 44.328125 
Q 39.84375 48.1875 33.796875 48.1875 
Q 26.515625 48.1875 22.3125 43.546875 
Q 18.109375 38.921875 18.109375 30.90625 
L 18.109375 0 
L 9.078125 0 
L 9.078125 54.6875 
L 18.109375 54.6875 
L 18.109375 46.1875 
Q 21.34375 51.125 25.703125 53.5625 
Q 30.078125 56 35.796875 56 
Q 45.21875 56 50.046875 50.171875 
Q 54.890625 44.34375 54.890625 33.015625 
z
" id="DejaVuSans-110"/>
      <path d="M 45.40625 46.390625 
L 45.40625 75.984375 
L 54.390625 75.984375 
L 54.390625 0 
L 45.40625 0 
L 45.40625 8.203125 
Q 42.578125 3.328125 38.25 0.953125 
Q 33.9375 -1.421875 27.875 -1.421875 
Q 17.96875 -1.421875 11.734375 6.484375 
Q 5.515625 14.40625 5.515625 27.296875 
Q 5.515625 40.1875 11.734375 48.09375 
Q 17.96875 56 27.875 56 
Q 33.9375 56 38.25 53.625 
Q 42.578125 51.265625 45.40625 46.390625 
z
M 14.796875 27.296875 
Q 14.796875 17.390625 18.875 11.75 
Q 22.953125 6.109375 30.078125 6.109375 
Q 37.203125 6.109375 41.296875 11.75 
Q 45.40625 17.390625 45.40625 27.296875 
Q 45.40625 37.203125 41.296875 42.84375 
Q 37.203125 48.484375 30.078125 48.484375 
Q 22.953125 48.484375 18.875 42.84375 
Q 14.796875 37.203125 14.796875 27.296875 
z
" id="DejaVuSans-100"/>
      <path d="M 52 44.1875 
Q 55.375 50.25 60.0625 53.125 
Q 64.75 56 71.09375 56 
Q 79.640625 56 84.28125 50.015625 
Q 88.921875 44.046875 88.921875 33.015625 
L 88.921875 0 
L 79.890625 0 
L 79.890625 32.71875 
Q 79.890625 40.578125 77.09375 44.375 
Q 74.3125 48.1875 68.609375 48.1875 
Q 61.625 48.1875 57.5625 43.546875 
Q 53.515625 38.921875 53.515625 30.90625 
L 53.515625 0 
L 44.484375 0 
L 44.484375 32.71875 
Q 44.484375 40.625 41.703125 44.40625 
Q 38.921875 48.1875 33.109375 48.1875 
Q 26.21875 48.1875 22.15625 43.53125 
Q 18.109375 38.875 18.109375 30.90625 
L 18.109375 0 
L 9.078125 0 
L 9.078125 54.6875 
L 18.109375 54.6875 
L 18.109375 46.1875 
Q 21.1875 51.21875 25.484375 53.609375 
Q 29.78125 56 35.6875 56 
Q 41.65625 56 45.828125 52.96875 
Q 50 49.953125 52 44.1875 
z
" id="DejaVuSans-109"/>
      <path d="M 31 75.875 
Q 24.46875 64.65625 21.28125 53.65625 
Q 18.109375 42.671875 18.109375 31.390625 
Q 18.109375 20.125 21.3125 9.0625 
Q 24.515625 -2 31 -13.1875 
L 23.1875 -13.1875 
Q 15.875 -1.703125 12.234375 9.375 
Q 8.59375 20.453125 8.59375 31.390625 
Q 8.59375 42.28125 12.203125 53.3125 
Q 15.828125 64.359375 23.1875 75.875 
z
" id="DejaVuSans-40"/>
      <path d="M 56.203125 29.59375 
L 56.203125 25.203125 
L 14.890625 25.203125 
Q 15.484375 15.921875 20.484375 11.0625 
Q 25.484375 6.203125 34.421875 6.203125 
Q 39.59375 6.203125 44.453125 7.46875 
Q 49.3125 8.734375 54.109375 11.28125 
L 54.109375 2.78125 
Q 49.265625 0.734375 44.1875 -0.34375 
Q 39.109375 -1.421875 33.890625 -1.421875 
Q 20.796875 -1.421875 13.15625 6.1875 
Q 5.515625 13.8125 5.515625 26.8125 
Q 5.515625 40.234375 12.765625 48.109375 
Q 20.015625 56 32.328125 56 
Q 43.359375 56 49.78125 48.890625 
Q 56.203125 41.796875 56.203125 29.59375 
z
M 47.21875 32.234375 
Q 47.125 39.59375 43.09375 43.984375 
Q 39.0625 48.390625 32.421875 48.390625 
Q 24.90625 48.390625 20.390625 44.140625 
Q 15.875 39.890625 15.1875 32.171875 
z
" id="DejaVuSans-101"/>
      <path d="M 18.109375 8.203125 
L 18.109375 -20.796875 
L 9.078125 -20.796875 
L 9.078125 54.6875 
L 18.109375 54.6875 
L 18.109375 46.390625 
Q 20.953125 51.265625 25.265625 53.625 
Q 29.59375 56 35.59375 56 
Q 45.5625 56 51.78125 48.09375 
Q 58.015625 40.1875 58.015625 27.296875 
Q 58.015625 14.40625 51.78125 6.484375 
Q 45.5625 -1.421875 35.59375 -1.421875 
Q 29.59375 -1.421875 25.265625 0.953125 
Q 20.953125 3.328125 18.109375 8.203125 
z
M 48.6875 27.296875 
Q 48.6875 37.203125 44.609375 42.84375 
Q 40.53125 48.484375 33.40625 48.484375 
Q 26.265625 48.484375 22.1875 42.84375 
Q 18.109375 37.203125 18.109375 27.296875 
Q 18.109375 17.390625 22.1875 11.75 
Q 26.265625 6.109375 33.40625 6.109375 
Q 40.53125 6.109375 44.609375 11.75 
Q 48.6875 17.390625 48.6875 27.296875 
z
" id="DejaVuSans-112"/>
      <path d="M 10.59375 45.40625 
L 73.1875 45.40625 
L 73.1875 37.203125 
L 10.59375 37.203125 
z
M 10.59375 25.484375 
L 73.1875 25.484375 
L 73.1875 17.1875 
L 10.59375 17.1875 
z
" id="DejaVuSans-61"/>
      <path d="M 8.015625 75.875 
L 15.828125 75.875 
Q 23.140625 64.359375 26.78125 53.3125 
Q 30.421875 42.28125 30.421875 31.390625 
Q 30.421875 20.453125 26.78125 9.375 
Q 23.140625 -1.703125 15.828125 -13.1875 
L 8.015625 -13.1875 
Q 14.5 -2 17.703125 9.0625 
Q 20.90625 20.125 20.90625 31.390625 
Q 20.90625 42.671875 17.703125 53.65625 
Q 14.5 64.65625 8.015625 75.875 
z
" id="DejaVuSans-41"/>
      <path d="M 11.71875 12.40625 
L 22.015625 12.40625 
L 22.015625 4 
L 14.015625 -11.625 
L 7.71875 -11.625 
L 11.71875 4 
z
" id="DejaVuSans-44"/>
      <path d="M 9.421875 75.984375 
L 18.40625 75.984375 
L 18.40625 0 
L 9.421875 0 
z
" id="DejaVuSans-108"/>
      <path d="M 41.109375 46.296875 
Q 39.59375 47.171875 37.8125 47.578125 
Q 36.03125 48 33.890625 48 
Q 26.265625 48 22.1875 43.046875 
Q 18.109375 38.09375 18.109375 28.8125 
L 18.109375 0 
L 9.078125 0 
L 9.078125 54.6875 
L 18.109375 54.6875 
L 18.109375 46.1875 
Q 20.953125 51.171875 25.484375 53.578125 
Q 30.03125 56 36.53125 56 
Q 37.453125 56 38.578125 55.875 
Q 39.703125 55.765625 41.0625 55.515625 
z
" id="DejaVuSans-114"/>
     </defs>
     <g transform="translate(217 102.998437)scale(0.1 -0.1)">
      <use xlink:href="#DejaVuSans-84"/>
      <use x="61.083984" xlink:href="#DejaVuSans-82"/>
      <use x="130.535156" xlink:href="#DejaVuSans-97"/>
      <use x="191.814453" xlink:href="#DejaVuSans-110"/>
      <use x="255.193359" xlink:href="#DejaVuSans-100"/>
      <use x="318.669922" xlink:href="#DejaVuSans-111"/>
      <use x="379.851562" xlink:href="#DejaVuSans-109"/>
      <use x="477.263672" xlink:href="#DejaVuSans-40"/>
      <use x="516.277344" xlink:href="#DejaVuSans-101"/>
      <use x="577.800781" xlink:href="#DejaVuSans-112"/>
      <use x="641.277344" xlink:href="#DejaVuSans-115"/>
      <use x="693.376953" xlink:href="#DejaVuSans-61"/>
      <use x="777.166016" xlink:href="#DejaVuSans-48"/>
      <use x="840.789062" xlink:href="#DejaVuSans-46"/>
      <use x="872.576172" xlink:href="#DejaVuSans-50"/>
      <use x="936.199219" xlink:href="#DejaVuSans-41"/>
      <use x="975.212891" xlink:href="#DejaVuSans-44"/>
      <use x="1007" xlink:href="#DejaVuSans-108"/>
      <use x="1034.783203" xlink:href="#DejaVuSans-114"/>
      <use x="1075.896484" xlink:href="#DejaVuSans-61"/>
      <use x="1159.685547" xlink:href="#DejaVuSans-48"/>
      <use x="1223.308594" xlink:href="#DejaVuSans-46"/>
      <use x="1255.095703" xlink:href="#DejaVuSans-48"/>
      <use x="1318.71875" xlink:href="#DejaVuSans-48"/>
      <use x="1382.341797" xlink:href="#DejaVuSans-49"/>
     </g>
    </g>
    <g id="line2d_57">
     <path d="M 189 114.176562 
L 209 114.176562 
" style="fill:none;stroke:#ff7f0e;stroke-linecap:square;stroke-width:1.5;"/>
    </g>
    <g id="line2d_58"/>
    <g id="text_14">
     <!-- TRandom(eps=0.05),lr=0.001 -->
     <g transform="translate(217 117.676562)scale(0.1 -0.1)">
      <use xlink:href="#DejaVuSans-84"/>
      <use x="61.083984" xlink:href="#DejaVuSans-82"/>
      <use x="130.535156" xlink:href="#DejaVuSans-97"/>
      <use x="191.814453" xlink:href="#DejaVuSans-110"/>
      <use x="255.193359" xlink:href="#DejaVuSans-100"/>
      <use x="318.669922" xlink:href="#DejaVuSans-111"/>
      <use x="379.851562" xlink:href="#DejaVuSans-109"/>
      <use x="477.263672" xlink:href="#DejaVuSans-40"/>
      <use x="516.277344" xlink:href="#DejaVuSans-101"/>
      <use x="577.800781" xlink:href="#DejaVuSans-112"/>
      <use x="641.277344" xlink:href="#DejaVuSans-115"/>
      <use x="693.376953" xlink:href="#DejaVuSans-61"/>
      <use x="777.166016" xlink:href="#DejaVuSans-48"/>
      <use x="840.789062" xlink:href="#DejaVuSans-46"/>
      <use x="872.576172" xlink:href="#DejaVuSans-48"/>
      <use x="936.199219" xlink:href="#DejaVuSans-53"/>
      <use x="999.822266" xlink:href="#DejaVuSans-41"/>
      <use x="1038.835938" xlink:href="#DejaVuSans-44"/>
      <use x="1070.623047" xlink:href="#DejaVuSans-108"/>
      <use x="1098.40625" xlink:href="#DejaVuSans-114"/>
      <use x="1139.519531" xlink:href="#DejaVuSans-61"/>
      <use x="1223.308594" xlink:href="#DejaVuSans-48"/>
      <use x="1286.931641" xlink:href="#DejaVuSans-46"/>
      <use x="1318.71875" xlink:href="#DejaVuSans-48"/>
      <use x="1382.341797" xlink:href="#DejaVuSans-48"/>
      <use x="1445.964844" xlink:href="#DejaVuSans-49"/>
     </g>
    </g>
    <g id="line2d_59">
     <path d="M 189 128.854687 
L 209 128.854687 
" style="fill:none;stroke:#2ca02c;stroke-linecap:square;stroke-width:1.5;"/>
    </g>
    <g id="line2d_60"/>
    <g id="text_15">
     <!-- SingleFrame(eps=0.05),lr=0.001 -->
     <defs>
      <path d="M 53.515625 70.515625 
L 53.515625 60.890625 
Q 47.90625 63.578125 42.921875 64.890625 
Q 37.9375 66.21875 33.296875 66.21875 
Q 25.25 66.21875 20.875 63.09375 
Q 16.5 59.96875 16.5 54.203125 
Q 16.5 49.359375 19.40625 46.890625 
Q 22.3125 44.4375 30.421875 42.921875 
L 36.375 41.703125 
Q 47.40625 39.59375 52.65625 34.296875 
Q 57.90625 29 57.90625 20.125 
Q 57.90625 9.515625 50.796875 4.046875 
Q 43.703125 -1.421875 29.984375 -1.421875 
Q 24.8125 -1.421875 18.96875 -0.25 
Q 13.140625 0.921875 6.890625 3.21875 
L 6.890625 13.375 
Q 12.890625 10.015625 18.65625 8.296875 
Q 24.421875 6.59375 29.984375 6.59375 
Q 38.421875 6.59375 43.015625 9.90625 
Q 47.609375 13.234375 47.609375 19.390625 
Q 47.609375 24.75 44.3125 27.78125 
Q 41.015625 30.8125 33.5 32.328125 
L 27.484375 33.5 
Q 16.453125 35.6875 11.515625 40.375 
Q 6.59375 45.0625 6.59375 53.421875 
Q 6.59375 63.09375 13.40625 68.65625 
Q 20.21875 74.21875 32.171875 74.21875 
Q 37.3125 74.21875 42.625 73.28125 
Q 47.953125 72.359375 53.515625 70.515625 
z
" id="DejaVuSans-83"/>
      <path d="M 9.421875 54.6875 
L 18.40625 54.6875 
L 18.40625 0 
L 9.421875 0 
z
M 9.421875 75.984375 
L 18.40625 75.984375 
L 18.40625 64.59375 
L 9.421875 64.59375 
z
" id="DejaVuSans-105"/>
      <path d="M 45.40625 27.984375 
Q 45.40625 37.75 41.375 43.109375 
Q 37.359375 48.484375 30.078125 48.484375 
Q 22.859375 48.484375 18.828125 43.109375 
Q 14.796875 37.75 14.796875 27.984375 
Q 14.796875 18.265625 18.828125 12.890625 
Q 22.859375 7.515625 30.078125 7.515625 
Q 37.359375 7.515625 41.375 12.890625 
Q 45.40625 18.265625 45.40625 27.984375 
z
M 54.390625 6.78125 
Q 54.390625 -7.171875 48.1875 -13.984375 
Q 42 -20.796875 29.203125 -20.796875 
Q 24.46875 -20.796875 20.265625 -20.09375 
Q 16.0625 -19.390625 12.109375 -17.921875 
L 12.109375 -9.1875 
Q 16.0625 -11.328125 19.921875 -12.34375 
Q 23.78125 -13.375 27.78125 -13.375 
Q 36.625 -13.375 41.015625 -8.765625 
Q 45.40625 -4.15625 45.40625 5.171875 
L 45.40625 9.625 
Q 42.625 4.78125 38.28125 2.390625 
Q 33.9375 0 27.875 0 
Q 17.828125 0 11.671875 7.65625 
Q 5.515625 15.328125 5.515625 27.984375 
Q 5.515625 40.671875 11.671875 48.328125 
Q 17.828125 56 27.875 56 
Q 33.9375 56 38.28125 53.609375 
Q 42.625 51.21875 45.40625 46.390625 
L 45.40625 54.6875 
L 54.390625 54.6875 
z
" id="DejaVuSans-103"/>
      <path d="M 9.8125 72.90625 
L 51.703125 72.90625 
L 51.703125 64.59375 
L 19.671875 64.59375 
L 19.671875 43.109375 
L 48.578125 43.109375 
L 48.578125 34.8125 
L 19.671875 34.8125 
L 19.671875 0 
L 9.8125 0 
z
" id="DejaVuSans-70"/>
     </defs>
     <g transform="translate(217 132.354687)scale(0.1 -0.1)">
      <use xlink:href="#DejaVuSans-83"/>
      <use x="63.476562" xlink:href="#DejaVuSans-105"/>
      <use x="91.259766" xlink:href="#DejaVuSans-110"/>
      <use x="154.638672" xlink:href="#DejaVuSans-103"/>
      <use x="218.115234" xlink:href="#DejaVuSans-108"/>
      <use x="245.898438" xlink:href="#DejaVuSans-101"/>
      <use x="307.421875" xlink:href="#DejaVuSans-70"/>
      <use x="364.832031" xlink:href="#DejaVuSans-114"/>
      <use x="405.945312" xlink:href="#DejaVuSans-97"/>
      <use x="467.224609" xlink:href="#DejaVuSans-109"/>
      <use x="564.636719" xlink:href="#DejaVuSans-101"/>
      <use x="626.160156" xlink:href="#DejaVuSans-40"/>
      <use x="665.173828" xlink:href="#DejaVuSans-101"/>
      <use x="726.697266" xlink:href="#DejaVuSans-112"/>
      <use x="790.173828" xlink:href="#DejaVuSans-115"/>
      <use x="842.273438" xlink:href="#DejaVuSans-61"/>
      <use x="926.0625" xlink:href="#DejaVuSans-48"/>
      <use x="989.685547" xlink:href="#DejaVuSans-46"/>
      <use x="1021.472656" xlink:href="#DejaVuSans-48"/>
      <use x="1085.095703" xlink:href="#DejaVuSans-53"/>
      <use x="1148.71875" xlink:href="#DejaVuSans-41"/>
      <use x="1187.732422" xlink:href="#DejaVuSans-44"/>
      <use x="1219.519531" xlink:href="#DejaVuSans-108"/>
      <use x="1247.302734" xlink:href="#DejaVuSans-114"/>
      <use x="1288.416016" xlink:href="#DejaVuSans-61"/>
      <use x="1372.205078" xlink:href="#DejaVuSans-48"/>
      <use x="1435.828125" xlink:href="#DejaVuSans-46"/>
      <use x="1467.615234" xlink:href="#DejaVuSans-48"/>
      <use x="1531.238281" xlink:href="#DejaVuSans-48"/>
      <use x="1594.861328" xlink:href="#DejaVuSans-49"/>
     </g>
    </g>
    <g id="line2d_61">
     <path d="M 189 143.532812 
L 209 143.532812 
" style="fill:none;stroke:#d62728;stroke-linecap:square;stroke-width:1.5;"/>
    </g>
    <g id="line2d_62"/>
    <g id="text_16">
     <!-- SingleFrame(eps=0.2),lr=0.001 -->
     <g transform="translate(217 147.032812)scale(0.1 -0.1)">
      <use xlink:href="#DejaVuSans-83"/>
      <use x="63.476562" xlink:href="#DejaVuSans-105"/>
      <use x="91.259766" xlink:href="#DejaVuSans-110"/>
      <use x="154.638672" xlink:href="#DejaVuSans-103"/>
      <use x="218.115234" xlink:href="#DejaVuSans-108"/>
      <use x="245.898438" xlink:href="#DejaVuSans-101"/>
      <use x="307.421875" xlink:href="#DejaVuSans-70"/>
      <use x="364.832031" xlink:href="#DejaVuSans-114"/>
      <use x="405.945312" xlink:href="#DejaVuSans-97"/>
      <use x="467.224609" xlink:href="#DejaVuSans-109"/>
      <use x="564.636719" xlink:href="#DejaVuSans-101"/>
      <use x="626.160156" xlink:href="#DejaVuSans-40"/>
      <use x="665.173828" xlink:href="#DejaVuSans-101"/>
      <use x="726.697266" xlink:href="#DejaVuSans-112"/>
      <use x="790.173828" xlink:href="#DejaVuSans-115"/>
      <use x="842.273438" xlink:href="#DejaVuSans-61"/>
      <use x="926.0625" xlink:href="#DejaVuSans-48"/>
      <use x="989.685547" xlink:href="#DejaVuSans-46"/>
      <use x="1021.472656" xlink:href="#DejaVuSans-50"/>
      <use x="1085.095703" xlink:href="#DejaVuSans-41"/>
      <use x="1124.109375" xlink:href="#DejaVuSans-44"/>
      <use x="1155.896484" xlink:href="#DejaVuSans-108"/>
      <use x="1183.679688" xlink:href="#DejaVuSans-114"/>
      <use x="1224.792969" xlink:href="#DejaVuSans-61"/>
      <use x="1308.582031" xlink:href="#DejaVuSans-48"/>
      <use x="1372.205078" xlink:href="#DejaVuSans-46"/>
      <use x="1403.992188" xlink:href="#DejaVuSans-48"/>
      <use x="1467.615234" xlink:href="#DejaVuSans-48"/>
      <use x="1531.238281" xlink:href="#DejaVuSans-49"/>
     </g>
    </g>
   </g>
  </g>
  <g id="axes_2">
   <g id="patch_8">
    <path d="M 788.727273 640.8 
L 1296 640.8 
L 1296 86.4 
L 788.727273 86.4 
z
" style="fill:#ffffff;"/>
   </g>
   <g id="matplotlib.axis_3">
    <g id="xtick_9">
     <g id="line2d_63">
      <g>
       <use style="stroke:#000000;stroke-width:0.8;" x="811.785124" xlink:href="#mc6f60e23ac" y="640.8"/>
      </g>
     </g>
     <g id="text_17">
      <!-- 0.0 -->
      <g transform="translate(803.833561 655.398438)scale(0.1 -0.1)">
       <use xlink:href="#DejaVuSans-48"/>
       <use x="63.623047" xlink:href="#DejaVuSans-46"/>
       <use x="95.410156" xlink:href="#DejaVuSans-48"/>
      </g>
     </g>
    </g>
    <g id="xtick_10">
     <g id="line2d_64">
      <g>
       <use style="stroke:#000000;stroke-width:0.8;" x="872.46368" xlink:href="#mc6f60e23ac" y="640.8"/>
      </g>
     </g>
     <g id="text_18">
      <!-- 2.5 -->
      <g transform="translate(864.512117 655.398438)scale(0.1 -0.1)">
       <use xlink:href="#DejaVuSans-50"/>
       <use x="63.623047" xlink:href="#DejaVuSans-46"/>
       <use x="95.410156" xlink:href="#DejaVuSans-53"/>
      </g>
     </g>
    </g>
    <g id="xtick_11">
     <g id="line2d_65">
      <g>
       <use style="stroke:#000000;stroke-width:0.8;" x="933.142236" xlink:href="#mc6f60e23ac" y="640.8"/>
      </g>
     </g>
     <g id="text_19">
      <!-- 5.0 -->
      <g transform="translate(925.190673 655.398438)scale(0.1 -0.1)">
       <use xlink:href="#DejaVuSans-53"/>
       <use x="63.623047" xlink:href="#DejaVuSans-46"/>
       <use x="95.410156" xlink:href="#DejaVuSans-48"/>
      </g>
     </g>
    </g>
    <g id="xtick_12">
     <g id="line2d_66">
      <g>
       <use style="stroke:#000000;stroke-width:0.8;" x="993.820792" xlink:href="#mc6f60e23ac" y="640.8"/>
      </g>
     </g>
     <g id="text_20">
      <!-- 7.5 -->
      <g transform="translate(985.869229 655.398438)scale(0.1 -0.1)">
       <use xlink:href="#DejaVuSans-55"/>
       <use x="63.623047" xlink:href="#DejaVuSans-46"/>
       <use x="95.410156" xlink:href="#DejaVuSans-53"/>
      </g>
     </g>
    </g>
    <g id="xtick_13">
     <g id="line2d_67">
      <g>
       <use style="stroke:#000000;stroke-width:0.8;" x="1054.499348" xlink:href="#mc6f60e23ac" y="640.8"/>
      </g>
     </g>
     <g id="text_21">
      <!-- 10.0 -->
      <g transform="translate(1043.366535 655.398438)scale(0.1 -0.1)">
       <use xlink:href="#DejaVuSans-49"/>
       <use x="63.623047" xlink:href="#DejaVuSans-48"/>
       <use x="127.246094" xlink:href="#DejaVuSans-46"/>
       <use x="159.033203" xlink:href="#DejaVuSans-48"/>
      </g>
     </g>
    </g>
    <g id="xtick_14">
     <g id="line2d_68">
      <g>
       <use style="stroke:#000000;stroke-width:0.8;" x="1115.177903" xlink:href="#mc6f60e23ac" y="640.8"/>
      </g>
     </g>
     <g id="text_22">
      <!-- 12.5 -->
      <g transform="translate(1104.045091 655.398438)scale(0.1 -0.1)">
       <use xlink:href="#DejaVuSans-49"/>
       <use x="63.623047" xlink:href="#DejaVuSans-50"/>
       <use x="127.246094" xlink:href="#DejaVuSans-46"/>
       <use x="159.033203" xlink:href="#DejaVuSans-53"/>
      </g>
     </g>
    </g>
    <g id="xtick_15">
     <g id="line2d_69">
      <g>
       <use style="stroke:#000000;stroke-width:0.8;" x="1175.856459" xlink:href="#mc6f60e23ac" y="640.8"/>
      </g>
     </g>
     <g id="text_23">
      <!-- 15.0 -->
      <g transform="translate(1164.723647 655.398438)scale(0.1 -0.1)">
       <use xlink:href="#DejaVuSans-49"/>
       <use x="63.623047" xlink:href="#DejaVuSans-53"/>
       <use x="127.246094" xlink:href="#DejaVuSans-46"/>
       <use x="159.033203" xlink:href="#DejaVuSans-48"/>
      </g>
     </g>
    </g>
    <g id="xtick_16">
     <g id="line2d_70">
      <g>
       <use style="stroke:#000000;stroke-width:0.8;" x="1236.535015" xlink:href="#mc6f60e23ac" y="640.8"/>
      </g>
     </g>
     <g id="text_24">
      <!-- 17.5 -->
      <g transform="translate(1225.402203 655.398438)scale(0.1 -0.1)">
       <use xlink:href="#DejaVuSans-49"/>
       <use x="63.623047" xlink:href="#DejaVuSans-55"/>
       <use x="127.246094" xlink:href="#DejaVuSans-46"/>
       <use x="159.033203" xlink:href="#DejaVuSans-53"/>
      </g>
     </g>
    </g>
   </g>
   <g id="matplotlib.axis_4">
    <g id="ytick_27">
     <g id="line2d_71">
      <g>
       <use style="stroke:#000000;stroke-width:0.8;" x="788.727273" xlink:href="#m8a7b723d91" y="606.132593"/>
      </g>
     </g>
     <g id="text_25">
      <!-- 0 -->
      <g transform="translate(775.364773 609.931812)scale(0.1 -0.1)">
       <use xlink:href="#DejaVuSans-48"/>
      </g>
     </g>
    </g>
    <g id="ytick_28">
     <g id="line2d_72">
      <g>
       <use style="stroke:#000000;stroke-width:0.8;" x="788.727273" xlink:href="#m8a7b723d91" y="483.972506"/>
      </g>
     </g>
     <g id="text_26">
      <!-- 100 -->
      <g transform="translate(762.639773 487.771725)scale(0.1 -0.1)">
       <use xlink:href="#DejaVuSans-49"/>
       <use x="63.623047" xlink:href="#DejaVuSans-48"/>
       <use x="127.246094" xlink:href="#DejaVuSans-48"/>
      </g>
     </g>
    </g>
    <g id="ytick_29">
     <g id="line2d_73">
      <g>
       <use style="stroke:#000000;stroke-width:0.8;" x="788.727273" xlink:href="#m8a7b723d91" y="361.812419"/>
      </g>
     </g>
     <g id="text_27">
      <!-- 200 -->
      <g transform="translate(762.639773 365.611638)scale(0.1 -0.1)">
       <use xlink:href="#DejaVuSans-50"/>
       <use x="63.623047" xlink:href="#DejaVuSans-48"/>
       <use x="127.246094" xlink:href="#DejaVuSans-48"/>
      </g>
     </g>
    </g>
    <g id="ytick_30">
     <g id="line2d_74">
      <g>
       <use style="stroke:#000000;stroke-width:0.8;" x="788.727273" xlink:href="#m8a7b723d91" y="239.652332"/>
      </g>
     </g>
     <g id="text_28">
      <!-- 300 -->
      <defs>
       <path d="M 40.578125 39.3125 
Q 47.65625 37.796875 51.625 33 
Q 55.609375 28.21875 55.609375 21.1875 
Q 55.609375 10.40625 48.1875 4.484375 
Q 40.765625 -1.421875 27.09375 -1.421875 
Q 22.515625 -1.421875 17.65625 -0.515625 
Q 12.796875 0.390625 7.625 2.203125 
L 7.625 11.71875 
Q 11.71875 9.328125 16.59375 8.109375 
Q 21.484375 6.890625 26.8125 6.890625 
Q 36.078125 6.890625 40.9375 10.546875 
Q 45.796875 14.203125 45.796875 21.1875 
Q 45.796875 27.640625 41.28125 31.265625 
Q 36.765625 34.90625 28.71875 34.90625 
L 20.21875 34.90625 
L 20.21875 43.015625 
L 29.109375 43.015625 
Q 36.375 43.015625 40.234375 45.921875 
Q 44.09375 48.828125 44.09375 54.296875 
Q 44.09375 59.90625 40.109375 62.90625 
Q 36.140625 65.921875 28.71875 65.921875 
Q 24.65625 65.921875 20.015625 65.03125 
Q 15.375 64.15625 9.8125 62.3125 
L 9.8125 71.09375 
Q 15.4375 72.65625 20.34375 73.4375 
Q 25.25 74.21875 29.59375 74.21875 
Q 40.828125 74.21875 47.359375 69.109375 
Q 53.90625 64.015625 53.90625 55.328125 
Q 53.90625 49.265625 50.4375 45.09375 
Q 46.96875 40.921875 40.578125 39.3125 
z
" id="DejaVuSans-51"/>
      </defs>
      <g transform="translate(762.639773 243.451551)scale(0.1 -0.1)">
       <use xlink:href="#DejaVuSans-51"/>
       <use x="63.623047" xlink:href="#DejaVuSans-48"/>
       <use x="127.246094" xlink:href="#DejaVuSans-48"/>
      </g>
     </g>
    </g>
    <g id="ytick_31">
     <g id="line2d_75">
      <g>
       <use style="stroke:#000000;stroke-width:0.8;" x="788.727273" xlink:href="#m8a7b723d91" y="117.492245"/>
      </g>
     </g>
     <g id="text_29">
      <!-- 400 -->
      <defs>
       <path d="M 37.796875 64.3125 
L 12.890625 25.390625 
L 37.796875 25.390625 
z
M 35.203125 72.90625 
L 47.609375 72.90625 
L 47.609375 25.390625 
L 58.015625 25.390625 
L 58.015625 17.1875 
L 47.609375 17.1875 
L 47.609375 0 
L 37.796875 0 
L 37.796875 17.1875 
L 4.890625 17.1875 
L 4.890625 26.703125 
z
" id="DejaVuSans-52"/>
      </defs>
      <g transform="translate(762.639773 121.291464)scale(0.1 -0.1)">
       <use xlink:href="#DejaVuSans-52"/>
       <use x="63.623047" xlink:href="#DejaVuSans-48"/>
       <use x="127.246094" xlink:href="#DejaVuSans-48"/>
      </g>
     </g>
    </g>
   </g>
   <g id="line2d_76">
    <path clip-path="url(#pd25baa5e9b)" d="M 811.785124 600.234582 
L 836.056546 570.836342 
L 860.327969 537.693333 
L 884.599391 538.978897 
L 908.870813 526.707647 
L 933.142236 536.742756 
L 957.413658 537.530445 
L 981.68508 534.399579 
L 1005.956503 538.775793 
L 1030.227925 540.81445 
L 1054.499348 541.037416 
L 1078.77077 530.693364 
L 1103.042192 533.501165 
L 1127.313615 479.21205 
L 1151.585037 465.468747 
L 1175.856459 459.106259 
L 1200.127882 437.074736 
L 1224.399304 402.394342 
L 1248.670726 419.375694 
L 1272.942149 417.561397 
" style="fill:none;stroke:#1f77b4;stroke-linecap:square;stroke-opacity:0.2;stroke-width:1.5;"/>
   </g>
   <g id="line2d_77">
    <path clip-path="url(#pd25baa5e9b)" d="M 811.785124 601.008491 
L 836.056546 562.970869 
L 860.327969 557.567582 
L 884.599391 558.981194 
L 908.870813 549.669199 
L 933.142236 541.439006 
L 957.413658 537.893016 
L 981.68508 538.74281 
L 1005.956503 538.920675 
L 1030.227925 518.276134 
L 1054.499348 448.954145 
L 1078.77077 467.361764 
L 1103.042192 442.524664 
L 1127.313615 435.160341 
L 1151.585037 457.593159 
L 1175.856459 444.062024 
L 1200.127882 444.057895 
L 1224.399304 452.3263 
L 1248.670726 459.138607 
L 1272.942149 459.331937 
" style="fill:none;stroke:#1f77b4;stroke-linecap:square;stroke-opacity:0.2;stroke-width:1.5;"/>
   </g>
   <g id="line2d_78">
    <path clip-path="url(#pd25baa5e9b)" d="M 811.785124 579.456275 
L 836.056546 517.12866 
L 860.327969 502.861607 
L 884.599391 497.629857 
L 908.870813 525.775688 
L 933.142236 538.426587 
L 957.413658 540.147822 
L 981.68508 539.828984 
L 1005.956503 539.920604 
L 1030.227925 539.953588 
L 1054.499348 540.09285 
L 1078.77077 540.180879 
L 1103.042192 540.27675 
L 1127.313615 540.292362 
L 1151.585037 540.226176 
L 1175.856459 540.310613 
L 1200.127882 540.320508 
L 1224.399304 540.221338 
L 1248.670726 540.228008 
L 1272.942149 540.205946 
" style="fill:none;stroke:#1f77b4;stroke-linecap:square;stroke-opacity:0.2;stroke-width:1.5;"/>
   </g>
   <g id="line2d_79">
    <path clip-path="url(#pd25baa5e9b)" d="M 811.785124 587.241977 
L 836.056546 551.420193 
L 860.327969 546.198216 
L 884.599391 539.83563 
L 908.870813 535.527093 
L 933.142236 472.255937 
L 957.413658 462.371549 
L 981.68508 444.560779 
L 1005.956503 505.460026 
L 1030.227925 455.329924 
L 1054.499348 439.069341 
L 1078.77077 404.89535 
L 1103.042192 407.861397 
L 1127.313615 421.557009 
L 1151.585037 466.387977 
L 1175.856459 476.315903 
L 1200.127882 503.734344 
L 1224.399304 497.601541 
L 1248.670726 462.922662 
L 1272.942149 422.282078 
" style="fill:none;stroke:#1f77b4;stroke-linecap:square;stroke-opacity:0.2;stroke-width:1.5;"/>
   </g>
   <g id="line2d_80">
    <path clip-path="url(#pd25baa5e9b)" d="M 811.785124 591.985331 
L 836.056546 550.589016 
L 860.327969 536.080185 
L 884.599391 533.856395 
L 908.870813 534.419907 
L 933.142236 522.216071 
L 957.413658 519.485708 
L 981.68508 514.383038 
L 1005.956503 530.769275 
L 1030.227925 513.593524 
L 1054.499348 492.288438 
L 1078.77077 485.782839 
L 1103.042192 481.040994 
L 1127.313615 469.05544 
L 1151.585037 482.419015 
L 1175.856459 479.9487 
L 1200.127882 481.296871 
L 1224.399304 473.13588 
L 1248.670726 470.416243 
L 1272.942149 459.845339 
" style="fill:none;stroke:#1f77b4;stroke-linecap:square;stroke-width:1.5;"/>
   </g>
   <g id="line2d_81">
    <path clip-path="url(#pd25baa5e9b)" d="M 811.785124 599.548653 
L 836.056546 541.614061 
L 860.327969 545.335888 
L 884.599391 548.091062 
L 908.870813 540.760015 
L 933.142236 542.076608 
L 957.413658 540.3961 
L 981.68508 539.956788 
L 1005.956503 542.516751 
L 1030.227925 542.92435 
L 1054.499348 542.059017 
L 1078.77077 538.773399 
L 1103.042192 541.335511 
L 1127.313615 541.445749 
L 1151.585037 541.334119 
L 1175.856459 541.146261 
L 1200.127882 541.315502 
L 1224.399304 541.082347 
L 1248.670726 541.268006 
L 1272.942149 540.875896 
" style="fill:none;stroke:#ff7f0e;stroke-linecap:square;stroke-opacity:0.2;stroke-width:1.5;"/>
   </g>
   <g id="line2d_82">
    <path clip-path="url(#pd25baa5e9b)" d="M 811.785124 551.313303 
L 836.056546 549.165289 
L 860.327969 548.62842 
L 884.599391 471.307681 
L 908.870813 489.702938 
L 933.142236 477.730419 
L 957.413658 468.649551 
L 981.68508 471.430428 
L 1005.956503 466.722329 
L 1030.227925 400.555491 
L 1054.499348 276.326427 
L 1078.77077 290.864724 
L 1103.042192 281.793873 
L 1127.313615 278.499558 
L 1151.585037 225.172013 
L 1175.856459 263.917112 
L 1200.127882 307.96479 
L 1224.399304 319.561203 
L 1248.670726 286.425548 
L 1272.942149 235.342256 
" style="fill:none;stroke:#ff7f0e;stroke-linecap:square;stroke-opacity:0.2;stroke-width:1.5;"/>
   </g>
   <g id="line2d_83">
    <path clip-path="url(#pd25baa5e9b)" d="M 811.785124 577.393089 
L 836.056546 543.589072 
L 860.327969 541.322587 
L 884.599391 534.358143 
L 908.870813 538.097365 
L 933.142236 540.91919 
L 957.413658 539.715449 
L 981.68508 540.087133 
L 1005.956503 539.610855 
L 1030.227925 539.712883 
L 1054.499348 539.377921 
L 1078.77077 539.322948 
L 1103.042192 539.604845 
L 1127.313615 539.597149 
L 1151.585037 539.441761 
L 1175.856459 539.705774 
L 1200.127882 539.63475 
L 1224.399304 539.592165 
L 1248.670726 539.689722 
L 1272.942149 540.056275 
" style="fill:none;stroke:#ff7f0e;stroke-linecap:square;stroke-opacity:0.2;stroke-width:1.5;"/>
   </g>
   <g id="line2d_84">
    <path clip-path="url(#pd25baa5e9b)" d="M 811.785124 538.148672 
L 836.056546 478.161962 
L 860.327969 475.148052 
L 884.599391 393.276069 
L 908.870813 367.32934 
L 933.142236 361.866732 
L 957.413658 406.12946 
L 981.68508 416.145781 
L 1005.956503 421.801427 
L 1030.227925 442.218262 
L 1054.499348 420.779631 
L 1078.77077 388.440093 
L 1103.042192 374.261241 
L 1127.313615 421.513764 
L 1151.585037 450.630547 
L 1175.856459 494.284161 
L 1200.127882 506.959834 
L 1224.399304 529.599079 
L 1248.670726 538.530423 
L 1272.942149 539.918161 
" style="fill:none;stroke:#ff7f0e;stroke-linecap:square;stroke-opacity:0.2;stroke-width:1.5;"/>
   </g>
   <g id="line2d_85">
    <path clip-path="url(#pd25baa5e9b)" d="M 811.785124 566.600929 
L 836.056546 528.132596 
L 860.327969 527.608737 
L 884.599391 486.758239 
L 908.870813 483.972415 
L 933.142236 480.648237 
L 957.413658 488.72264 
L 981.68508 491.905033 
L 1005.956503 492.66284 
L 1030.227925 481.352747 
L 1054.499348 444.635749 
L 1078.77077 439.350291 
L 1103.042192 434.248868 
L 1127.313615 445.264055 
L 1151.585037 439.14461 
L 1175.856459 459.763327 
L 1200.127882 473.968719 
L 1224.399304 482.458698 
L 1248.670726 476.478425 
L 1272.942149 464.048147 
" style="fill:none;stroke:#ff7f0e;stroke-linecap:square;stroke-width:1.5;"/>
   </g>
   <g id="line2d_86">
    <path clip-path="url(#pd25baa5e9b)" d="M 811.785124 513.939182 
L 836.056546 516.243927 
L 860.327969 498.617351 
L 884.599391 505.638917 
L 908.870813 505.140211 
L 933.142236 514.980206 
L 957.413658 510.937318 
L 981.68508 499.35637 
L 1005.956503 523.796695 
L 1030.227925 508.121625 
L 1054.499348 529.702451 
L 1078.77077 489.331058 
L 1103.042192 483.658433 
L 1127.313615 500.47069 
L 1151.585037 546.626314 
L 1175.856459 538.286249 
L 1200.127882 540.340518 
L 1224.399304 540.247798 
L 1248.670726 540.177287 
L 1272.942149 540.138514 
" style="fill:none;stroke:#2ca02c;stroke-linecap:square;stroke-opacity:0.2;stroke-width:1.5;"/>
   </g>
   <g id="line2d_87">
    <path clip-path="url(#pd25baa5e9b)" d="M 811.785124 586.341022 
L 836.056546 546.065428 
L 860.327969 551.589629 
L 884.599391 543.477955 
L 908.870813 541.191925 
L 933.142236 542.315333 
L 957.413658 479.056516 
L 981.68508 358.090421 
L 1005.956503 189.629243 
L 1030.227925 223.228764 
L 1054.499348 246.242136 
L 1078.77077 305.369695 
L 1103.042192 379.199758 
L 1127.313615 415.849934 
L 1151.585037 410.393605 
L 1175.856459 397.822867 
L 1200.127882 402.476018 
L 1224.399304 419.530788 
L 1248.670726 428.385831 
L 1272.942149 398.223577 
" style="fill:none;stroke:#2ca02c;stroke-linecap:square;stroke-opacity:0.2;stroke-width:1.5;"/>
   </g>
   <g id="line2d_88">
    <path clip-path="url(#pd25baa5e9b)" d="M 811.785124 615.6 
L 836.056546 553.437545 
L 860.327969 545.759979 
L 884.599391 543.525549 
L 908.870813 547.606453 
L 933.142236 543.241355 
L 957.413658 544.90178 
L 981.68508 543.53217 
L 1005.956503 541.389604 
L 1030.227925 541.370913 
L 1054.499348 541.327522 
L 1078.77077 540.448849 
L 1103.042192 499.399981 
L 1127.313615 522.688703 
L 1151.585037 520.486132 
L 1175.856459 458.415663 
L 1200.127882 328.864842 
L 1224.399304 115.693096 
L 1248.670726 111.6 
L 1272.942149 114.968125 
" style="fill:none;stroke:#2ca02c;stroke-linecap:square;stroke-opacity:0.2;stroke-width:1.5;"/>
   </g>
   <g id="line2d_89">
    <path clip-path="url(#pd25baa5e9b)" d="M 811.785124 536.377424 
L 836.056546 546.81185 
L 860.327969 551.256254 
L 884.599391 544.319956 
L 908.870813 542.861706 
L 933.142236 542.239472 
L 957.413658 541.832312 
L 981.68508 540.865684 
L 1005.956503 540.888186 
L 1030.227925 541.024003 
L 1054.499348 540.339052 
L 1078.77077 544.672363 
L 1103.042192 540.655397 
L 1127.313615 540.70971 
L 1151.585037 540.308341 
L 1175.856459 541.17707 
L 1200.127882 539.615644 
L 1224.399304 542.511205 
L 1248.670726 540.637758 
L 1272.942149 540.02813 
" style="fill:none;stroke:#2ca02c;stroke-linecap:square;stroke-opacity:0.2;stroke-width:1.5;"/>
   </g>
   <g id="line2d_90">
    <path clip-path="url(#pd25baa5e9b)" d="M 811.785124 563.064407 
L 836.056546 540.639688 
L 860.327969 536.805803 
L 884.599391 534.240594 
L 908.870813 534.200074 
L 933.142236 535.694091 
L 957.413658 519.181981 
L 981.68508 485.461161 
L 1005.956503 448.925932 
L 1030.227925 453.436326 
L 1054.499348 464.40279 
L 1078.77077 469.955491 
L 1103.042192 475.728392 
L 1127.313615 494.929759 
L 1151.585037 504.453598 
L 1175.856459 483.925462 
L 1200.127882 452.824256 
L 1224.399304 404.495722 
L 1248.670726 405.200219 
L 1272.942149 398.339586 
" style="fill:none;stroke:#2ca02c;stroke-linecap:square;stroke-width:1.5;"/>
   </g>
   <g id="line2d_91">
    <path clip-path="url(#pd25baa5e9b)" d="M 811.785124 597.61266 
L 836.056546 598.875649 
L 860.327969 569.317745 
L 884.599391 531.835537 
L 908.870813 510.8585 
L 933.142236 490.902379 
L 957.413658 526.324895 
L 981.68508 503.544507 
L 1005.956503 496.431442 
L 1030.227925 457.306108 
L 1054.499348 461.743768 
L 1078.77077 477.052699 
L 1103.042192 472.744993 
L 1127.313615 464.549394 
L 1151.585037 412.651025 
L 1175.856459 375.843971 
L 1200.127882 228.756361 
L 1224.399304 219.979745 
L 1248.670726 241.541514 
L 1272.942149 255.700747 
" style="fill:none;stroke:#d62728;stroke-linecap:square;stroke-opacity:0.2;stroke-width:1.5;"/>
   </g>
   <g id="line2d_92">
    <path clip-path="url(#pd25baa5e9b)" d="M 811.785124 570.61059 
L 836.056546 435.538573 
L 860.327969 540.003502 
L 884.599391 524.47246 
L 908.870813 470.941177 
L 933.142236 461.476238 
L 957.413658 475.59252 
L 981.68508 439.996097 
L 1005.956503 428.665284 
L 1030.227925 459.158079 
L 1054.499348 468.592112 
L 1078.77077 462.237295 
L 1103.042192 470.15686 
L 1127.313615 473.265517 
L 1151.585037 471.559111 
L 1175.856459 481.720558 
L 1200.127882 489.192358 
L 1224.399304 486.585511 
L 1248.670726 440.820653 
L 1272.942149 292.906605 
" style="fill:none;stroke:#d62728;stroke-linecap:square;stroke-opacity:0.2;stroke-width:1.5;"/>
   </g>
   <g id="line2d_93">
    <path clip-path="url(#pd25baa5e9b)" d="M 811.785124 611.412939 
L 836.056546 552.678442 
L 860.327969 545.080182 
L 884.599391 549.510074 
L 908.870813 540.042813 
L 933.142236 538.935848 
L 957.413658 530.322315 
L 981.68508 476.823771 
L 1005.956503 470.385544 
L 1030.227925 402.385693 
L 1054.499348 369.468387 
L 1078.77077 451.58601 
L 1103.042192 450.560037 
L 1127.313615 486.151549 
L 1151.585037 506.930662 
L 1175.856459 491.621585 
L 1200.127882 489.721213 
L 1224.399304 442.836441 
L 1248.670726 420.35962 
L 1272.942149 428.437114 
" style="fill:none;stroke:#d62728;stroke-linecap:square;stroke-opacity:0.2;stroke-width:1.5;"/>
   </g>
   <g id="line2d_94">
    <path clip-path="url(#pd25baa5e9b)" d="M 811.785124 566.690131 
L 836.056546 556.121182 
L 860.327969 540.942498 
L 884.599391 522.070231 
L 908.870813 500.253123 
L 933.142236 508.418743 
L 957.413658 495.899338 
L 981.68508 495.835155 
L 1005.956503 489.376991 
L 1030.227925 498.611976 
L 1054.499348 502.583791 
L 1078.77077 522.925791 
L 1103.042192 522.193857 
L 1127.313615 512.118264 
L 1151.585037 491.455887 
L 1175.856459 491.542791 
L 1200.127882 510.716501 
L 1224.399304 487.680431 
L 1248.670726 507.928319 
L 1272.942149 500.122754 
" style="fill:none;stroke:#d62728;stroke-linecap:square;stroke-opacity:0.2;stroke-width:1.5;"/>
   </g>
   <g id="line2d_95">
    <path clip-path="url(#pd25baa5e9b)" d="M 811.785124 586.58158 
L 836.056546 535.803461 
L 860.327969 548.835982 
L 884.599391 531.972075 
L 908.870813 505.523903 
L 933.142236 499.933302 
L 957.413658 507.034767 
L 981.68508 479.049882 
L 1005.956503 471.214815 
L 1030.227925 454.365464 
L 1054.499348 450.597014 
L 1078.77077 478.450449 
L 1103.042192 478.913936 
L 1127.313615 484.021181 
L 1151.585037 470.649171 
L 1175.856459 460.182226 
L 1200.127882 429.596608 
L 1224.399304 409.270532 
L 1248.670726 402.662526 
L 1272.942149 369.291805 
" style="fill:none;stroke:#d62728;stroke-linecap:square;stroke-width:1.5;"/>
   </g>
   <g id="patch_9">
    <path d="M 788.727273 640.8 
L 788.727273 86.4 
" style="fill:none;stroke:#000000;stroke-linecap:square;stroke-linejoin:miter;stroke-width:0.8;"/>
   </g>
   <g id="patch_10">
    <path d="M 1296 640.8 
L 1296 86.4 
" style="fill:none;stroke:#000000;stroke-linecap:square;stroke-linejoin:miter;stroke-width:0.8;"/>
   </g>
   <g id="patch_11">
    <path d="M 788.727273 640.8 
L 1296 640.8 
" style="fill:none;stroke:#000000;stroke-linecap:square;stroke-linejoin:miter;stroke-width:0.8;"/>
   </g>
   <g id="patch_12">
    <path d="M 788.727273 86.4 
L 1296 86.4 
" style="fill:none;stroke:#000000;stroke-linecap:square;stroke-linejoin:miter;stroke-width:0.8;"/>
   </g>
   <g id="text_30">
    <!-- Reward -->
    <defs>
     <path d="M 4.203125 54.6875 
L 13.1875 54.6875 
L 24.421875 12.015625 
L 35.59375 54.6875 
L 46.1875 54.6875 
L 57.421875 12.015625 
L 68.609375 54.6875 
L 77.59375 54.6875 
L 63.28125 0 
L 52.6875 0 
L 40.921875 44.828125 
L 29.109375 0 
L 18.5 0 
z
" id="DejaVuSans-119"/>
    </defs>
    <g transform="translate(1019.648011 80.4)scale(0.12 -0.12)">
     <use xlink:href="#DejaVuSans-82"/>
     <use x="69.419922" xlink:href="#DejaVuSans-101"/>
     <use x="130.943359" xlink:href="#DejaVuSans-119"/>
     <use x="212.730469" xlink:href="#DejaVuSans-97"/>
     <use x="274.009766" xlink:href="#DejaVuSans-114"/>
     <use x="315.107422" xlink:href="#DejaVuSans-100"/>
    </g>
   </g>
   <g id="legend_2">
    <g id="patch_13">
     <path d="M 795.727273 153.1125 
L 993.578835 153.1125 
Q 995.578835 153.1125 995.578835 151.1125 
L 995.578835 93.4 
Q 995.578835 91.4 993.578835 91.4 
L 795.727273 91.4 
Q 793.727273 91.4 793.727273 93.4 
L 793.727273 151.1125 
Q 793.727273 153.1125 795.727273 153.1125 
z
" style="fill:#ffffff;opacity:0.8;stroke:#cccccc;stroke-linejoin:miter;"/>
    </g>
    <g id="line2d_96">
     <path d="M 797.727273 99.498437 
L 817.727273 99.498437 
" style="fill:none;stroke:#1f77b4;stroke-linecap:square;stroke-width:1.5;"/>
    </g>
    <g id="line2d_97"/>
    <g id="text_31">
     <!-- TRandom(eps=0.2),lr=0.001 -->
     <g transform="translate(825.727273 102.998437)scale(0.1 -0.1)">
      <use xlink:href="#DejaVuSans-84"/>
      <use x="61.083984" xlink:href="#DejaVuSans-82"/>
      <use x="130.535156" xlink:href="#DejaVuSans-97"/>
      <use x="191.814453" xlink:href="#DejaVuSans-110"/>
      <use x="255.193359" xlink:href="#DejaVuSans-100"/>
      <use x="318.669922" xlink:href="#DejaVuSans-111"/>
      <use x="379.851562" xlink:href="#DejaVuSans-109"/>
      <use x="477.263672" xlink:href="#DejaVuSans-40"/>
      <use x="516.277344" xlink:href="#DejaVuSans-101"/>
      <use x="577.800781" xlink:href="#DejaVuSans-112"/>
      <use x="641.277344" xlink:href="#DejaVuSans-115"/>
      <use x="693.376953" xlink:href="#DejaVuSans-61"/>
      <use x="777.166016" xlink:href="#DejaVuSans-48"/>
      <use x="840.789062" xlink:href="#DejaVuSans-46"/>
      <use x="872.576172" xlink:href="#DejaVuSans-50"/>
      <use x="936.199219" xlink:href="#DejaVuSans-41"/>
      <use x="975.212891" xlink:href="#DejaVuSans-44"/>
      <use x="1007" xlink:href="#DejaVuSans-108"/>
      <use x="1034.783203" xlink:href="#DejaVuSans-114"/>
      <use x="1075.896484" xlink:href="#DejaVuSans-61"/>
      <use x="1159.685547" xlink:href="#DejaVuSans-48"/>
      <use x="1223.308594" xlink:href="#DejaVuSans-46"/>
      <use x="1255.095703" xlink:href="#DejaVuSans-48"/>
      <use x="1318.71875" xlink:href="#DejaVuSans-48"/>
      <use x="1382.341797" xlink:href="#DejaVuSans-49"/>
     </g>
    </g>
    <g id="line2d_98">
     <path d="M 797.727273 114.176562 
L 817.727273 114.176562 
" style="fill:none;stroke:#ff7f0e;stroke-linecap:square;stroke-width:1.5;"/>
    </g>
    <g id="line2d_99"/>
    <g id="text_32">
     <!-- TRandom(eps=0.05),lr=0.001 -->
     <g transform="translate(825.727273 117.676562)scale(0.1 -0.1)">
      <use xlink:href="#DejaVuSans-84"/>
      <use x="61.083984" xlink:href="#DejaVuSans-82"/>
      <use x="130.535156" xlink:href="#DejaVuSans-97"/>
      <use x="191.814453" xlink:href="#DejaVuSans-110"/>
      <use x="255.193359" xlink:href="#DejaVuSans-100"/>
      <use x="318.669922" xlink:href="#DejaVuSans-111"/>
      <use x="379.851562" xlink:href="#DejaVuSans-109"/>
      <use x="477.263672" xlink:href="#DejaVuSans-40"/>
      <use x="516.277344" xlink:href="#DejaVuSans-101"/>
      <use x="577.800781" xlink:href="#DejaVuSans-112"/>
      <use x="641.277344" xlink:href="#DejaVuSans-115"/>
      <use x="693.376953" xlink:href="#DejaVuSans-61"/>
      <use x="777.166016" xlink:href="#DejaVuSans-48"/>
      <use x="840.789062" xlink:href="#DejaVuSans-46"/>
      <use x="872.576172" xlink:href="#DejaVuSans-48"/>
      <use x="936.199219" xlink:href="#DejaVuSans-53"/>
      <use x="999.822266" xlink:href="#DejaVuSans-41"/>
      <use x="1038.835938" xlink:href="#DejaVuSans-44"/>
      <use x="1070.623047" xlink:href="#DejaVuSans-108"/>
      <use x="1098.40625" xlink:href="#DejaVuSans-114"/>
      <use x="1139.519531" xlink:href="#DejaVuSans-61"/>
      <use x="1223.308594" xlink:href="#DejaVuSans-48"/>
      <use x="1286.931641" xlink:href="#DejaVuSans-46"/>
      <use x="1318.71875" xlink:href="#DejaVuSans-48"/>
      <use x="1382.341797" xlink:href="#DejaVuSans-48"/>
      <use x="1445.964844" xlink:href="#DejaVuSans-49"/>
     </g>
    </g>
    <g id="line2d_100">
     <path d="M 797.727273 128.854687 
L 817.727273 128.854687 
" style="fill:none;stroke:#2ca02c;stroke-linecap:square;stroke-width:1.5;"/>
    </g>
    <g id="line2d_101"/>
    <g id="text_33">
     <!-- SingleFrame(eps=0.05),lr=0.001 -->
     <g transform="translate(825.727273 132.354687)scale(0.1 -0.1)">
      <use xlink:href="#DejaVuSans-83"/>
      <use x="63.476562" xlink:href="#DejaVuSans-105"/>
      <use x="91.259766" xlink:href="#DejaVuSans-110"/>
      <use x="154.638672" xlink:href="#DejaVuSans-103"/>
      <use x="218.115234" xlink:href="#DejaVuSans-108"/>
      <use x="245.898438" xlink:href="#DejaVuSans-101"/>
      <use x="307.421875" xlink:href="#DejaVuSans-70"/>
      <use x="364.832031" xlink:href="#DejaVuSans-114"/>
      <use x="405.945312" xlink:href="#DejaVuSans-97"/>
      <use x="467.224609" xlink:href="#DejaVuSans-109"/>
      <use x="564.636719" xlink:href="#DejaVuSans-101"/>
      <use x="626.160156" xlink:href="#DejaVuSans-40"/>
      <use x="665.173828" xlink:href="#DejaVuSans-101"/>
      <use x="726.697266" xlink:href="#DejaVuSans-112"/>
      <use x="790.173828" xlink:href="#DejaVuSans-115"/>
      <use x="842.273438" xlink:href="#DejaVuSans-61"/>
      <use x="926.0625" xlink:href="#DejaVuSans-48"/>
      <use x="989.685547" xlink:href="#DejaVuSans-46"/>
      <use x="1021.472656" xlink:href="#DejaVuSans-48"/>
      <use x="1085.095703" xlink:href="#DejaVuSans-53"/>
      <use x="1148.71875" xlink:href="#DejaVuSans-41"/>
      <use x="1187.732422" xlink:href="#DejaVuSans-44"/>
      <use x="1219.519531" xlink:href="#DejaVuSans-108"/>
      <use x="1247.302734" xlink:href="#DejaVuSans-114"/>
      <use x="1288.416016" xlink:href="#DejaVuSans-61"/>
      <use x="1372.205078" xlink:href="#DejaVuSans-48"/>
      <use x="1435.828125" xlink:href="#DejaVuSans-46"/>
      <use x="1467.615234" xlink:href="#DejaVuSans-48"/>
      <use x="1531.238281" xlink:href="#DejaVuSans-48"/>
      <use x="1594.861328" xlink:href="#DejaVuSans-49"/>
     </g>
    </g>
    <g id="line2d_102">
     <path d="M 797.727273 143.532812 
L 817.727273 143.532812 
" style="fill:none;stroke:#d62728;stroke-linecap:square;stroke-width:1.5;"/>
    </g>
    <g id="line2d_103"/>
    <g id="text_34">
     <!-- SingleFrame(eps=0.2),lr=0.001 -->
     <g transform="translate(825.727273 147.032812)scale(0.1 -0.1)">
      <use xlink:href="#DejaVuSans-83"/>
      <use x="63.476562" xlink:href="#DejaVuSans-105"/>
      <use x="91.259766" xlink:href="#DejaVuSans-110"/>
      <use x="154.638672" xlink:href="#DejaVuSans-103"/>
      <use x="218.115234" xlink:href="#DejaVuSans-108"/>
      <use x="245.898438" xlink:href="#DejaVuSans-101"/>
      <use x="307.421875" xlink:href="#DejaVuSans-70"/>
      <use x="364.832031" xlink:href="#DejaVuSans-114"/>
      <use x="405.945312" xlink:href="#DejaVuSans-97"/>
      <use x="467.224609" xlink:href="#DejaVuSans-109"/>
      <use x="564.636719" xlink:href="#DejaVuSans-101"/>
      <use x="626.160156" xlink:href="#DejaVuSans-40"/>
      <use x="665.173828" xlink:href="#DejaVuSans-101"/>
      <use x="726.697266" xlink:href="#DejaVuSans-112"/>
      <use x="790.173828" xlink:href="#DejaVuSans-115"/>
      <use x="842.273438" xlink:href="#DejaVuSans-61"/>
      <use x="926.0625" xlink:href="#DejaVuSans-48"/>
      <use x="989.685547" xlink:href="#DejaVuSans-46"/>
      <use x="1021.472656" xlink:href="#DejaVuSans-50"/>
      <use x="1085.095703" xlink:href="#DejaVuSans-41"/>
      <use x="1124.109375" xlink:href="#DejaVuSans-44"/>
      <use x="1155.896484" xlink:href="#DejaVuSans-108"/>
      <use x="1183.679688" xlink:href="#DejaVuSans-114"/>
      <use x="1224.792969" xlink:href="#DejaVuSans-61"/>
      <use x="1308.582031" xlink:href="#DejaVuSans-48"/>
      <use x="1372.205078" xlink:href="#DejaVuSans-46"/>
      <use x="1403.992188" xlink:href="#DejaVuSans-48"/>
      <use x="1467.615234" xlink:href="#DejaVuSans-48"/>
      <use x="1531.238281" xlink:href="#DejaVuSans-49"/>
     </g>
    </g>
   </g>
  </g>
 </g>
 <defs>
  <clipPath id="p3ebe65e5e7">
   <rect height="554.4" width="507.272727" x="180" y="86.4"/>
  </clipPath>
  <clipPath id="pd25baa5e9b">
   <rect height="554.4" width="507.272727" x="788.727273" y="86.4"/>
  </clipPath>
 </defs>
</svg>
