<?xml version="1.0" encoding="utf-8" standalone="no"?>
<!DOCTYPE svg PUBLIC "-//W3C//DTD SVG 1.1//EN"
  "http://www.w3.org/Graphics/SVG/1.1/DTD/svg11.dtd">
<!-- Created with matplotlib (https://matplotlib.org/) -->
<svg height="720pt" version="1.1" viewBox="0 0 1440 720" width="1440pt" xmlns="http://www.w3.org/2000/svg" xmlns:xlink="http://www.w3.org/1999/xlink">
 <defs>
  <style type="text/css">
*{stroke-linecap:butt;stroke-linejoin:round;}
  </style>
 </defs>
 <g id="figure_1">
  <g id="patch_1">
   <path d="M 0 720 
L 1440 720 
L 1440 0 
L 0 0 
z
" style="fill:#ffffff;"/>
  </g>
  <g id="axes_1">
   <g id="patch_2">
    <path d="M 180 640.8 
L 687.272727 640.8 
L 687.272727 86.4 
L 180 86.4 
z
" style="fill:#ffffff;"/>
   </g>
   <g id="matplotlib.axis_1">
    <g id="xtick_1">
     <g id="line2d_1">
      <defs>
       <path d="M 0 0 
L 0 3.5 
" id="m7341029de6" style="stroke:#000000;stroke-width:0.8;"/>
      </defs>
      <g>
       <use style="stroke:#000000;stroke-width:0.8;" x="203.057851" xlink:href="#m7341029de6" y="640.8"/>
      </g>
     </g>
     <g id="text_1">
      <!-- 0.0 -->
      <defs>
       <path d="M 31.78125 66.40625 
Q 24.171875 66.40625 20.328125 58.90625 
Q 16.5 51.421875 16.5 36.375 
Q 16.5 21.390625 20.328125 13.890625 
Q 24.171875 6.390625 31.78125 6.390625 
Q 39.453125 6.390625 43.28125 13.890625 
Q 47.125 21.390625 47.125 36.375 
Q 47.125 51.421875 43.28125 58.90625 
Q 39.453125 66.40625 31.78125 66.40625 
z
M 31.78125 74.21875 
Q 44.046875 74.21875 50.515625 64.515625 
Q 56.984375 54.828125 56.984375 36.375 
Q 56.984375 17.96875 50.515625 8.265625 
Q 44.046875 -1.421875 31.78125 -1.421875 
Q 19.53125 -1.421875 13.0625 8.265625 
Q 6.59375 17.96875 6.59375 36.375 
Q 6.59375 54.828125 13.0625 64.515625 
Q 19.53125 74.21875 31.78125 74.21875 
z
" id="DejaVuSans-48"/>
       <path d="M 10.6875 12.40625 
L 21 12.40625 
L 21 0 
L 10.6875 0 
z
" id="DejaVuSans-46"/>
      </defs>
      <g transform="translate(195.106289 655.398438)scale(0.1 -0.1)">
       <use xlink:href="#DejaVuSans-48"/>
       <use x="63.623047" xlink:href="#DejaVuSans-46"/>
       <use x="95.410156" xlink:href="#DejaVuSans-48"/>
      </g>
     </g>
    </g>
    <g id="xtick_2">
     <g id="line2d_2">
      <g>
       <use style="stroke:#000000;stroke-width:0.8;" x="263.736407" xlink:href="#m7341029de6" y="640.8"/>
      </g>
     </g>
     <g id="text_2">
      <!-- 2.5 -->
      <defs>
       <path d="M 19.1875 8.296875 
L 53.609375 8.296875 
L 53.609375 0 
L 7.328125 0 
L 7.328125 8.296875 
Q 12.9375 14.109375 22.625 23.890625 
Q 32.328125 33.6875 34.8125 36.53125 
Q 39.546875 41.84375 41.421875 45.53125 
Q 43.3125 49.21875 43.3125 52.78125 
Q 43.3125 58.59375 39.234375 62.25 
Q 35.15625 65.921875 28.609375 65.921875 
Q 23.96875 65.921875 18.8125 64.3125 
Q 13.671875 62.703125 7.8125 59.421875 
L 7.8125 69.390625 
Q 13.765625 71.78125 18.9375 73 
Q 24.125 74.21875 28.421875 74.21875 
Q 39.75 74.21875 46.484375 68.546875 
Q 53.21875 62.890625 53.21875 53.421875 
Q 53.21875 48.921875 51.53125 44.890625 
Q 49.859375 40.875 45.40625 35.40625 
Q 44.1875 33.984375 37.640625 27.21875 
Q 31.109375 20.453125 19.1875 8.296875 
z
" id="DejaVuSans-50"/>
       <path d="M 10.796875 72.90625 
L 49.515625 72.90625 
L 49.515625 64.59375 
L 19.828125 64.59375 
L 19.828125 46.734375 
Q 21.96875 47.46875 24.109375 47.828125 
Q 26.265625 48.1875 28.421875 48.1875 
Q 40.625 48.1875 47.75 41.5 
Q 54.890625 34.8125 54.890625 23.390625 
Q 54.890625 11.625 47.5625 5.09375 
Q 40.234375 -1.421875 26.90625 -1.421875 
Q 22.3125 -1.421875 17.546875 -0.640625 
Q 12.796875 0.140625 7.71875 1.703125 
L 7.71875 11.625 
Q 12.109375 9.234375 16.796875 8.0625 
Q 21.484375 6.890625 26.703125 6.890625 
Q 35.15625 6.890625 40.078125 11.328125 
Q 45.015625 15.765625 45.015625 23.390625 
Q 45.015625 31 40.078125 35.4375 
Q 35.15625 39.890625 26.703125 39.890625 
Q 22.75 39.890625 18.8125 39.015625 
Q 14.890625 38.140625 10.796875 36.28125 
z
" id="DejaVuSans-53"/>
      </defs>
      <g transform="translate(255.784845 655.398438)scale(0.1 -0.1)">
       <use xlink:href="#DejaVuSans-50"/>
       <use x="63.623047" xlink:href="#DejaVuSans-46"/>
       <use x="95.410156" xlink:href="#DejaVuSans-53"/>
      </g>
     </g>
    </g>
    <g id="xtick_3">
     <g id="line2d_3">
      <g>
       <use style="stroke:#000000;stroke-width:0.8;" x="324.414963" xlink:href="#m7341029de6" y="640.8"/>
      </g>
     </g>
     <g id="text_3">
      <!-- 5.0 -->
      <g transform="translate(316.463401 655.398438)scale(0.1 -0.1)">
       <use xlink:href="#DejaVuSans-53"/>
       <use x="63.623047" xlink:href="#DejaVuSans-46"/>
       <use x="95.410156" xlink:href="#DejaVuSans-48"/>
      </g>
     </g>
    </g>
    <g id="xtick_4">
     <g id="line2d_4">
      <g>
       <use style="stroke:#000000;stroke-width:0.8;" x="385.093519" xlink:href="#m7341029de6" y="640.8"/>
      </g>
     </g>
     <g id="text_4">
      <!-- 7.5 -->
      <defs>
       <path d="M 8.203125 72.90625 
L 55.078125 72.90625 
L 55.078125 68.703125 
L 28.609375 0 
L 18.3125 0 
L 43.21875 64.59375 
L 8.203125 64.59375 
z
" id="DejaVuSans-55"/>
      </defs>
      <g transform="translate(377.141956 655.398438)scale(0.1 -0.1)">
       <use xlink:href="#DejaVuSans-55"/>
       <use x="63.623047" xlink:href="#DejaVuSans-46"/>
       <use x="95.410156" xlink:href="#DejaVuSans-53"/>
      </g>
     </g>
    </g>
    <g id="xtick_5">
     <g id="line2d_5">
      <g>
       <use style="stroke:#000000;stroke-width:0.8;" x="445.772075" xlink:href="#m7341029de6" y="640.8"/>
      </g>
     </g>
     <g id="text_5">
      <!-- 10.0 -->
      <defs>
       <path d="M 12.40625 8.296875 
L 28.515625 8.296875 
L 28.515625 63.921875 
L 10.984375 60.40625 
L 10.984375 69.390625 
L 28.421875 72.90625 
L 38.28125 72.90625 
L 38.28125 8.296875 
L 54.390625 8.296875 
L 54.390625 0 
L 12.40625 0 
z
" id="DejaVuSans-49"/>
      </defs>
      <g transform="translate(434.639262 655.398438)scale(0.1 -0.1)">
       <use xlink:href="#DejaVuSans-49"/>
       <use x="63.623047" xlink:href="#DejaVuSans-48"/>
       <use x="127.246094" xlink:href="#DejaVuSans-46"/>
       <use x="159.033203" xlink:href="#DejaVuSans-48"/>
      </g>
     </g>
    </g>
    <g id="xtick_6">
     <g id="line2d_6">
      <g>
       <use style="stroke:#000000;stroke-width:0.8;" x="506.450631" xlink:href="#m7341029de6" y="640.8"/>
      </g>
     </g>
     <g id="text_6">
      <!-- 12.5 -->
      <g transform="translate(495.317818 655.398438)scale(0.1 -0.1)">
       <use xlink:href="#DejaVuSans-49"/>
       <use x="63.623047" xlink:href="#DejaVuSans-50"/>
       <use x="127.246094" xlink:href="#DejaVuSans-46"/>
       <use x="159.033203" xlink:href="#DejaVuSans-53"/>
      </g>
     </g>
    </g>
    <g id="xtick_7">
     <g id="line2d_7">
      <g>
       <use style="stroke:#000000;stroke-width:0.8;" x="567.129187" xlink:href="#m7341029de6" y="640.8"/>
      </g>
     </g>
     <g id="text_7">
      <!-- 15.0 -->
      <g transform="translate(555.996374 655.398438)scale(0.1 -0.1)">
       <use xlink:href="#DejaVuSans-49"/>
       <use x="63.623047" xlink:href="#DejaVuSans-53"/>
       <use x="127.246094" xlink:href="#DejaVuSans-46"/>
       <use x="159.033203" xlink:href="#DejaVuSans-48"/>
      </g>
     </g>
    </g>
    <g id="xtick_8">
     <g id="line2d_8">
      <g>
       <use style="stroke:#000000;stroke-width:0.8;" x="627.807742" xlink:href="#m7341029de6" y="640.8"/>
      </g>
     </g>
     <g id="text_8">
      <!-- 17.5 -->
      <g transform="translate(616.67493 655.398438)scale(0.1 -0.1)">
       <use xlink:href="#DejaVuSans-49"/>
       <use x="63.623047" xlink:href="#DejaVuSans-55"/>
       <use x="127.246094" xlink:href="#DejaVuSans-46"/>
       <use x="159.033203" xlink:href="#DejaVuSans-53"/>
      </g>
     </g>
    </g>
   </g>
   <g id="matplotlib.axis_2">
    <g id="ytick_1">
     <g id="line2d_9">
      <defs>
       <path d="M 0 0 
L -3.5 0 
" id="m9eadaa41bb" style="stroke:#000000;stroke-width:0.8;"/>
      </defs>
      <g>
       <use style="stroke:#000000;stroke-width:0.8;" x="180" xlink:href="#m9eadaa41bb" y="450.530938"/>
      </g>
     </g>
     <g id="text_9">
      <!-- $\mathdefault{10^{-2}}$ -->
      <defs>
       <path d="M 10.59375 35.5 
L 73.1875 35.5 
L 73.1875 27.203125 
L 10.59375 27.203125 
z
" id="DejaVuSans-8722"/>
      </defs>
      <g transform="translate(149.5 454.330157)scale(0.1 -0.1)">
       <use transform="translate(0 0.765625)" xlink:href="#DejaVuSans-49"/>
       <use transform="translate(63.623047 0.765625)" xlink:href="#DejaVuSans-48"/>
       <use transform="translate(128.203125 39.046875)scale(0.7)" xlink:href="#DejaVuSans-8722"/>
       <use transform="translate(186.855469 39.046875)scale(0.7)" xlink:href="#DejaVuSans-50"/>
      </g>
     </g>
    </g>
    <g id="ytick_2">
     <g id="line2d_10">
      <g>
       <use style="stroke:#000000;stroke-width:0.8;" x="180" xlink:href="#m9eadaa41bb" y="248.903433"/>
      </g>
     </g>
     <g id="text_10">
      <!-- $\mathdefault{10^{-1}}$ -->
      <g transform="translate(149.5 252.702652)scale(0.1 -0.1)">
       <use transform="translate(0 0.684375)" xlink:href="#DejaVuSans-49"/>
       <use transform="translate(63.623047 0.684375)" xlink:href="#DejaVuSans-48"/>
       <use transform="translate(128.203125 38.965625)scale(0.7)" xlink:href="#DejaVuSans-8722"/>
       <use transform="translate(186.855469 38.965625)scale(0.7)" xlink:href="#DejaVuSans-49"/>
      </g>
     </g>
    </g>
    <g id="ytick_3">
     <g id="line2d_11">
      <defs>
       <path d="M 0 0 
L -2 0 
" id="me18cb698e7" style="stroke:#000000;stroke-width:0.6;"/>
      </defs>
      <g>
       <use style="stroke:#000000;stroke-width:0.6;" x="180" xlink:href="#me18cb698e7" y="591.462516"/>
      </g>
     </g>
    </g>
    <g id="ytick_4">
     <g id="line2d_12">
      <g>
       <use style="stroke:#000000;stroke-width:0.6;" x="180" xlink:href="#me18cb698e7" y="555.957675"/>
      </g>
     </g>
    </g>
    <g id="ytick_5">
     <g id="line2d_13">
      <g>
       <use style="stroke:#000000;stroke-width:0.6;" x="180" xlink:href="#me18cb698e7" y="530.766589"/>
      </g>
     </g>
    </g>
    <g id="ytick_6">
     <g id="line2d_14">
      <g>
       <use style="stroke:#000000;stroke-width:0.6;" x="180" xlink:href="#me18cb698e7" y="511.226865"/>
      </g>
     </g>
    </g>
    <g id="ytick_7">
     <g id="line2d_15">
      <g>
       <use style="stroke:#000000;stroke-width:0.6;" x="180" xlink:href="#me18cb698e7" y="495.261748"/>
      </g>
     </g>
    </g>
    <g id="ytick_8">
     <g id="line2d_16">
      <g>
       <use style="stroke:#000000;stroke-width:0.6;" x="180" xlink:href="#me18cb698e7" y="481.763434"/>
      </g>
     </g>
    </g>
    <g id="ytick_9">
     <g id="line2d_17">
      <g>
       <use style="stroke:#000000;stroke-width:0.6;" x="180" xlink:href="#me18cb698e7" y="470.070662"/>
      </g>
     </g>
    </g>
    <g id="ytick_10">
     <g id="line2d_18">
      <g>
       <use style="stroke:#000000;stroke-width:0.6;" x="180" xlink:href="#me18cb698e7" y="459.756907"/>
      </g>
     </g>
    </g>
    <g id="ytick_11">
     <g id="line2d_19">
      <g>
       <use style="stroke:#000000;stroke-width:0.6;" x="180" xlink:href="#me18cb698e7" y="389.835011"/>
      </g>
     </g>
    </g>
    <g id="ytick_12">
     <g id="line2d_20">
      <g>
       <use style="stroke:#000000;stroke-width:0.6;" x="180" xlink:href="#me18cb698e7" y="354.33017"/>
      </g>
     </g>
    </g>
    <g id="ytick_13">
     <g id="line2d_21">
      <g>
       <use style="stroke:#000000;stroke-width:0.6;" x="180" xlink:href="#me18cb698e7" y="329.139084"/>
      </g>
     </g>
    </g>
    <g id="ytick_14">
     <g id="line2d_22">
      <g>
       <use style="stroke:#000000;stroke-width:0.6;" x="180" xlink:href="#me18cb698e7" y="309.59936"/>
      </g>
     </g>
    </g>
    <g id="ytick_15">
     <g id="line2d_23">
      <g>
       <use style="stroke:#000000;stroke-width:0.6;" x="180" xlink:href="#me18cb698e7" y="293.634243"/>
      </g>
     </g>
    </g>
    <g id="ytick_16">
     <g id="line2d_24">
      <g>
       <use style="stroke:#000000;stroke-width:0.6;" x="180" xlink:href="#me18cb698e7" y="280.135929"/>
      </g>
     </g>
    </g>
    <g id="ytick_17">
     <g id="line2d_25">
      <g>
       <use style="stroke:#000000;stroke-width:0.6;" x="180" xlink:href="#me18cb698e7" y="268.443157"/>
      </g>
     </g>
    </g>
    <g id="ytick_18">
     <g id="line2d_26">
      <g>
       <use style="stroke:#000000;stroke-width:0.6;" x="180" xlink:href="#me18cb698e7" y="258.129402"/>
      </g>
     </g>
    </g>
    <g id="ytick_19">
     <g id="line2d_27">
      <g>
       <use style="stroke:#000000;stroke-width:0.6;" x="180" xlink:href="#me18cb698e7" y="188.207506"/>
      </g>
     </g>
    </g>
    <g id="ytick_20">
     <g id="line2d_28">
      <g>
       <use style="stroke:#000000;stroke-width:0.6;" x="180" xlink:href="#me18cb698e7" y="152.702665"/>
      </g>
     </g>
    </g>
    <g id="ytick_21">
     <g id="line2d_29">
      <g>
       <use style="stroke:#000000;stroke-width:0.6;" x="180" xlink:href="#me18cb698e7" y="127.51158"/>
      </g>
     </g>
    </g>
    <g id="ytick_22">
     <g id="line2d_30">
      <g>
       <use style="stroke:#000000;stroke-width:0.6;" x="180" xlink:href="#me18cb698e7" y="107.971855"/>
      </g>
     </g>
    </g>
    <g id="ytick_23">
     <g id="line2d_31">
      <g>
       <use style="stroke:#000000;stroke-width:0.6;" x="180" xlink:href="#me18cb698e7" y="92.006738"/>
      </g>
     </g>
    </g>
   </g>
   <g id="line2d_32">
    <path clip-path="url(#p5733d27742)" d="M 203.057851 212.842629 
L 227.329274 342.255205 
L 251.600696 379.061256 
L 275.872118 410.901138 
L 300.143541 433.463856 
L 324.414963 452.496049 
L 348.686385 464.634059 
L 372.957808 465.740589 
L 397.22923 459.982122 
L 421.500652 443.238952 
L 445.772075 440.55876 
L 470.043497 445.281274 
L 494.31492 452.941968 
L 518.586342 457.427079 
L 542.857764 458.418171 
L 567.129187 464.176376 
L 591.400609 476.181567 
L 615.672031 491.84386 
L 639.943454 491.107444 
L 664.214876 500.793557 
" style="fill:none;stroke:#1f77b4;stroke-linecap:square;stroke-opacity:0.2;stroke-width:1.5;"/>
   </g>
   <g id="line2d_33">
    <path clip-path="url(#p5733d27742)" d="M 203.057851 182.539437 
L 227.329274 317.607781 
L 251.600696 364.132665 
L 275.872118 407.61088 
L 300.143541 438.066584 
L 324.414963 451.397261 
L 348.686385 453.83178 
L 372.957808 461.945822 
L 397.22923 457.960119 
L 421.500652 463.475391 
L 445.772075 464.140119 
L 470.043497 470.244071 
L 494.31492 473.760611 
L 518.586342 479.003966 
L 542.857764 481.717732 
L 567.129187 477.24153 
L 591.400609 469.808025 
L 615.672031 472.685765 
L 639.943454 480.508895 
L 664.214876 482.18888 
" style="fill:none;stroke:#1f77b4;stroke-linecap:square;stroke-opacity:0.2;stroke-width:1.5;"/>
   </g>
   <g id="line2d_34">
    <path clip-path="url(#p5733d27742)" d="M 203.057851 111.6 
L 227.329274 273.728634 
L 251.600696 319.539298 
L 275.872118 380.796324 
L 300.143541 386.881455 
L 324.414963 376.606493 
L 348.686385 399.314742 
L 372.957808 406.478674 
L 397.22923 418.632509 
L 421.500652 435.888892 
L 445.772075 448.607189 
L 470.043497 452.248419 
L 494.31492 459.178239 
L 518.586342 473.648558 
L 542.857764 502.720037 
L 567.129187 495.670601 
L 591.400609 516.454676 
L 615.672031 525.554368 
L 639.943454 528.975713 
L 664.214876 538.413369 
" style="fill:none;stroke:#1f77b4;stroke-linecap:square;stroke-opacity:0.2;stroke-width:1.5;"/>
   </g>
   <g id="line2d_35">
    <path clip-path="url(#p5733d27742)" d="M 203.057851 205.869879 
L 227.329274 308.729638 
L 251.600696 374.448231 
L 275.872118 413.834488 
L 300.143541 429.886959 
L 324.414963 452.009539 
L 348.686385 464.706212 
L 372.957808 472.099596 
L 397.22923 480.367358 
L 421.500652 487.012009 
L 445.772075 489.953661 
L 470.043497 484.038919 
L 494.31492 421.136241 
L 518.586342 408.984039 
L 542.857764 407.181355 
L 567.129187 405.386665 
L 591.400609 422.710962 
L 615.672031 420.693199 
L 639.943454 424.103647 
L 664.214876 427.002518 
" style="fill:none;stroke:#1f77b4;stroke-linecap:square;stroke-opacity:0.2;stroke-width:1.5;"/>
   </g>
   <g id="line2d_36">
    <path clip-path="url(#p5733d27742)" d="M 203.057851 168.013196 
L 227.329274 307.062525 
L 251.600696 355.862828 
L 275.872118 402.244576 
L 300.143541 419.477061 
L 324.414963 426.26346 
L 348.686385 441.007226 
L 372.957808 447.226867 
L 397.22923 451.254738 
L 421.500652 455.236991 
L 445.772075 458.876286 
L 470.043497 461.654547 
L 494.31492 449.55783 
L 518.586342 450.05492 
L 542.857764 454.888324 
L 567.129187 453.547237 
L 591.400609 464.930372 
L 615.672031 469.229877 
L 639.943454 472.856202 
L 664.214876 477.649615 
" style="fill:none;stroke:#1f77b4;stroke-linecap:square;stroke-width:1.5;"/>
   </g>
   <g id="line2d_37">
    <path clip-path="url(#p5733d27742)" d="M 203.057851 184.259739 
L 227.329274 364.903815 
L 251.600696 412.095336 
L 275.872118 425.506134 
L 300.143541 442.917581 
L 324.414963 460.583992 
L 348.686385 482.277692 
L 372.957808 502.214599 
L 397.22923 505.268557 
L 421.500652 502.560876 
L 445.772075 529.593547 
L 470.043497 516.188115 
L 494.31492 508.904648 
L 518.586342 532.855908 
L 542.857764 519.395661 
L 567.129187 522.180502 
L 591.400609 520.576734 
L 615.672031 512.424333 
L 639.943454 524.638853 
L 664.214876 525.658776 
" style="fill:none;stroke:#ff7f0e;stroke-linecap:square;stroke-opacity:0.2;stroke-width:1.5;"/>
   </g>
   <g id="line2d_38">
    <path clip-path="url(#p5733d27742)" d="M 203.057851 202.127663 
L 227.329274 294.486992 
L 251.600696 365.47869 
L 275.872118 412.247984 
L 300.143541 427.559748 
L 324.414963 442.437154 
L 348.686385 466.716267 
L 372.957808 481.633147 
L 397.22923 486.23753 
L 421.500652 490.395889 
L 445.772075 491.080588 
L 470.043497 493.277249 
L 494.31492 481.438085 
L 518.586342 479.903264 
L 542.857764 484.102021 
L 567.129187 488.970072 
L 591.400609 491.938189 
L 615.672031 490.039326 
L 639.943454 489.880161 
L 664.214876 485.657008 
" style="fill:none;stroke:#ff7f0e;stroke-linecap:square;stroke-opacity:0.2;stroke-width:1.5;"/>
   </g>
   <g id="line2d_39">
    <path clip-path="url(#p5733d27742)" d="M 203.057851 248.44296 
L 227.329274 363.263498 
L 251.600696 431.87246 
L 275.872118 470.308942 
L 300.143541 502.827241 
L 324.414963 518.515564 
L 348.686385 527.017699 
L 372.957808 540.315395 
L 397.22923 530.732991 
L 421.500652 423.81959 
L 445.772075 436.263777 
L 470.043497 449.373486 
L 494.31492 465.592586 
L 518.586342 464.327947 
L 542.857764 467.436346 
L 567.129187 463.845714 
L 591.400609 467.182462 
L 615.672031 449.352776 
L 639.943454 459.216309 
L 664.214876 476.183866 
" style="fill:none;stroke:#ff7f0e;stroke-linecap:square;stroke-opacity:0.2;stroke-width:1.5;"/>
   </g>
   <g id="line2d_40">
    <path clip-path="url(#p5733d27742)" d="M 203.057851 195.575622 
L 227.329274 381.809767 
L 251.600696 440.610038 
L 275.872118 403.136267 
L 300.143541 396.065086 
L 324.414963 432.561464 
L 348.686385 436.257852 
L 372.957808 475.064355 
L 397.22923 481.19589 
L 421.500652 507.525532 
L 445.772075 534.310517 
L 470.043497 554.918242 
L 494.31492 569.63542 
L 518.586342 590.949367 
L 542.857764 591.437452 
L 567.129187 592.810322 
L 591.400609 591.472425 
L 615.672031 581.539379 
L 639.943454 581.833564 
L 664.214876 567.957858 
" style="fill:none;stroke:#ff7f0e;stroke-linecap:square;stroke-opacity:0.2;stroke-width:1.5;"/>
   </g>
   <g id="line2d_41">
    <path clip-path="url(#p5733d27742)" d="M 203.057851 204.495267 
L 227.329274 344.005946 
L 251.600696 407.347873 
L 275.872118 424.331076 
L 300.143541 434.496901 
L 324.414963 457.922116 
L 348.686385 472.240688 
L 372.957808 496.378996 
L 397.22923 498.796696 
L 421.500652 473.857305 
L 445.772075 488.393349 
L 470.043497 495.148714 
L 494.31492 498.433082 
L 518.586342 504.447278 
L 542.857764 504.426582 
L 567.129187 505.228988 
L 591.400609 506.980444 
L 615.672031 496.450986 
L 639.943454 503.046451 
L 664.214876 506.903753 
" style="fill:none;stroke:#ff7f0e;stroke-linecap:square;stroke-width:1.5;"/>
   </g>
   <g id="line2d_42">
    <path clip-path="url(#p5733d27742)" d="M 203.057851 216.553588 
L 227.329274 339.809901 
L 251.600696 370.911457 
L 275.872118 394.885926 
L 300.143541 427.867242 
L 324.414963 443.686598 
L 348.686385 451.598329 
L 372.957808 482.185308 
L 397.22923 488.02789 
L 421.500652 473.481259 
L 445.772075 445.805098 
L 470.043497 455.026044 
L 494.31492 429.801396 
L 518.586342 401.666294 
L 542.857764 413.775401 
L 567.129187 426.019949 
L 591.400609 431.530899 
L 615.672031 446.633732 
L 639.943454 453.310382 
L 664.214876 449.464144 
" style="fill:none;stroke:#2ca02c;stroke-linecap:square;stroke-opacity:0.2;stroke-width:1.5;"/>
   </g>
   <g id="line2d_43">
    <path clip-path="url(#p5733d27742)" d="M 203.057851 155.150283 
L 227.329274 296.889055 
L 251.600696 324.826119 
L 275.872118 351.785993 
L 300.143541 393.794634 
L 324.414963 416.752604 
L 348.686385 428.732652 
L 372.957808 440.77059 
L 397.22923 449.590083 
L 421.500652 465.123441 
L 445.772075 475.663291 
L 470.043497 499.322692 
L 494.31492 511.332524 
L 518.586342 515.005659 
L 542.857764 502.687258 
L 567.129187 503.883202 
L 591.400609 527.680779 
L 615.672031 523.970306 
L 639.943454 480.991954 
L 664.214876 488.240443 
" style="fill:none;stroke:#2ca02c;stroke-linecap:square;stroke-opacity:0.2;stroke-width:1.5;"/>
   </g>
   <g id="line2d_44">
    <path clip-path="url(#p5733d27742)" d="M 203.057851 305.667192 
L 227.329274 409.298109 
L 251.600696 423.594841 
L 275.872118 451.543806 
L 300.143541 476.618086 
L 324.414963 448.975624 
L 348.686385 429.723763 
L 372.957808 451.41166 
L 397.22923 452.2632 
L 421.500652 453.673476 
L 445.772075 454.366772 
L 470.043497 458.619322 
L 494.31492 468.982416 
L 518.586342 475.41277 
L 542.857764 480.937347 
L 567.129187 479.745608 
L 591.400609 452.009953 
L 615.672031 453.197556 
L 639.943454 462.541897 
L 664.214876 467.575829 
" style="fill:none;stroke:#2ca02c;stroke-linecap:square;stroke-opacity:0.2;stroke-width:1.5;"/>
   </g>
   <g id="line2d_45">
    <path clip-path="url(#p5733d27742)" d="M 203.057851 367.351866 
L 227.329274 466.52027 
L 251.600696 500.01822 
L 275.872118 520.283007 
L 300.143541 537.209451 
L 324.414963 538.470081 
L 348.686385 520.86281 
L 372.957808 509.649878 
L 397.22923 543.482534 
L 421.500652 560.938751 
L 445.772075 559.303197 
L 470.043497 587.349229 
L 494.31492 601.051915 
L 518.586342 613.738366 
L 542.857764 615.6 
L 567.129187 611.656083 
L 591.400609 589.405889 
L 615.672031 503.778374 
L 639.943454 456.654177 
L 664.214876 456.562762 
" style="fill:none;stroke:#2ca02c;stroke-linecap:square;stroke-opacity:0.2;stroke-width:1.5;"/>
   </g>
   <g id="line2d_46">
    <path clip-path="url(#p5733d27742)" d="M 203.057851 226.847946 
L 227.329274 356.124072 
L 251.600696 383.371282 
L 275.872118 409.159962 
L 300.143541 443.772206 
L 324.414963 451.937823 
L 348.686385 450.823299 
L 372.957808 467.015273 
L 397.22923 476.048964 
L 421.500652 479.781453 
L 445.772075 474.221526 
L 470.043497 486.778027 
L 494.31492 483.158135 
L 518.586342 471.899855 
L 542.857764 477.752183 
L 567.129187 483.599979 
L 591.400609 480.377431 
L 615.672031 475.950235 
L 639.943454 462.744658 
L 664.214876 464.276487 
" style="fill:none;stroke:#2ca02c;stroke-linecap:square;stroke-width:1.5;"/>
   </g>
   <g id="line2d_47">
    <path clip-path="url(#p5733d27742)" d="M 203.057851 215.250444 
L 227.329274 347.768392 
L 251.600696 381.371703 
L 275.872118 426.664573 
L 300.143541 434.242082 
L 324.414963 454.100726 
L 348.686385 473.674048 
L 372.957808 489.771501 
L 397.22923 503.824826 
L 421.500652 520.83826 
L 445.772075 531.520872 
L 470.043497 543.683344 
L 494.31492 551.933373 
L 518.586342 532.50282 
L 542.857764 514.434076 
L 567.129187 498.010921 
L 591.400609 487.17458 
L 615.672031 491.080438 
L 639.943454 498.360298 
L 664.214876 494.479921 
" style="fill:none;stroke:#d62728;stroke-linecap:square;stroke-opacity:0.2;stroke-width:1.5;"/>
   </g>
   <g id="line2d_48">
    <path clip-path="url(#p5733d27742)" d="M 203.057851 251.112233 
L 227.329274 353.682355 
L 251.600696 398.951433 
L 275.872118 427.466164 
L 300.143541 433.062194 
L 324.414963 462.982046 
L 348.686385 487.897995 
L 372.957808 502.549854 
L 397.22923 511.340619 
L 421.500652 515.652004 
L 445.772075 501.576505 
L 470.043497 504.971361 
L 494.31492 508.955976 
L 518.586342 516.277663 
L 542.857764 508.484637 
L 567.129187 498.147091 
L 591.400609 496.244856 
L 615.672031 512.123592 
L 639.943454 523.873596 
L 664.214876 550.978935 
" style="fill:none;stroke:#d62728;stroke-linecap:square;stroke-opacity:0.2;stroke-width:1.5;"/>
   </g>
   <g id="line2d_49">
    <path clip-path="url(#p5733d27742)" d="M 203.057851 200.724017 
L 227.329274 377.086366 
L 251.600696 380.218285 
L 275.872118 400.04231 
L 300.143541 428.255146 
L 324.414963 458.69729 
L 348.686385 477.004564 
L 372.957808 502.74425 
L 397.22923 515.836398 
L 421.500652 531.635313 
L 445.772075 535.170196 
L 470.043497 529.833833 
L 494.31492 524.8737 
L 518.586342 510.2946 
L 542.857764 501.645553 
L 567.129187 500.240637 
L 591.400609 488.151647 
L 615.672031 483.315175 
L 639.943454 484.935705 
L 664.214876 483.732027 
" style="fill:none;stroke:#d62728;stroke-linecap:square;stroke-opacity:0.2;stroke-width:1.5;"/>
   </g>
   <g id="line2d_50">
    <path clip-path="url(#p5733d27742)" d="M 203.057851 204.206634 
L 227.329274 373.069226 
L 251.600696 379.005182 
L 275.872118 400.82847 
L 300.143541 437.715204 
L 324.414963 467.338283 
L 348.686385 492.082348 
L 372.957808 502.182411 
L 397.22923 517.873794 
L 421.500652 528.498431 
L 445.772075 512.9549 
L 470.043497 444.641463 
L 494.31492 417.185114 
L 518.586342 431.555879 
L 542.857764 466.891973 
L 567.129187 475.538937 
L 591.400609 468.346323 
L 615.672031 438.747377 
L 639.943454 433.837748 
L 664.214876 445.125835 
" style="fill:none;stroke:#d62728;stroke-linecap:square;stroke-opacity:0.2;stroke-width:1.5;"/>
   </g>
   <g id="line2d_51">
    <path clip-path="url(#p5733d27742)" d="M 203.057851 215.71537 
L 227.329274 362.0194 
L 251.600696 384.519517 
L 275.872118 412.74104 
L 300.143541 433.252921 
L 324.414963 460.641362 
L 348.686385 482.338655 
L 372.957808 499.134386 
L 397.22923 512.050983 
L 421.500652 523.929616 
L 445.772075 519.22413 
L 470.043497 496.881192 
L 494.31492 484.348159 
L 518.586342 487.868308 
L 542.857764 495.799274 
L 567.129187 492.375891 
L 591.400609 484.365683 
L 615.672031 477.015876 
L 639.943454 478.780862 
L 664.214876 485.892216 
" style="fill:none;stroke:#d62728;stroke-linecap:square;stroke-width:1.5;"/>
   </g>
   <g id="patch_3">
    <path d="M 180 640.8 
L 180 86.4 
" style="fill:none;stroke:#000000;stroke-linecap:square;stroke-linejoin:miter;stroke-width:0.8;"/>
   </g>
   <g id="patch_4">
    <path d="M 687.272727 640.8 
L 687.272727 86.4 
" style="fill:none;stroke:#000000;stroke-linecap:square;stroke-linejoin:miter;stroke-width:0.8;"/>
   </g>
   <g id="patch_5">
    <path d="M 180 640.8 
L 687.272727 640.8 
" style="fill:none;stroke:#000000;stroke-linecap:square;stroke-linejoin:miter;stroke-width:0.8;"/>
   </g>
   <g id="patch_6">
    <path d="M 180 86.4 
L 687.272727 86.4 
" style="fill:none;stroke:#000000;stroke-linecap:square;stroke-linejoin:miter;stroke-width:0.8;"/>
   </g>
   <g id="text_11">
    <!-- Loss -->
    <defs>
     <path d="M 9.8125 72.90625 
L 19.671875 72.90625 
L 19.671875 8.296875 
L 55.171875 8.296875 
L 55.171875 0 
L 9.8125 0 
z
" id="DejaVuSans-76"/>
     <path d="M 30.609375 48.390625 
Q 23.390625 48.390625 19.1875 42.75 
Q 14.984375 37.109375 14.984375 27.296875 
Q 14.984375 17.484375 19.15625 11.84375 
Q 23.34375 6.203125 30.609375 6.203125 
Q 37.796875 6.203125 41.984375 11.859375 
Q 46.1875 17.53125 46.1875 27.296875 
Q 46.1875 37.015625 41.984375 42.703125 
Q 37.796875 48.390625 30.609375 48.390625 
z
M 30.609375 56 
Q 42.328125 56 49.015625 48.375 
Q 55.71875 40.765625 55.71875 27.296875 
Q 55.71875 13.875 49.015625 6.21875 
Q 42.328125 -1.421875 30.609375 -1.421875 
Q 18.84375 -1.421875 12.171875 6.21875 
Q 5.515625 13.875 5.515625 27.296875 
Q 5.515625 40.765625 12.171875 48.375 
Q 18.84375 56 30.609375 56 
z
" id="DejaVuSans-111"/>
     <path d="M 44.28125 53.078125 
L 44.28125 44.578125 
Q 40.484375 46.53125 36.375 47.5 
Q 32.28125 48.484375 27.875 48.484375 
Q 21.1875 48.484375 17.84375 46.4375 
Q 14.5 44.390625 14.5 40.28125 
Q 14.5 37.15625 16.890625 35.375 
Q 19.28125 33.59375 26.515625 31.984375 
L 29.59375 31.296875 
Q 39.15625 29.25 43.1875 25.515625 
Q 47.21875 21.78125 47.21875 15.09375 
Q 47.21875 7.46875 41.1875 3.015625 
Q 35.15625 -1.421875 24.609375 -1.421875 
Q 20.21875 -1.421875 15.453125 -0.5625 
Q 10.6875 0.296875 5.421875 2 
L 5.421875 11.28125 
Q 10.40625 8.6875 15.234375 7.390625 
Q 20.0625 6.109375 24.8125 6.109375 
Q 31.15625 6.109375 34.5625 8.28125 
Q 37.984375 10.453125 37.984375 14.40625 
Q 37.984375 18.0625 35.515625 20.015625 
Q 33.0625 21.96875 24.703125 23.78125 
L 21.578125 24.515625 
Q 13.234375 26.265625 9.515625 29.90625 
Q 5.8125 33.546875 5.8125 39.890625 
Q 5.8125 47.609375 11.28125 51.796875 
Q 16.75 56 26.8125 56 
Q 31.78125 56 36.171875 55.265625 
Q 40.578125 54.546875 44.28125 53.078125 
z
" id="DejaVuSans-115"/>
    </defs>
    <g transform="translate(420.371676 80.4)scale(0.12 -0.12)">
     <use xlink:href="#DejaVuSans-76"/>
     <use x="55.697266" xlink:href="#DejaVuSans-111"/>
     <use x="116.878906" xlink:href="#DejaVuSans-115"/>
     <use x="168.978516" xlink:href="#DejaVuSans-115"/>
    </g>
   </g>
   <g id="legend_1">
    <g id="patch_7">
     <path d="M 187 153.1125 
L 384.851562 153.1125 
Q 386.851562 153.1125 386.851562 151.1125 
L 386.851562 93.4 
Q 386.851562 91.4 384.851562 91.4 
L 187 91.4 
Q 185 91.4 185 93.4 
L 185 151.1125 
Q 185 153.1125 187 153.1125 
z
" style="fill:#ffffff;opacity:0.8;stroke:#cccccc;stroke-linejoin:miter;"/>
    </g>
    <g id="line2d_52">
     <path d="M 189 99.498437 
L 209 99.498437 
" style="fill:none;stroke:#1f77b4;stroke-linecap:square;stroke-width:1.5;"/>
    </g>
    <g id="line2d_53"/>
    <g id="text_12">
     <!-- TRandom(eps=0.2),lr=0.001 -->
     <defs>
      <path d="M -0.296875 72.90625 
L 61.375 72.90625 
L 61.375 64.59375 
L 35.5 64.59375 
L 35.5 0 
L 25.59375 0 
L 25.59375 64.59375 
L -0.296875 64.59375 
z
" id="DejaVuSans-84"/>
      <path d="M 44.390625 34.1875 
Q 47.5625 33.109375 50.5625 29.59375 
Q 53.5625 26.078125 56.59375 19.921875 
L 66.609375 0 
L 56 0 
L 46.6875 18.703125 
Q 43.0625 26.03125 39.671875 28.421875 
Q 36.28125 30.8125 30.421875 30.8125 
L 19.671875 30.8125 
L 19.671875 0 
L 9.8125 0 
L 9.8125 72.90625 
L 32.078125 72.90625 
Q 44.578125 72.90625 50.734375 67.671875 
Q 56.890625 62.453125 56.890625 51.90625 
Q 56.890625 45.015625 53.6875 40.46875 
Q 50.484375 35.9375 44.390625 34.1875 
z
M 19.671875 64.796875 
L 19.671875 38.921875 
L 32.078125 38.921875 
Q 39.203125 38.921875 42.84375 42.21875 
Q 46.484375 45.515625 46.484375 51.90625 
Q 46.484375 58.296875 42.84375 61.546875 
Q 39.203125 64.796875 32.078125 64.796875 
z
" id="DejaVuSans-82"/>
      <path d="M 34.28125 27.484375 
Q 23.390625 27.484375 19.1875 25 
Q 14.984375 22.515625 14.984375 16.5 
Q 14.984375 11.71875 18.140625 8.90625 
Q 21.296875 6.109375 26.703125 6.109375 
Q 34.1875 6.109375 38.703125 11.40625 
Q 43.21875 16.703125 43.21875 25.484375 
L 43.21875 27.484375 
z
M 52.203125 31.203125 
L 52.203125 0 
L 43.21875 0 
L 43.21875 8.296875 
Q 40.140625 3.328125 35.546875 0.953125 
Q 30.953125 -1.421875 24.3125 -1.421875 
Q 15.921875 -1.421875 10.953125 3.296875 
Q 6 8.015625 6 15.921875 
Q 6 25.140625 12.171875 29.828125 
Q 18.359375 34.515625 30.609375 34.515625 
L 43.21875 34.515625 
L 43.21875 35.40625 
Q 43.21875 41.609375 39.140625 45 
Q 35.0625 48.390625 27.6875 48.390625 
Q 23 48.390625 18.546875 47.265625 
Q 14.109375 46.140625 10.015625 43.890625 
L 10.015625 52.203125 
Q 14.9375 54.109375 19.578125 55.046875 
Q 24.21875 56 28.609375 56 
Q 40.484375 56 46.34375 49.84375 
Q 52.203125 43.703125 52.203125 31.203125 
z
" id="DejaVuSans-97"/>
      <path d="M 54.890625 33.015625 
L 54.890625 0 
L 45.90625 0 
L 45.90625 32.71875 
Q 45.90625 40.484375 42.875 44.328125 
Q 39.84375 48.1875 33.796875 48.1875 
Q 26.515625 48.1875 22.3125 43.546875 
Q 18.109375 38.921875 18.109375 30.90625 
L 18.109375 0 
L 9.078125 0 
L 9.078125 54.6875 
L 18.109375 54.6875 
L 18.109375 46.1875 
Q 21.34375 51.125 25.703125 53.5625 
Q 30.078125 56 35.796875 56 
Q 45.21875 56 50.046875 50.171875 
Q 54.890625 44.34375 54.890625 33.015625 
z
" id="DejaVuSans-110"/>
      <path d="M 45.40625 46.390625 
L 45.40625 75.984375 
L 54.390625 75.984375 
L 54.390625 0 
L 45.40625 0 
L 45.40625 8.203125 
Q 42.578125 3.328125 38.25 0.953125 
Q 33.9375 -1.421875 27.875 -1.421875 
Q 17.96875 -1.421875 11.734375 6.484375 
Q 5.515625 14.40625 5.515625 27.296875 
Q 5.515625 40.1875 11.734375 48.09375 
Q 17.96875 56 27.875 56 
Q 33.9375 56 38.25 53.625 
Q 42.578125 51.265625 45.40625 46.390625 
z
M 14.796875 27.296875 
Q 14.796875 17.390625 18.875 11.75 
Q 22.953125 6.109375 30.078125 6.109375 
Q 37.203125 6.109375 41.296875 11.75 
Q 45.40625 17.390625 45.40625 27.296875 
Q 45.40625 37.203125 41.296875 42.84375 
Q 37.203125 48.484375 30.078125 48.484375 
Q 22.953125 48.484375 18.875 42.84375 
Q 14.796875 37.203125 14.796875 27.296875 
z
" id="DejaVuSans-100"/>
      <path d="M 52 44.1875 
Q 55.375 50.25 60.0625 53.125 
Q 64.75 56 71.09375 56 
Q 79.640625 56 84.28125 50.015625 
Q 88.921875 44.046875 88.921875 33.015625 
L 88.921875 0 
L 79.890625 0 
L 79.890625 32.71875 
Q 79.890625 40.578125 77.09375 44.375 
Q 74.3125 48.1875 68.609375 48.1875 
Q 61.625 48.1875 57.5625 43.546875 
Q 53.515625 38.921875 53.515625 30.90625 
L 53.515625 0 
L 44.484375 0 
L 44.484375 32.71875 
Q 44.484375 40.625 41.703125 44.40625 
Q 38.921875 48.1875 33.109375 48.1875 
Q 26.21875 48.1875 22.15625 43.53125 
Q 18.109375 38.875 18.109375 30.90625 
L 18.109375 0 
L 9.078125 0 
L 9.078125 54.6875 
L 18.109375 54.6875 
L 18.109375 46.1875 
Q 21.1875 51.21875 25.484375 53.609375 
Q 29.78125 56 35.6875 56 
Q 41.65625 56 45.828125 52.96875 
Q 50 49.953125 52 44.1875 
z
" id="DejaVuSans-109"/>
      <path d="M 31 75.875 
Q 24.46875 64.65625 21.28125 53.65625 
Q 18.109375 42.671875 18.109375 31.390625 
Q 18.109375 20.125 21.3125 9.0625 
Q 24.515625 -2 31 -13.1875 
L 23.1875 -13.1875 
Q 15.875 -1.703125 12.234375 9.375 
Q 8.59375 20.453125 8.59375 31.390625 
Q 8.59375 42.28125 12.203125 53.3125 
Q 15.828125 64.359375 23.1875 75.875 
z
" id="DejaVuSans-40"/>
      <path d="M 56.203125 29.59375 
L 56.203125 25.203125 
L 14.890625 25.203125 
Q 15.484375 15.921875 20.484375 11.0625 
Q 25.484375 6.203125 34.421875 6.203125 
Q 39.59375 6.203125 44.453125 7.46875 
Q 49.3125 8.734375 54.109375 11.28125 
L 54.109375 2.78125 
Q 49.265625 0.734375 44.1875 -0.34375 
Q 39.109375 -1.421875 33.890625 -1.421875 
Q 20.796875 -1.421875 13.15625 6.1875 
Q 5.515625 13.8125 5.515625 26.8125 
Q 5.515625 40.234375 12.765625 48.109375 
Q 20.015625 56 32.328125 56 
Q 43.359375 56 49.78125 48.890625 
Q 56.203125 41.796875 56.203125 29.59375 
z
M 47.21875 32.234375 
Q 47.125 39.59375 43.09375 43.984375 
Q 39.0625 48.390625 32.421875 48.390625 
Q 24.90625 48.390625 20.390625 44.140625 
Q 15.875 39.890625 15.1875 32.171875 
z
" id="DejaVuSans-101"/>
      <path d="M 18.109375 8.203125 
L 18.109375 -20.796875 
L 9.078125 -20.796875 
L 9.078125 54.6875 
L 18.109375 54.6875 
L 18.109375 46.390625 
Q 20.953125 51.265625 25.265625 53.625 
Q 29.59375 56 35.59375 56 
Q 45.5625 56 51.78125 48.09375 
Q 58.015625 40.1875 58.015625 27.296875 
Q 58.015625 14.40625 51.78125 6.484375 
Q 45.5625 -1.421875 35.59375 -1.421875 
Q 29.59375 -1.421875 25.265625 0.953125 
Q 20.953125 3.328125 18.109375 8.203125 
z
M 48.6875 27.296875 
Q 48.6875 37.203125 44.609375 42.84375 
Q 40.53125 48.484375 33.40625 48.484375 
Q 26.265625 48.484375 22.1875 42.84375 
Q 18.109375 37.203125 18.109375 27.296875 
Q 18.109375 17.390625 22.1875 11.75 
Q 26.265625 6.109375 33.40625 6.109375 
Q 40.53125 6.109375 44.609375 11.75 
Q 48.6875 17.390625 48.6875 27.296875 
z
" id="DejaVuSans-112"/>
      <path d="M 10.59375 45.40625 
L 73.1875 45.40625 
L 73.1875 37.203125 
L 10.59375 37.203125 
z
M 10.59375 25.484375 
L 73.1875 25.484375 
L 73.1875 17.1875 
L 10.59375 17.1875 
z
" id="DejaVuSans-61"/>
      <path d="M 8.015625 75.875 
L 15.828125 75.875 
Q 23.140625 64.359375 26.78125 53.3125 
Q 30.421875 42.28125 30.421875 31.390625 
Q 30.421875 20.453125 26.78125 9.375 
Q 23.140625 -1.703125 15.828125 -13.1875 
L 8.015625 -13.1875 
Q 14.5 -2 17.703125 9.0625 
Q 20.90625 20.125 20.90625 31.390625 
Q 20.90625 42.671875 17.703125 53.65625 
Q 14.5 64.65625 8.015625 75.875 
z
" id="DejaVuSans-41"/>
      <path d="M 11.71875 12.40625 
L 22.015625 12.40625 
L 22.015625 4 
L 14.015625 -11.625 
L 7.71875 -11.625 
L 11.71875 4 
z
" id="DejaVuSans-44"/>
      <path d="M 9.421875 75.984375 
L 18.40625 75.984375 
L 18.40625 0 
L 9.421875 0 
z
" id="DejaVuSans-108"/>
      <path d="M 41.109375 46.296875 
Q 39.59375 47.171875 37.8125 47.578125 
Q 36.03125 48 33.890625 48 
Q 26.265625 48 22.1875 43.046875 
Q 18.109375 38.09375 18.109375 28.8125 
L 18.109375 0 
L 9.078125 0 
L 9.078125 54.6875 
L 18.109375 54.6875 
L 18.109375 46.1875 
Q 20.953125 51.171875 25.484375 53.578125 
Q 30.03125 56 36.53125 56 
Q 37.453125 56 38.578125 55.875 
Q 39.703125 55.765625 41.0625 55.515625 
z
" id="DejaVuSans-114"/>
     </defs>
     <g transform="translate(217 102.998437)scale(0.1 -0.1)">
      <use xlink:href="#DejaVuSans-84"/>
      <use x="61.083984" xlink:href="#DejaVuSans-82"/>
      <use x="130.535156" xlink:href="#DejaVuSans-97"/>
      <use x="191.814453" xlink:href="#DejaVuSans-110"/>
      <use x="255.193359" xlink:href="#DejaVuSans-100"/>
      <use x="318.669922" xlink:href="#DejaVuSans-111"/>
      <use x="379.851562" xlink:href="#DejaVuSans-109"/>
      <use x="477.263672" xlink:href="#DejaVuSans-40"/>
      <use x="516.277344" xlink:href="#DejaVuSans-101"/>
      <use x="577.800781" xlink:href="#DejaVuSans-112"/>
      <use x="641.277344" xlink:href="#DejaVuSans-115"/>
      <use x="693.376953" xlink:href="#DejaVuSans-61"/>
      <use x="777.166016" xlink:href="#DejaVuSans-48"/>
      <use x="840.789062" xlink:href="#DejaVuSans-46"/>
      <use x="872.576172" xlink:href="#DejaVuSans-50"/>
      <use x="936.199219" xlink:href="#DejaVuSans-41"/>
      <use x="975.212891" xlink:href="#DejaVuSans-44"/>
      <use x="1007" xlink:href="#DejaVuSans-108"/>
      <use x="1034.783203" xlink:href="#DejaVuSans-114"/>
      <use x="1075.896484" xlink:href="#DejaVuSans-61"/>
      <use x="1159.685547" xlink:href="#DejaVuSans-48"/>
      <use x="1223.308594" xlink:href="#DejaVuSans-46"/>
      <use x="1255.095703" xlink:href="#DejaVuSans-48"/>
      <use x="1318.71875" xlink:href="#DejaVuSans-48"/>
      <use x="1382.341797" xlink:href="#DejaVuSans-49"/>
     </g>
    </g>
    <g id="line2d_54">
     <path d="M 189 114.176562 
L 209 114.176562 
" style="fill:none;stroke:#ff7f0e;stroke-linecap:square;stroke-width:1.5;"/>
    </g>
    <g id="line2d_55"/>
    <g id="text_13">
     <!-- TRandom(eps=0.05),lr=0.001 -->
     <g transform="translate(217 117.676562)scale(0.1 -0.1)">
      <use xlink:href="#DejaVuSans-84"/>
      <use x="61.083984" xlink:href="#DejaVuSans-82"/>
      <use x="130.535156" xlink:href="#DejaVuSans-97"/>
      <use x="191.814453" xlink:href="#DejaVuSans-110"/>
      <use x="255.193359" xlink:href="#DejaVuSans-100"/>
      <use x="318.669922" xlink:href="#DejaVuSans-111"/>
      <use x="379.851562" xlink:href="#DejaVuSans-109"/>
      <use x="477.263672" xlink:href="#DejaVuSans-40"/>
      <use x="516.277344" xlink:href="#DejaVuSans-101"/>
      <use x="577.800781" xlink:href="#DejaVuSans-112"/>
      <use x="641.277344" xlink:href="#DejaVuSans-115"/>
      <use x="693.376953" xlink:href="#DejaVuSans-61"/>
      <use x="777.166016" xlink:href="#DejaVuSans-48"/>
      <use x="840.789062" xlink:href="#DejaVuSans-46"/>
      <use x="872.576172" xlink:href="#DejaVuSans-48"/>
      <use x="936.199219" xlink:href="#DejaVuSans-53"/>
      <use x="999.822266" xlink:href="#DejaVuSans-41"/>
      <use x="1038.835938" xlink:href="#DejaVuSans-44"/>
      <use x="1070.623047" xlink:href="#DejaVuSans-108"/>
      <use x="1098.40625" xlink:href="#DejaVuSans-114"/>
      <use x="1139.519531" xlink:href="#DejaVuSans-61"/>
      <use x="1223.308594" xlink:href="#DejaVuSans-48"/>
      <use x="1286.931641" xlink:href="#DejaVuSans-46"/>
      <use x="1318.71875" xlink:href="#DejaVuSans-48"/>
      <use x="1382.341797" xlink:href="#DejaVuSans-48"/>
      <use x="1445.964844" xlink:href="#DejaVuSans-49"/>
     </g>
    </g>
    <g id="line2d_56">
     <path d="M 189 128.854687 
L 209 128.854687 
" style="fill:none;stroke:#2ca02c;stroke-linecap:square;stroke-width:1.5;"/>
    </g>
    <g id="line2d_57"/>
    <g id="text_14">
     <!-- SingleFrame(eps=0.05),lr=0.001 -->
     <defs>
      <path d="M 53.515625 70.515625 
L 53.515625 60.890625 
Q 47.90625 63.578125 42.921875 64.890625 
Q 37.9375 66.21875 33.296875 66.21875 
Q 25.25 66.21875 20.875 63.09375 
Q 16.5 59.96875 16.5 54.203125 
Q 16.5 49.359375 19.40625 46.890625 
Q 22.3125 44.4375 30.421875 42.921875 
L 36.375 41.703125 
Q 47.40625 39.59375 52.65625 34.296875 
Q 57.90625 29 57.90625 20.125 
Q 57.90625 9.515625 50.796875 4.046875 
Q 43.703125 -1.421875 29.984375 -1.421875 
Q 24.8125 -1.421875 18.96875 -0.25 
Q 13.140625 0.921875 6.890625 3.21875 
L 6.890625 13.375 
Q 12.890625 10.015625 18.65625 8.296875 
Q 24.421875 6.59375 29.984375 6.59375 
Q 38.421875 6.59375 43.015625 9.90625 
Q 47.609375 13.234375 47.609375 19.390625 
Q 47.609375 24.75 44.3125 27.78125 
Q 41.015625 30.8125 33.5 32.328125 
L 27.484375 33.5 
Q 16.453125 35.6875 11.515625 40.375 
Q 6.59375 45.0625 6.59375 53.421875 
Q 6.59375 63.09375 13.40625 68.65625 
Q 20.21875 74.21875 32.171875 74.21875 
Q 37.3125 74.21875 42.625 73.28125 
Q 47.953125 72.359375 53.515625 70.515625 
z
" id="DejaVuSans-83"/>
      <path d="M 9.421875 54.6875 
L 18.40625 54.6875 
L 18.40625 0 
L 9.421875 0 
z
M 9.421875 75.984375 
L 18.40625 75.984375 
L 18.40625 64.59375 
L 9.421875 64.59375 
z
" id="DejaVuSans-105"/>
      <path d="M 45.40625 27.984375 
Q 45.40625 37.75 41.375 43.109375 
Q 37.359375 48.484375 30.078125 48.484375 
Q 22.859375 48.484375 18.828125 43.109375 
Q 14.796875 37.75 14.796875 27.984375 
Q 14.796875 18.265625 18.828125 12.890625 
Q 22.859375 7.515625 30.078125 7.515625 
Q 37.359375 7.515625 41.375 12.890625 
Q 45.40625 18.265625 45.40625 27.984375 
z
M 54.390625 6.78125 
Q 54.390625 -7.171875 48.1875 -13.984375 
Q 42 -20.796875 29.203125 -20.796875 
Q 24.46875 -20.796875 20.265625 -20.09375 
Q 16.0625 -19.390625 12.109375 -17.921875 
L 12.109375 -9.1875 
Q 16.0625 -11.328125 19.921875 -12.34375 
Q 23.78125 -13.375 27.78125 -13.375 
Q 36.625 -13.375 41.015625 -8.765625 
Q 45.40625 -4.15625 45.40625 5.171875 
L 45.40625 9.625 
Q 42.625 4.78125 38.28125 2.390625 
Q 33.9375 0 27.875 0 
Q 17.828125 0 11.671875 7.65625 
Q 5.515625 15.328125 5.515625 27.984375 
Q 5.515625 40.671875 11.671875 48.328125 
Q 17.828125 56 27.875 56 
Q 33.9375 56 38.28125 53.609375 
Q 42.625 51.21875 45.40625 46.390625 
L 45.40625 54.6875 
L 54.390625 54.6875 
z
" id="DejaVuSans-103"/>
      <path d="M 9.8125 72.90625 
L 51.703125 72.90625 
L 51.703125 64.59375 
L 19.671875 64.59375 
L 19.671875 43.109375 
L 48.578125 43.109375 
L 48.578125 34.8125 
L 19.671875 34.8125 
L 19.671875 0 
L 9.8125 0 
z
" id="DejaVuSans-70"/>
     </defs>
     <g transform="translate(217 132.354687)scale(0.1 -0.1)">
      <use xlink:href="#DejaVuSans-83"/>
      <use x="63.476562" xlink:href="#DejaVuSans-105"/>
      <use x="91.259766" xlink:href="#DejaVuSans-110"/>
      <use x="154.638672" xlink:href="#DejaVuSans-103"/>
      <use x="218.115234" xlink:href="#DejaVuSans-108"/>
      <use x="245.898438" xlink:href="#DejaVuSans-101"/>
      <use x="307.421875" xlink:href="#DejaVuSans-70"/>
      <use x="364.832031" xlink:href="#DejaVuSans-114"/>
      <use x="405.945312" xlink:href="#DejaVuSans-97"/>
      <use x="467.224609" xlink:href="#DejaVuSans-109"/>
      <use x="564.636719" xlink:href="#DejaVuSans-101"/>
      <use x="626.160156" xlink:href="#DejaVuSans-40"/>
      <use x="665.173828" xlink:href="#DejaVuSans-101"/>
      <use x="726.697266" xlink:href="#DejaVuSans-112"/>
      <use x="790.173828" xlink:href="#DejaVuSans-115"/>
      <use x="842.273438" xlink:href="#DejaVuSans-61"/>
      <use x="926.0625" xlink:href="#DejaVuSans-48"/>
      <use x="989.685547" xlink:href="#DejaVuSans-46"/>
      <use x="1021.472656" xlink:href="#DejaVuSans-48"/>
      <use x="1085.095703" xlink:href="#DejaVuSans-53"/>
      <use x="1148.71875" xlink:href="#DejaVuSans-41"/>
      <use x="1187.732422" xlink:href="#DejaVuSans-44"/>
      <use x="1219.519531" xlink:href="#DejaVuSans-108"/>
      <use x="1247.302734" xlink:href="#DejaVuSans-114"/>
      <use x="1288.416016" xlink:href="#DejaVuSans-61"/>
      <use x="1372.205078" xlink:href="#DejaVuSans-48"/>
      <use x="1435.828125" xlink:href="#DejaVuSans-46"/>
      <use x="1467.615234" xlink:href="#DejaVuSans-48"/>
      <use x="1531.238281" xlink:href="#DejaVuSans-48"/>
      <use x="1594.861328" xlink:href="#DejaVuSans-49"/>
     </g>
    </g>
    <g id="line2d_58">
     <path d="M 189 143.532812 
L 209 143.532812 
" style="fill:none;stroke:#d62728;stroke-linecap:square;stroke-width:1.5;"/>
    </g>
    <g id="line2d_59"/>
    <g id="text_15">
     <!-- SingleFrame(eps=0.2),lr=0.001 -->
     <g transform="translate(217 147.032812)scale(0.1 -0.1)">
      <use xlink:href="#DejaVuSans-83"/>
      <use x="63.476562" xlink:href="#DejaVuSans-105"/>
      <use x="91.259766" xlink:href="#DejaVuSans-110"/>
      <use x="154.638672" xlink:href="#DejaVuSans-103"/>
      <use x="218.115234" xlink:href="#DejaVuSans-108"/>
      <use x="245.898438" xlink:href="#DejaVuSans-101"/>
      <use x="307.421875" xlink:href="#DejaVuSans-70"/>
      <use x="364.832031" xlink:href="#DejaVuSans-114"/>
      <use x="405.945312" xlink:href="#DejaVuSans-97"/>
      <use x="467.224609" xlink:href="#DejaVuSans-109"/>
      <use x="564.636719" xlink:href="#DejaVuSans-101"/>
      <use x="626.160156" xlink:href="#DejaVuSans-40"/>
      <use x="665.173828" xlink:href="#DejaVuSans-101"/>
      <use x="726.697266" xlink:href="#DejaVuSans-112"/>
      <use x="790.173828" xlink:href="#DejaVuSans-115"/>
      <use x="842.273438" xlink:href="#DejaVuSans-61"/>
      <use x="926.0625" xlink:href="#DejaVuSans-48"/>
      <use x="989.685547" xlink:href="#DejaVuSans-46"/>
      <use x="1021.472656" xlink:href="#DejaVuSans-50"/>
      <use x="1085.095703" xlink:href="#DejaVuSans-41"/>
      <use x="1124.109375" xlink:href="#DejaVuSans-44"/>
      <use x="1155.896484" xlink:href="#DejaVuSans-108"/>
      <use x="1183.679688" xlink:href="#DejaVuSans-114"/>
      <use x="1224.792969" xlink:href="#DejaVuSans-61"/>
      <use x="1308.582031" xlink:href="#DejaVuSans-48"/>
      <use x="1372.205078" xlink:href="#DejaVuSans-46"/>
      <use x="1403.992188" xlink:href="#DejaVuSans-48"/>
      <use x="1467.615234" xlink:href="#DejaVuSans-48"/>
      <use x="1531.238281" xlink:href="#DejaVuSans-49"/>
     </g>
    </g>
   </g>
  </g>
  <g id="axes_2">
   <g id="patch_8">
    <path d="M 788.727273 640.8 
L 1296 640.8 
L 1296 86.4 
L 788.727273 86.4 
z
" style="fill:#ffffff;"/>
   </g>
   <g id="matplotlib.axis_3">
    <g id="xtick_9">
     <g id="line2d_60">
      <g>
       <use style="stroke:#000000;stroke-width:0.8;" x="811.785124" xlink:href="#m7341029de6" y="640.8"/>
      </g>
     </g>
     <g id="text_16">
      <!-- 0.0 -->
      <g transform="translate(803.833561 655.398438)scale(0.1 -0.1)">
       <use xlink:href="#DejaVuSans-48"/>
       <use x="63.623047" xlink:href="#DejaVuSans-46"/>
       <use x="95.410156" xlink:href="#DejaVuSans-48"/>
      </g>
     </g>
    </g>
    <g id="xtick_10">
     <g id="line2d_61">
      <g>
       <use style="stroke:#000000;stroke-width:0.8;" x="872.46368" xlink:href="#m7341029de6" y="640.8"/>
      </g>
     </g>
     <g id="text_17">
      <!-- 2.5 -->
      <g transform="translate(864.512117 655.398438)scale(0.1 -0.1)">
       <use xlink:href="#DejaVuSans-50"/>
       <use x="63.623047" xlink:href="#DejaVuSans-46"/>
       <use x="95.410156" xlink:href="#DejaVuSans-53"/>
      </g>
     </g>
    </g>
    <g id="xtick_11">
     <g id="line2d_62">
      <g>
       <use style="stroke:#000000;stroke-width:0.8;" x="933.142236" xlink:href="#m7341029de6" y="640.8"/>
      </g>
     </g>
     <g id="text_18">
      <!-- 5.0 -->
      <g transform="translate(925.190673 655.398438)scale(0.1 -0.1)">
       <use xlink:href="#DejaVuSans-53"/>
       <use x="63.623047" xlink:href="#DejaVuSans-46"/>
       <use x="95.410156" xlink:href="#DejaVuSans-48"/>
      </g>
     </g>
    </g>
    <g id="xtick_12">
     <g id="line2d_63">
      <g>
       <use style="stroke:#000000;stroke-width:0.8;" x="993.820792" xlink:href="#m7341029de6" y="640.8"/>
      </g>
     </g>
     <g id="text_19">
      <!-- 7.5 -->
      <g transform="translate(985.869229 655.398438)scale(0.1 -0.1)">
       <use xlink:href="#DejaVuSans-55"/>
       <use x="63.623047" xlink:href="#DejaVuSans-46"/>
       <use x="95.410156" xlink:href="#DejaVuSans-53"/>
      </g>
     </g>
    </g>
    <g id="xtick_13">
     <g id="line2d_64">
      <g>
       <use style="stroke:#000000;stroke-width:0.8;" x="1054.499348" xlink:href="#m7341029de6" y="640.8"/>
      </g>
     </g>
     <g id="text_20">
      <!-- 10.0 -->
      <g transform="translate(1043.366535 655.398438)scale(0.1 -0.1)">
       <use xlink:href="#DejaVuSans-49"/>
       <use x="63.623047" xlink:href="#DejaVuSans-48"/>
       <use x="127.246094" xlink:href="#DejaVuSans-46"/>
       <use x="159.033203" xlink:href="#DejaVuSans-48"/>
      </g>
     </g>
    </g>
    <g id="xtick_14">
     <g id="line2d_65">
      <g>
       <use style="stroke:#000000;stroke-width:0.8;" x="1115.177903" xlink:href="#m7341029de6" y="640.8"/>
      </g>
     </g>
     <g id="text_21">
      <!-- 12.5 -->
      <g transform="translate(1104.045091 655.398438)scale(0.1 -0.1)">
       <use xlink:href="#DejaVuSans-49"/>
       <use x="63.623047" xlink:href="#DejaVuSans-50"/>
       <use x="127.246094" xlink:href="#DejaVuSans-46"/>
       <use x="159.033203" xlink:href="#DejaVuSans-53"/>
      </g>
     </g>
    </g>
    <g id="xtick_15">
     <g id="line2d_66">
      <g>
       <use style="stroke:#000000;stroke-width:0.8;" x="1175.856459" xlink:href="#m7341029de6" y="640.8"/>
      </g>
     </g>
     <g id="text_22">
      <!-- 15.0 -->
      <g transform="translate(1164.723647 655.398438)scale(0.1 -0.1)">
       <use xlink:href="#DejaVuSans-49"/>
       <use x="63.623047" xlink:href="#DejaVuSans-53"/>
       <use x="127.246094" xlink:href="#DejaVuSans-46"/>
       <use x="159.033203" xlink:href="#DejaVuSans-48"/>
      </g>
     </g>
    </g>
    <g id="xtick_16">
     <g id="line2d_67">
      <g>
       <use style="stroke:#000000;stroke-width:0.8;" x="1236.535015" xlink:href="#m7341029de6" y="640.8"/>
      </g>
     </g>
     <g id="text_23">
      <!-- 17.5 -->
      <g transform="translate(1225.402203 655.398438)scale(0.1 -0.1)">
       <use xlink:href="#DejaVuSans-49"/>
       <use x="63.623047" xlink:href="#DejaVuSans-55"/>
       <use x="127.246094" xlink:href="#DejaVuSans-46"/>
       <use x="159.033203" xlink:href="#DejaVuSans-53"/>
      </g>
     </g>
    </g>
   </g>
   <g id="matplotlib.axis_4">
    <g id="ytick_24">
     <g id="line2d_68">
      <g>
       <use style="stroke:#000000;stroke-width:0.8;" x="788.727273" xlink:href="#m9eadaa41bb" y="620.093357"/>
      </g>
     </g>
     <g id="text_24">
      <!-- 0 -->
      <g transform="translate(775.364773 623.892575)scale(0.1 -0.1)">
       <use xlink:href="#DejaVuSans-48"/>
      </g>
     </g>
    </g>
    <g id="ytick_25">
     <g id="line2d_69">
      <g>
       <use style="stroke:#000000;stroke-width:0.8;" x="788.727273" xlink:href="#m9eadaa41bb" y="497.18166"/>
      </g>
     </g>
     <g id="text_25">
      <!-- 100 -->
      <g transform="translate(762.639773 500.980879)scale(0.1 -0.1)">
       <use xlink:href="#DejaVuSans-49"/>
       <use x="63.623047" xlink:href="#DejaVuSans-48"/>
       <use x="127.246094" xlink:href="#DejaVuSans-48"/>
      </g>
     </g>
    </g>
    <g id="ytick_26">
     <g id="line2d_70">
      <g>
       <use style="stroke:#000000;stroke-width:0.8;" x="788.727273" xlink:href="#m9eadaa41bb" y="374.269964"/>
      </g>
     </g>
     <g id="text_26">
      <!-- 200 -->
      <g transform="translate(762.639773 378.069183)scale(0.1 -0.1)">
       <use xlink:href="#DejaVuSans-50"/>
       <use x="63.623047" xlink:href="#DejaVuSans-48"/>
       <use x="127.246094" xlink:href="#DejaVuSans-48"/>
      </g>
     </g>
    </g>
    <g id="ytick_27">
     <g id="line2d_71">
      <g>
       <use style="stroke:#000000;stroke-width:0.8;" x="788.727273" xlink:href="#m9eadaa41bb" y="251.358268"/>
      </g>
     </g>
     <g id="text_27">
      <!-- 300 -->
      <defs>
       <path d="M 40.578125 39.3125 
Q 47.65625 37.796875 51.625 33 
Q 55.609375 28.21875 55.609375 21.1875 
Q 55.609375 10.40625 48.1875 4.484375 
Q 40.765625 -1.421875 27.09375 -1.421875 
Q 22.515625 -1.421875 17.65625 -0.515625 
Q 12.796875 0.390625 7.625 2.203125 
L 7.625 11.71875 
Q 11.71875 9.328125 16.59375 8.109375 
Q 21.484375 6.890625 26.8125 6.890625 
Q 36.078125 6.890625 40.9375 10.546875 
Q 45.796875 14.203125 45.796875 21.1875 
Q 45.796875 27.640625 41.28125 31.265625 
Q 36.765625 34.90625 28.71875 34.90625 
L 20.21875 34.90625 
L 20.21875 43.015625 
L 29.109375 43.015625 
Q 36.375 43.015625 40.234375 45.921875 
Q 44.09375 48.828125 44.09375 54.296875 
Q 44.09375 59.90625 40.109375 62.90625 
Q 36.140625 65.921875 28.71875 65.921875 
Q 24.65625 65.921875 20.015625 65.03125 
Q 15.375 64.15625 9.8125 62.3125 
L 9.8125 71.09375 
Q 15.4375 72.65625 20.34375 73.4375 
Q 25.25 74.21875 29.59375 74.21875 
Q 40.828125 74.21875 47.359375 69.109375 
Q 53.90625 64.015625 53.90625 55.328125 
Q 53.90625 49.265625 50.4375 45.09375 
Q 46.96875 40.921875 40.578125 39.3125 
z
" id="DejaVuSans-51"/>
      </defs>
      <g transform="translate(762.639773 255.157487)scale(0.1 -0.1)">
       <use xlink:href="#DejaVuSans-51"/>
       <use x="63.623047" xlink:href="#DejaVuSans-48"/>
       <use x="127.246094" xlink:href="#DejaVuSans-48"/>
      </g>
     </g>
    </g>
    <g id="ytick_28">
     <g id="line2d_72">
      <g>
       <use style="stroke:#000000;stroke-width:0.8;" x="788.727273" xlink:href="#m9eadaa41bb" y="128.446572"/>
      </g>
     </g>
     <g id="text_28">
      <!-- 400 -->
      <defs>
       <path d="M 37.796875 64.3125 
L 12.890625 25.390625 
L 37.796875 25.390625 
z
M 35.203125 72.90625 
L 47.609375 72.90625 
L 47.609375 25.390625 
L 58.015625 25.390625 
L 58.015625 17.1875 
L 47.609375 17.1875 
L 47.609375 0 
L 37.796875 0 
L 37.796875 17.1875 
L 4.890625 17.1875 
L 4.890625 26.703125 
z
" id="DejaVuSans-52"/>
      </defs>
      <g transform="translate(762.639773 132.245791)scale(0.1 -0.1)">
       <use xlink:href="#DejaVuSans-52"/>
       <use x="63.623047" xlink:href="#DejaVuSans-48"/>
       <use x="127.246094" xlink:href="#DejaVuSans-48"/>
      </g>
     </g>
    </g>
   </g>
   <g id="line2d_73">
    <path clip-path="url(#p44063d355f)" d="M 811.785124 530.071503 
L 836.056546 464.650327 
L 860.327969 516.912159 
L 884.599391 514.818235 
L 908.870813 516.466063 
L 933.142236 518.921396 
L 957.413658 508.024144 
L 981.68508 491.240109 
L 1005.956503 486.832176 
L 1030.227925 410.415246 
L 1054.499348 395.897408 
L 1078.77077 407.973777 
L 1103.042192 396.825957 
L 1127.313615 397.942487 
L 1151.585037 407.464136 
L 1175.856459 412.563054 
L 1200.127882 453.009852 
L 1224.399304 504.631117 
L 1248.670726 486.199623 
L 1272.942149 501.126143 
" style="fill:none;stroke:#1f77b4;stroke-linecap:square;stroke-opacity:0.2;stroke-width:1.5;"/>
   </g>
   <g id="line2d_74">
    <path clip-path="url(#p44063d355f)" d="M 811.785124 526.689366 
L 836.056546 507.387191 
L 860.327969 513.123652 
L 884.599391 496.41302 
L 908.870813 481.741272 
L 933.142236 471.623943 
L 957.413658 449.037592 
L 981.68508 430.548428 
L 1005.956503 388.619807 
L 1030.227925 412.05066 
L 1054.499348 403.778629 
L 1078.77077 400.69679 
L 1103.042192 415.44639 
L 1127.313615 382.527885 
L 1151.585037 396.014912 
L 1175.856459 338.241178 
L 1200.127882 273.457201 
L 1224.399304 224.540755 
L 1248.670726 218.131156 
L 1272.942149 197.682337 
" style="fill:none;stroke:#1f77b4;stroke-linecap:square;stroke-opacity:0.2;stroke-width:1.5;"/>
   </g>
   <g id="line2d_75">
    <path clip-path="url(#p44063d355f)" d="M 811.785124 418.463922 
L 836.056546 394.825225 
L 860.327969 416.975731 
L 884.599391 521.149638 
L 908.870813 480.780471 
L 933.142236 443.534589 
L 957.413658 431.068885 
L 981.68508 347.689056 
L 1005.956503 373.783062 
L 1030.227925 389.467111 
L 1054.499348 374.52181 
L 1078.77077 389.278392 
L 1103.042192 384.785085 
L 1127.313615 449.405294 
L 1151.585037 513.829558 
L 1175.856459 505.18626 
L 1200.127882 524.305863 
L 1224.399304 524.340376 
L 1248.670726 524.276216 
L 1272.942149 524.269358 
" style="fill:none;stroke:#1f77b4;stroke-linecap:square;stroke-opacity:0.2;stroke-width:1.5;"/>
   </g>
   <g id="line2d_76">
    <path clip-path="url(#p44063d355f)" d="M 811.785124 559.620015 
L 836.056546 464.893348 
L 860.327969 503.624397 
L 884.599391 530.166243 
L 908.870813 524.228871 
L 933.142236 524.274447 
L 957.413658 524.28573 
L 981.68508 524.281747 
L 1005.956503 524.272234 
L 1030.227925 524.260066 
L 1054.499348 523.951803 
L 1078.77077 495.60694 
L 1103.042192 328.489414 
L 1127.313615 192.92976 
L 1151.585037 287.087567 
L 1175.856459 331.478061 
L 1200.127882 344.745665 
L 1224.399304 338.625007 
L 1248.670726 352.938172 
L 1272.942149 375.479882 
" style="fill:none;stroke:#1f77b4;stroke-linecap:square;stroke-opacity:0.2;stroke-width:1.5;"/>
   </g>
   <g id="line2d_77">
    <path clip-path="url(#p44063d355f)" d="M 811.785124 508.711202 
L 836.056546 457.939023 
L 860.327969 487.658985 
L 884.599391 515.636784 
L 908.870813 500.804169 
L 933.142236 489.588594 
L 957.413658 478.104087 
L 981.68508 448.439835 
L 1005.956503 443.37682 
L 1030.227925 434.048271 
L 1054.499348 424.537413 
L 1078.77077 423.388975 
L 1103.042192 381.386711 
L 1127.313615 355.701356 
L 1151.585037 401.099043 
L 1175.856459 396.867138 
L 1200.127882 398.879645 
L 1224.399304 398.034314 
L 1248.670726 395.386292 
L 1272.942149 399.63943 
" style="fill:none;stroke:#1f77b4;stroke-linecap:square;stroke-width:1.5;"/>
   </g>
   <g id="line2d_78">
    <path clip-path="url(#p44063d355f)" d="M 811.785124 518.298013 
L 836.056546 526.788679 
L 860.327969 526.128914 
L 884.599391 527.275139 
L 908.870813 525.165384 
L 933.142236 525.288296 
L 957.413658 525.360642 
L 981.68508 525.913277 
L 1005.956503 507.104174 
L 1030.227925 518.221021 
L 1054.499348 513.209346 
L 1078.77077 499.768952 
L 1103.042192 491.399648 
L 1127.313615 507.923676 
L 1151.585037 499.668779 
L 1175.856459 493.729145 
L 1200.127882 485.552592 
L 1224.399304 460.111493 
L 1248.670726 440.165457 
L 1272.942149 421.217193 
" style="fill:none;stroke:#ff7f0e;stroke-linecap:square;stroke-opacity:0.2;stroke-width:1.5;"/>
   </g>
   <g id="line2d_79">
    <path clip-path="url(#p44063d355f)" d="M 811.785124 550.318919 
L 836.056546 482.46977 
L 860.327969 484.497616 
L 884.599391 436.717562 
L 908.870813 428.982115 
L 933.142236 453.655999 
L 957.413658 479.99273 
L 981.68508 478.040007 
L 1005.956503 468.611304 
L 1030.227925 472.539168 
L 1054.499348 464.320776 
L 1078.77077 459.925749 
L 1103.042192 422.343851 
L 1127.313615 406.57428 
L 1151.585037 394.820382 
L 1175.856459 389.715269 
L 1200.127882 388.735958 
L 1224.399304 387.396393 
L 1248.670726 384.753717 
L 1272.942149 361.651628 
" style="fill:none;stroke:#ff7f0e;stroke-linecap:square;stroke-opacity:0.2;stroke-width:1.5;"/>
   </g>
   <g id="line2d_80">
    <path clip-path="url(#p44063d355f)" d="M 811.785124 582.681175 
L 836.056546 524.481307 
L 860.327969 524.277986 
L 884.599391 529.861889 
L 908.870813 524.229092 
L 933.142236 524.222234 
L 957.413658 524.222234 
L 981.68508 524.266703 
L 1005.956503 507.51347 
L 1030.227925 393.103846 
L 1054.499348 368.424997 
L 1078.77077 309.666889 
L 1103.042192 330.058357 
L 1127.313615 256.003642 
L 1151.585037 147.540314 
L 1175.856459 173.116739 
L 1200.127882 140.879238 
L 1224.399304 153.523483 
L 1248.670726 141.280102 
L 1272.942149 111.6 
" style="fill:none;stroke:#ff7f0e;stroke-linecap:square;stroke-opacity:0.2;stroke-width:1.5;"/>
   </g>
   <g id="line2d_81">
    <path clip-path="url(#p44063d355f)" d="M 811.785124 562.977275 
L 836.056546 534.2844 
L 860.327969 530.02074 
L 884.599391 473.85774 
L 908.870813 497.361038 
L 933.142236 525.551032 
L 957.413658 534.187201 
L 981.68508 527.66998 
L 1005.956503 525.811384 
L 1030.227925 524.854762 
L 1054.499348 524.598663 
L 1078.77077 524.852623 
L 1103.042192 524.405642 
L 1127.313615 524.377987 
L 1151.585037 524.293031 
L 1175.856459 524.313606 
L 1200.127882 524.31958 
L 1224.399304 524.295022 
L 1248.670726 524.266261 
L 1272.942149 511.652989 
" style="fill:none;stroke:#ff7f0e;stroke-linecap:square;stroke-opacity:0.2;stroke-width:1.5;"/>
   </g>
   <g id="line2d_82">
    <path clip-path="url(#p44063d355f)" d="M 811.785124 553.568845 
L 836.056546 517.006039 
L 860.327969 516.231314 
L 884.599391 491.928083 
L 908.870813 493.934407 
L 933.142236 507.17939 
L 957.413658 515.940702 
L 981.68508 513.972492 
L 1005.956503 502.260083 
L 1030.227925 477.179699 
L 1054.499348 467.638445 
L 1078.77077 448.553553 
L 1103.042192 442.051875 
L 1127.313615 423.719896 
L 1151.585037 391.580626 
L 1175.856459 395.21869 
L 1200.127882 384.871842 
L 1224.399304 381.331598 
L 1248.670726 372.616384 
L 1272.942149 351.530452 
" style="fill:none;stroke:#ff7f0e;stroke-linecap:square;stroke-width:1.5;"/>
   </g>
   <g id="line2d_83">
    <path clip-path="url(#p44063d355f)" d="M 811.785124 482.475473 
L 836.056546 377.370264 
L 860.327969 294.394422 
L 884.599391 275.070737 
L 908.870813 266.35969 
L 933.142236 292.499443 
L 957.413658 291.576131 
L 981.68508 258.200787 
L 1005.956503 236.943086 
L 1030.227925 239.04495 
L 1054.499348 267.560857 
L 1078.77077 203.569881 
L 1103.042192 289.614927 
L 1127.313615 348.782675 
L 1151.585037 396.362727 
L 1175.856459 415.175813 
L 1200.127882 393.779885 
L 1224.399304 407.07045 
L 1248.670726 413.688237 
L 1272.942149 390.386957 
" style="fill:none;stroke:#2ca02c;stroke-linecap:square;stroke-opacity:0.2;stroke-width:1.5;"/>
   </g>
   <g id="line2d_84">
    <path clip-path="url(#p44063d355f)" d="M 811.785124 527.591489 
L 836.056546 498.475626 
L 860.327969 490.168245 
L 884.599391 480.063503 
L 908.870813 493.587895 
L 933.142236 488.109917 
L 957.413658 472.747553 
L 981.68508 472.969974 
L 1005.956503 468.580748 
L 1030.227925 481.019313 
L 1054.499348 503.254506 
L 1078.77077 508.003347 
L 1103.042192 510.909201 
L 1127.313615 504.503731 
L 1151.585037 465.76961 
L 1175.856459 488.472875 
L 1200.127882 505.984203 
L 1224.399304 476.515829 
L 1248.670726 409.758898 
L 1272.942149 452.622287 
" style="fill:none;stroke:#2ca02c;stroke-linecap:square;stroke-opacity:0.2;stroke-width:1.5;"/>
   </g>
   <g id="line2d_85">
    <path clip-path="url(#p44063d355f)" d="M 811.785124 562.229849 
L 836.056546 531.257306 
L 860.327969 527.480991 
L 884.599391 527.524355 
L 908.870813 526.411217 
L 933.142236 471.795036 
L 957.413658 408.157899 
L 981.68508 367.938144 
L 1005.956503 416.155271 
L 1030.227925 408.498094 
L 1054.499348 400.210453 
L 1078.77077 379.517851 
L 1103.042192 361.229599 
L 1127.313615 330.904727 
L 1151.585037 279.5534 
L 1175.856459 264.125745 
L 1200.127882 264.594703 
L 1224.399304 285.872413 
L 1248.670726 180.095222 
L 1272.942149 195.551663 
" style="fill:none;stroke:#2ca02c;stroke-linecap:square;stroke-opacity:0.2;stroke-width:1.5;"/>
   </g>
   <g id="line2d_86">
    <path clip-path="url(#p44063d355f)" d="M 811.785124 571.628464 
L 836.056546 525.33987 
L 860.327969 524.806531 
L 884.599391 524.61206 
L 908.870813 524.435952 
L 933.142236 524.470466 
L 957.413658 524.368474 
L 981.68508 525.890932 
L 1005.956503 524.279093 
L 1030.227925 524.375554 
L 1054.499348 524.4052 
L 1078.77077 524.302987 
L 1103.042192 524.266924 
L 1127.313615 524.254092 
L 1151.585037 524.245464 
L 1175.856459 523.063742 
L 1200.127882 522.267151 
L 1224.399304 480.50247 
L 1248.670726 429.820643 
L 1272.942149 421.052983 
" style="fill:none;stroke:#2ca02c;stroke-linecap:square;stroke-opacity:0.2;stroke-width:1.5;"/>
   </g>
   <g id="line2d_87">
    <path clip-path="url(#p44063d355f)" d="M 811.785124 535.981319 
L 836.056546 483.110766 
L 860.327969 459.212548 
L 884.599391 451.817664 
L 908.870813 452.698689 
L 933.142236 444.218716 
L 957.413658 424.212514 
L 981.68508 406.249959 
L 1005.956503 411.48955 
L 1030.227925 413.234478 
L 1054.499348 423.857754 
L 1078.77077 403.848517 
L 1103.042192 421.505163 
L 1127.313615 427.111307 
L 1151.585037 416.4828 
L 1175.856459 422.709544 
L 1200.127882 421.656485 
L 1224.399304 412.49029 
L 1248.670726 358.34075 
L 1272.942149 364.903472 
" style="fill:none;stroke:#2ca02c;stroke-linecap:square;stroke-width:1.5;"/>
   </g>
   <g id="line2d_88">
    <path clip-path="url(#p44063d355f)" d="M 811.785124 615.6 
L 836.056546 531.565593 
L 860.327969 525.53616 
L 884.599391 526.652075 
L 908.870813 525.14943 
L 933.142236 524.317589 
L 957.413658 524.28396 
L 981.68508 525.115261 
L 1005.956503 524.838365 
L 1030.227925 524.496794 
L 1054.499348 524.222234 
L 1078.77077 524.222234 
L 1103.042192 518.71579 
L 1127.313615 488.822362 
L 1151.585037 468.208498 
L 1175.856459 442.859484 
L 1200.127882 442.110878 
L 1224.399304 460.554221 
L 1248.670726 462.50805 
L 1272.942149 447.763268 
" style="fill:none;stroke:#d62728;stroke-linecap:square;stroke-opacity:0.2;stroke-width:1.5;"/>
   </g>
   <g id="line2d_89">
    <path clip-path="url(#p44063d355f)" d="M 811.785124 534.706405 
L 836.056546 441.51601 
L 860.327969 459.738653 
L 884.599391 437.052767 
L 908.870813 386.889357 
L 933.142236 355.644368 
L 957.413658 314.381388 
L 981.68508 292.592119 
L 1005.956503 308.970004 
L 1030.227925 318.308564 
L 1054.499348 352.317124 
L 1078.77077 313.277297 
L 1103.042192 355.420645 
L 1127.313615 386.562928 
L 1151.585037 363.463666 
L 1175.856459 381.137188 
L 1200.127882 376.808017 
L 1224.399304 373.186473 
L 1248.670726 280.078135 
L 1272.942149 222.382327 
" style="fill:none;stroke:#d62728;stroke-linecap:square;stroke-opacity:0.2;stroke-width:1.5;"/>
   </g>
   <g id="line2d_90">
    <path clip-path="url(#p44063d355f)" d="M 811.785124 612.883602 
L 836.056546 539.392462 
L 860.327969 494.296972 
L 884.599391 485.330957 
L 908.870813 489.309068 
L 933.142236 492.820164 
L 957.413658 493.052245 
L 981.68508 506.427054 
L 1005.956503 506.056647 
L 1030.227925 517.831047 
L 1054.499348 517.437508 
L 1078.77077 506.129632 
L 1103.042192 500.721517 
L 1127.313615 485.481352 
L 1151.585037 476.144217 
L 1175.856459 467.365545 
L 1200.127882 436.531671 
L 1224.399304 415.236629 
L 1248.670726 427.707963 
L 1272.942149 404.79501 
" style="fill:none;stroke:#d62728;stroke-linecap:square;stroke-opacity:0.2;stroke-width:1.5;"/>
   </g>
   <g id="line2d_91">
    <path clip-path="url(#p44063d355f)" d="M 811.785124 534.421151 
L 836.056546 528.515957 
L 860.327969 527.922982 
L 884.599391 530.830237 
L 908.870813 528.130973 
L 933.142236 526.172867 
L 957.413658 525.7354 
L 981.68508 528.582379 
L 1005.956503 525.973848 
L 1030.227925 525.229962 
L 1054.499348 515.317257 
L 1078.77077 422.76384 
L 1103.042192 333.701951 
L 1127.313615 447.305176 
L 1151.585037 509.83392 
L 1175.856459 489.752632 
L 1200.127882 389.943246 
L 1224.399304 271.181663 
L 1248.670726 246.278942 
L 1272.942149 141.943432 
" style="fill:none;stroke:#d62728;stroke-linecap:square;stroke-opacity:0.2;stroke-width:1.5;"/>
   </g>
   <g id="line2d_92">
    <path clip-path="url(#p44063d355f)" d="M 811.785124 574.40279 
L 836.056546 510.247506 
L 860.327969 501.873692 
L 884.599391 494.966509 
L 908.870813 482.369707 
L 933.142236 474.738747 
L 957.413658 464.363248 
L 981.68508 463.179203 
L 1005.956503 466.459716 
L 1030.227925 471.466592 
L 1054.499348 477.323531 
L 1078.77077 441.598251 
L 1103.042192 427.139976 
L 1127.313615 452.042955 
L 1151.585037 454.412575 
L 1175.856459 445.278712 
L 1200.127882 411.348453 
L 1224.399304 380.039747 
L 1248.670726 354.143272 
L 1272.942149 304.221009 
" style="fill:none;stroke:#d62728;stroke-linecap:square;stroke-width:1.5;"/>
   </g>
   <g id="patch_9">
    <path d="M 788.727273 640.8 
L 788.727273 86.4 
" style="fill:none;stroke:#000000;stroke-linecap:square;stroke-linejoin:miter;stroke-width:0.8;"/>
   </g>
   <g id="patch_10">
    <path d="M 1296 640.8 
L 1296 86.4 
" style="fill:none;stroke:#000000;stroke-linecap:square;stroke-linejoin:miter;stroke-width:0.8;"/>
   </g>
   <g id="patch_11">
    <path d="M 788.727273 640.8 
L 1296 640.8 
" style="fill:none;stroke:#000000;stroke-linecap:square;stroke-linejoin:miter;stroke-width:0.8;"/>
   </g>
   <g id="patch_12">
    <path d="M 788.727273 86.4 
L 1296 86.4 
" style="fill:none;stroke:#000000;stroke-linecap:square;stroke-linejoin:miter;stroke-width:0.8;"/>
   </g>
   <g id="text_29">
    <!-- Reward -->
    <defs>
     <path d="M 4.203125 54.6875 
L 13.1875 54.6875 
L 24.421875 12.015625 
L 35.59375 54.6875 
L 46.1875 54.6875 
L 57.421875 12.015625 
L 68.609375 54.6875 
L 77.59375 54.6875 
L 63.28125 0 
L 52.6875 0 
L 40.921875 44.828125 
L 29.109375 0 
L 18.5 0 
z
" id="DejaVuSans-119"/>
    </defs>
    <g transform="translate(1019.648011 80.4)scale(0.12 -0.12)">
     <use xlink:href="#DejaVuSans-82"/>
     <use x="69.419922" xlink:href="#DejaVuSans-101"/>
     <use x="130.943359" xlink:href="#DejaVuSans-119"/>
     <use x="212.730469" xlink:href="#DejaVuSans-97"/>
     <use x="274.009766" xlink:href="#DejaVuSans-114"/>
     <use x="315.107422" xlink:href="#DejaVuSans-100"/>
    </g>
   </g>
   <g id="legend_2">
    <g id="patch_13">
     <path d="M 795.727273 153.1125 
L 993.578835 153.1125 
Q 995.578835 153.1125 995.578835 151.1125 
L 995.578835 93.4 
Q 995.578835 91.4 993.578835 91.4 
L 795.727273 91.4 
Q 793.727273 91.4 793.727273 93.4 
L 793.727273 151.1125 
Q 793.727273 153.1125 795.727273 153.1125 
z
" style="fill:#ffffff;opacity:0.8;stroke:#cccccc;stroke-linejoin:miter;"/>
    </g>
    <g id="line2d_93">
     <path d="M 797.727273 99.498437 
L 817.727273 99.498437 
" style="fill:none;stroke:#1f77b4;stroke-linecap:square;stroke-width:1.5;"/>
    </g>
    <g id="line2d_94"/>
    <g id="text_30">
     <!-- TRandom(eps=0.2),lr=0.001 -->
     <g transform="translate(825.727273 102.998437)scale(0.1 -0.1)">
      <use xlink:href="#DejaVuSans-84"/>
      <use x="61.083984" xlink:href="#DejaVuSans-82"/>
      <use x="130.535156" xlink:href="#DejaVuSans-97"/>
      <use x="191.814453" xlink:href="#DejaVuSans-110"/>
      <use x="255.193359" xlink:href="#DejaVuSans-100"/>
      <use x="318.669922" xlink:href="#DejaVuSans-111"/>
      <use x="379.851562" xlink:href="#DejaVuSans-109"/>
      <use x="477.263672" xlink:href="#DejaVuSans-40"/>
      <use x="516.277344" xlink:href="#DejaVuSans-101"/>
      <use x="577.800781" xlink:href="#DejaVuSans-112"/>
      <use x="641.277344" xlink:href="#DejaVuSans-115"/>
      <use x="693.376953" xlink:href="#DejaVuSans-61"/>
      <use x="777.166016" xlink:href="#DejaVuSans-48"/>
      <use x="840.789062" xlink:href="#DejaVuSans-46"/>
      <use x="872.576172" xlink:href="#DejaVuSans-50"/>
      <use x="936.199219" xlink:href="#DejaVuSans-41"/>
      <use x="975.212891" xlink:href="#DejaVuSans-44"/>
      <use x="1007" xlink:href="#DejaVuSans-108"/>
      <use x="1034.783203" xlink:href="#DejaVuSans-114"/>
      <use x="1075.896484" xlink:href="#DejaVuSans-61"/>
      <use x="1159.685547" xlink:href="#DejaVuSans-48"/>
      <use x="1223.308594" xlink:href="#DejaVuSans-46"/>
      <use x="1255.095703" xlink:href="#DejaVuSans-48"/>
      <use x="1318.71875" xlink:href="#DejaVuSans-48"/>
      <use x="1382.341797" xlink:href="#DejaVuSans-49"/>
     </g>
    </g>
    <g id="line2d_95">
     <path d="M 797.727273 114.176562 
L 817.727273 114.176562 
" style="fill:none;stroke:#ff7f0e;stroke-linecap:square;stroke-width:1.5;"/>
    </g>
    <g id="line2d_96"/>
    <g id="text_31">
     <!-- TRandom(eps=0.05),lr=0.001 -->
     <g transform="translate(825.727273 117.676562)scale(0.1 -0.1)">
      <use xlink:href="#DejaVuSans-84"/>
      <use x="61.083984" xlink:href="#DejaVuSans-82"/>
      <use x="130.535156" xlink:href="#DejaVuSans-97"/>
      <use x="191.814453" xlink:href="#DejaVuSans-110"/>
      <use x="255.193359" xlink:href="#DejaVuSans-100"/>
      <use x="318.669922" xlink:href="#DejaVuSans-111"/>
      <use x="379.851562" xlink:href="#DejaVuSans-109"/>
      <use x="477.263672" xlink:href="#DejaVuSans-40"/>
      <use x="516.277344" xlink:href="#DejaVuSans-101"/>
      <use x="577.800781" xlink:href="#DejaVuSans-112"/>
      <use x="641.277344" xlink:href="#DejaVuSans-115"/>
      <use x="693.376953" xlink:href="#DejaVuSans-61"/>
      <use x="777.166016" xlink:href="#DejaVuSans-48"/>
      <use x="840.789062" xlink:href="#DejaVuSans-46"/>
      <use x="872.576172" xlink:href="#DejaVuSans-48"/>
      <use x="936.199219" xlink:href="#DejaVuSans-53"/>
      <use x="999.822266" xlink:href="#DejaVuSans-41"/>
      <use x="1038.835938" xlink:href="#DejaVuSans-44"/>
      <use x="1070.623047" xlink:href="#DejaVuSans-108"/>
      <use x="1098.40625" xlink:href="#DejaVuSans-114"/>
      <use x="1139.519531" xlink:href="#DejaVuSans-61"/>
      <use x="1223.308594" xlink:href="#DejaVuSans-48"/>
      <use x="1286.931641" xlink:href="#DejaVuSans-46"/>
      <use x="1318.71875" xlink:href="#DejaVuSans-48"/>
      <use x="1382.341797" xlink:href="#DejaVuSans-48"/>
      <use x="1445.964844" xlink:href="#DejaVuSans-49"/>
     </g>
    </g>
    <g id="line2d_97">
     <path d="M 797.727273 128.854687 
L 817.727273 128.854687 
" style="fill:none;stroke:#2ca02c;stroke-linecap:square;stroke-width:1.5;"/>
    </g>
    <g id="line2d_98"/>
    <g id="text_32">
     <!-- SingleFrame(eps=0.05),lr=0.001 -->
     <g transform="translate(825.727273 132.354687)scale(0.1 -0.1)">
      <use xlink:href="#DejaVuSans-83"/>
      <use x="63.476562" xlink:href="#DejaVuSans-105"/>
      <use x="91.259766" xlink:href="#DejaVuSans-110"/>
      <use x="154.638672" xlink:href="#DejaVuSans-103"/>
      <use x="218.115234" xlink:href="#DejaVuSans-108"/>
      <use x="245.898438" xlink:href="#DejaVuSans-101"/>
      <use x="307.421875" xlink:href="#DejaVuSans-70"/>
      <use x="364.832031" xlink:href="#DejaVuSans-114"/>
      <use x="405.945312" xlink:href="#DejaVuSans-97"/>
      <use x="467.224609" xlink:href="#DejaVuSans-109"/>
      <use x="564.636719" xlink:href="#DejaVuSans-101"/>
      <use x="626.160156" xlink:href="#DejaVuSans-40"/>
      <use x="665.173828" xlink:href="#DejaVuSans-101"/>
      <use x="726.697266" xlink:href="#DejaVuSans-112"/>
      <use x="790.173828" xlink:href="#DejaVuSans-115"/>
      <use x="842.273438" xlink:href="#DejaVuSans-61"/>
      <use x="926.0625" xlink:href="#DejaVuSans-48"/>
      <use x="989.685547" xlink:href="#DejaVuSans-46"/>
      <use x="1021.472656" xlink:href="#DejaVuSans-48"/>
      <use x="1085.095703" xlink:href="#DejaVuSans-53"/>
      <use x="1148.71875" xlink:href="#DejaVuSans-41"/>
      <use x="1187.732422" xlink:href="#DejaVuSans-44"/>
      <use x="1219.519531" xlink:href="#DejaVuSans-108"/>
      <use x="1247.302734" xlink:href="#DejaVuSans-114"/>
      <use x="1288.416016" xlink:href="#DejaVuSans-61"/>
      <use x="1372.205078" xlink:href="#DejaVuSans-48"/>
      <use x="1435.828125" xlink:href="#DejaVuSans-46"/>
      <use x="1467.615234" xlink:href="#DejaVuSans-48"/>
      <use x="1531.238281" xlink:href="#DejaVuSans-48"/>
      <use x="1594.861328" xlink:href="#DejaVuSans-49"/>
     </g>
    </g>
    <g id="line2d_99">
     <path d="M 797.727273 143.532812 
L 817.727273 143.532812 
" style="fill:none;stroke:#d62728;stroke-linecap:square;stroke-width:1.5;"/>
    </g>
    <g id="line2d_100"/>
    <g id="text_33">
     <!-- SingleFrame(eps=0.2),lr=0.001 -->
     <g transform="translate(825.727273 147.032812)scale(0.1 -0.1)">
      <use xlink:href="#DejaVuSans-83"/>
      <use x="63.476562" xlink:href="#DejaVuSans-105"/>
      <use x="91.259766" xlink:href="#DejaVuSans-110"/>
      <use x="154.638672" xlink:href="#DejaVuSans-103"/>
      <use x="218.115234" xlink:href="#DejaVuSans-108"/>
      <use x="245.898438" xlink:href="#DejaVuSans-101"/>
      <use x="307.421875" xlink:href="#DejaVuSans-70"/>
      <use x="364.832031" xlink:href="#DejaVuSans-114"/>
      <use x="405.945312" xlink:href="#DejaVuSans-97"/>
      <use x="467.224609" xlink:href="#DejaVuSans-109"/>
      <use x="564.636719" xlink:href="#DejaVuSans-101"/>
      <use x="626.160156" xlink:href="#DejaVuSans-40"/>
      <use x="665.173828" xlink:href="#DejaVuSans-101"/>
      <use x="726.697266" xlink:href="#DejaVuSans-112"/>
      <use x="790.173828" xlink:href="#DejaVuSans-115"/>
      <use x="842.273438" xlink:href="#DejaVuSans-61"/>
      <use x="926.0625" xlink:href="#DejaVuSans-48"/>
      <use x="989.685547" xlink:href="#DejaVuSans-46"/>
      <use x="1021.472656" xlink:href="#DejaVuSans-50"/>
      <use x="1085.095703" xlink:href="#DejaVuSans-41"/>
      <use x="1124.109375" xlink:href="#DejaVuSans-44"/>
      <use x="1155.896484" xlink:href="#DejaVuSans-108"/>
      <use x="1183.679688" xlink:href="#DejaVuSans-114"/>
      <use x="1224.792969" xlink:href="#DejaVuSans-61"/>
      <use x="1308.582031" xlink:href="#DejaVuSans-48"/>
      <use x="1372.205078" xlink:href="#DejaVuSans-46"/>
      <use x="1403.992188" xlink:href="#DejaVuSans-48"/>
      <use x="1467.615234" xlink:href="#DejaVuSans-48"/>
      <use x="1531.238281" xlink:href="#DejaVuSans-49"/>
     </g>
    </g>
   </g>
  </g>
 </g>
 <defs>
  <clipPath id="p5733d27742">
   <rect height="554.4" width="507.272727" x="180" y="86.4"/>
  </clipPath>
  <clipPath id="p44063d355f">
   <rect height="554.4" width="507.272727" x="788.727273" y="86.4"/>
  </clipPath>
 </defs>
</svg>
